{
  "header": {
    "PPQ": 96,
    "timeSignature": [
      1,
      4
    ],
    "bpm": 120,
    "name": ""
  },
  "tempo": [],
  "timeSignature": [
    {
      "absoluteTime": 0,
      "seconds": 0,
      "numerator": 1,
      "denominator": 2,
      "click": 36,
      "notesQ": 8
    },
    {
      "absoluteTime": 0,
      "seconds": 0,
      "numerator": 1,
      "denominator": 2,
      "click": 36,
      "notesQ": 8
    }
  ],
  "startTime": 0,
  "duration": 168.04166666666708,
  "tracks": [
    {
      "startTime": 0,
      "duration": 168.04166666666708,
      "length": 1929,
      "notes": [
        {
          "name": "F6",
          "midi": 89,
          "time": 0,
          "velocity": 0.4094488188976378,
          "duration": 0.010416666666666666
        },
        {
          "name": "A#3",
          "midi": 58,
          "time": 0,
          "velocity": 0.9291338582677166,
          "duration": 0.3697916666666667
        },
        {
          "name": "F3",
          "midi": 53,
          "time": 0.0625,
          "velocity": 0.4409448818897638,
          "duration": 0.1875
        },
        {
          "name": "F3",
          "midi": 53,
          "time": 0.25,
          "velocity": 0.8267716535433071,
          "duration": 0.28645833333333337
        },
        {
          "name": "A#3",
          "midi": 58,
          "time": 0.375,
          "velocity": 0.6220472440944882,
          "duration": 0.13020833333333337
        },
        {
          "name": "C4",
          "midi": 60,
          "time": 0.5,
          "velocity": 0.8110236220472441,
          "duration": 0.36979166666666663
        },
        {
          "name": "G#3",
          "midi": 56,
          "time": 0.75,
          "velocity": 0.7401574803149606,
          "duration": 0.4375
        },
        {
          "name": "C4",
          "midi": 60,
          "time": 0.875,
          "velocity": 0.7165354330708661,
          "duration": 0.375
        },
        {
          "name": "F3",
          "midi": 53,
          "time": 1,
          "velocity": 0.5669291338582677,
          "duration": 0.30729166666666674
        },
        {
          "name": "F4",
          "midi": 65,
          "time": 1.125,
          "velocity": 0.6614173228346457,
          "duration": 0.25
        },
        {
          "name": "C4",
          "midi": 60,
          "time": 1.25,
          "velocity": 0.84251968503937,
          "duration": 0.25
        },
        {
          "name": "F4",
          "midi": 65,
          "time": 1.375,
          "velocity": 0.7716535433070866,
          "duration": 0.25
        },
        {
          "name": "C4",
          "midi": 60,
          "time": 1.5,
          "velocity": 0.8503937007874016,
          "duration": 0.36979166666666674
        },
        {
          "name": "F4",
          "midi": 65,
          "time": 1.625,
          "velocity": 0.7874015748031497,
          "duration": 0.15104166666666674
        },
        {
          "name": "F#4",
          "midi": 66,
          "time": 1.6875,
          "velocity": 0.6377952755905512,
          "duration": 0.203125
        },
        {
          "name": "F3",
          "midi": 53,
          "time": 1.75,
          "velocity": 0.4566929133858268,
          "duration": 0.3125
        },
        {
          "name": "D#4",
          "midi": 63,
          "time": 1.75,
          "velocity": 0.7086614173228346,
          "duration": 0.171875
        },
        {
          "name": "A#2",
          "midi": 46,
          "time": 1.875,
          "velocity": 0.4251968503937008,
          "duration": 0.25
        },
        {
          "name": "C4",
          "midi": 60,
          "time": 1.875,
          "velocity": 0.6614173228346457,
          "duration": 0.3697916666666665
        },
        {
          "name": "A#4",
          "midi": 70,
          "time": 1.875,
          "velocity": 0.6614173228346457,
          "duration": 0.25
        },
        {
          "name": "D#5",
          "midi": 75,
          "time": 2,
          "velocity": 0.7716535433070866,
          "duration": 0.375
        },
        {
          "name": "A#2",
          "midi": 46,
          "time": 2.125,
          "velocity": 0.4645669291338583,
          "duration": 0.375
        },
        {
          "name": "A#4",
          "midi": 70,
          "time": 2.125,
          "velocity": 0.6614173228346457,
          "duration": 0.20833333333333348
        },
        {
          "name": "G#3",
          "midi": 56,
          "time": 2.25,
          "velocity": 0.47244094488188976,
          "duration": 0.8177083333333335
        },
        {
          "name": "C4",
          "midi": 60,
          "time": 2.25,
          "velocity": 0.6062992125984252,
          "duration": 0.328125
        },
        {
          "name": "F4",
          "midi": 65,
          "time": 2.25,
          "velocity": 0.8740157480314961,
          "duration": 0.375
        },
        {
          "name": "C3",
          "midi": 48,
          "time": 2.375,
          "velocity": 0.4330708661417323,
          "duration": 0.15625
        },
        {
          "name": "D#5",
          "midi": 75,
          "time": 2.375,
          "velocity": 0.5433070866141733,
          "duration": 0.296875
        },
        {
          "name": "A#2",
          "midi": 46,
          "time": 2.5,
          "velocity": 0.4566929133858268,
          "duration": 0.18229166666666652
        },
        {
          "name": "C#4",
          "midi": 61,
          "time": 2.5,
          "velocity": 0.5433070866141733,
          "duration": 0.24479166666666652
        },
        {
          "name": "D#4",
          "midi": 63,
          "time": 2.5,
          "velocity": 0.5118110236220472,
          "duration": 0.15104166666666652
        },
        {
          "name": "A#4",
          "midi": 70,
          "time": 2.5,
          "velocity": 0.5039370078740157,
          "duration": 0.16666666666666652
        },
        {
          "name": "F4",
          "midi": 65,
          "time": 2.625,
          "velocity": 0.7007874015748031,
          "duration": 0.15625
        },
        {
          "name": "C5",
          "midi": 72,
          "time": 2.625,
          "velocity": 0.3779527559055118,
          "duration": 0.11979166666666652
        },
        {
          "name": "C3",
          "midi": 48,
          "time": 2.75,
          "velocity": 0.4409448818897638,
          "duration": 0.17708333333333348
        },
        {
          "name": "C#4",
          "midi": 61,
          "time": 2.75,
          "velocity": 0.49606299212598426,
          "duration": 0.5520833333333335
        },
        {
          "name": "C5",
          "midi": 72,
          "time": 2.75,
          "velocity": 0.7716535433070866,
          "duration": 0.14583333333333348
        },
        {
          "name": "D#5",
          "midi": 75,
          "time": 2.875,
          "velocity": 0.7322834645669292,
          "duration": 0.15625
        },
        {
          "name": "F4",
          "midi": 65,
          "time": 3,
          "velocity": 0.8110236220472441,
          "duration": 0.171875
        },
        {
          "name": "A#4",
          "midi": 70,
          "time": 3.125,
          "velocity": 0.7086614173228346,
          "duration": 0.16145833333333348
        },
        {
          "name": "C5",
          "midi": 72,
          "time": 3.125,
          "velocity": 0.5748031496062992,
          "duration": 0.16145833333333348
        },
        {
          "name": "F3",
          "midi": 53,
          "time": 3.25,
          "velocity": 0.5275590551181102,
          "duration": 0.25
        },
        {
          "name": "D#5",
          "midi": 75,
          "time": 3.25,
          "velocity": 0.7874015748031497,
          "duration": 0.24479166666666652
        },
        {
          "name": "F4",
          "midi": 65,
          "time": 3.375,
          "velocity": 0.4645669291338583,
          "duration": 0.13541666666666652
        },
        {
          "name": "F3",
          "midi": 53,
          "time": 3.5,
          "velocity": 0.4251968503937008,
          "duration": 0.296875
        },
        {
          "name": "G#3",
          "midi": 56,
          "time": 3.5,
          "velocity": 0.7322834645669292,
          "duration": 0.53125
        },
        {
          "name": "A#4",
          "midi": 70,
          "time": 3.5,
          "velocity": 0.5196850393700787,
          "duration": 0.11979166666666652
        },
        {
          "name": "C5",
          "midi": 72,
          "time": 3.5,
          "velocity": 0.6141732283464567,
          "duration": 0.2760416666666665
        },
        {
          "name": "F4",
          "midi": 65,
          "time": 3.75,
          "velocity": 0.41732283464566927,
          "duration": 0.15104166666666652
        },
        {
          "name": "F5",
          "midi": 77,
          "time": 3.75,
          "velocity": 0.6141732283464567,
          "duration": 0.171875
        },
        {
          "name": "A#4",
          "midi": 70,
          "time": 3.875,
          "velocity": 0.6377952755905512,
          "duration": 0.16666666666666696
        },
        {
          "name": "A#3",
          "midi": 58,
          "time": 4,
          "velocity": 0.5433070866141733,
          "duration": 0.557291666666667
        },
        {
          "name": "D#5",
          "midi": 75,
          "time": 4,
          "velocity": 0.7874015748031497,
          "duration": 0.36979166666666696
        },
        {
          "name": "A#4",
          "midi": 70,
          "time": 4.25,
          "velocity": 0.48031496062992124,
          "duration": 0.11979166666666696
        },
        {
          "name": "C5",
          "midi": 72,
          "time": 4.25,
          "velocity": 0.6771653543307087,
          "duration": 0.16666666666666696
        },
        {
          "name": "A#4",
          "midi": 70,
          "time": 4.375,
          "velocity": 0.44881889763779526,
          "duration": 0.16666666666666696
        },
        {
          "name": "D#5",
          "midi": 75,
          "time": 4.375,
          "velocity": 0.7244094488188977,
          "duration": 0.375
        },
        {
          "name": "G#3",
          "midi": 56,
          "time": 4.5,
          "velocity": 0.4881889763779528,
          "duration": 0.30208333333333304
        },
        {
          "name": "C4",
          "midi": 60,
          "time": 4.5,
          "velocity": 0.5433070866141733,
          "duration": 0.328125
        },
        {
          "name": "F5",
          "midi": 77,
          "time": 4.625,
          "velocity": 0.5984251968503937,
          "duration": 0.23958333333333304
        },
        {
          "name": "C#4",
          "midi": 61,
          "time": 4.75,
          "velocity": 0.6062992125984252,
          "duration": 0.25
        },
        {
          "name": "A#4",
          "midi": 70,
          "time": 4.75,
          "velocity": 0.3937007874015748,
          "duration": 0.18229166666666696
        },
        {
          "name": "D#5",
          "midi": 75,
          "time": 4.75,
          "velocity": 0.6929133858267716,
          "duration": 0.171875
        },
        {
          "name": "F5",
          "midi": 77,
          "time": 4.875,
          "velocity": 0.6062992125984252,
          "duration": 0.171875
        },
        {
          "name": "C#4",
          "midi": 61,
          "time": 5,
          "velocity": 0.5039370078740157,
          "duration": 1.015625
        },
        {
          "name": "C5",
          "midi": 72,
          "time": 5,
          "velocity": 0.7480314960629921,
          "duration": 0.171875
        },
        {
          "name": "D#5",
          "midi": 75,
          "time": 5.125,
          "velocity": 0.7322834645669292,
          "duration": 0.19270833333333304
        },
        {
          "name": "A#4",
          "midi": 70,
          "time": 5.25,
          "velocity": 0.7401574803149606,
          "duration": 0.36979166666666696
        },
        {
          "name": "C5",
          "midi": 72,
          "time": 5.375,
          "velocity": 0.6062992125984252,
          "duration": 0.13541666666666696
        },
        {
          "name": "F3",
          "midi": 53,
          "time": 5.5,
          "velocity": 0.7559055118110236,
          "duration": 0.25
        },
        {
          "name": "D#5",
          "midi": 75,
          "time": 5.5,
          "velocity": 0.5590551181102362,
          "duration": 0.171875
        },
        {
          "name": "A#4",
          "midi": 70,
          "time": 5.625,
          "velocity": 0.5984251968503937,
          "duration": 0.35416666666666696
        },
        {
          "name": "F3",
          "midi": 53,
          "time": 5.75,
          "velocity": 0.5039370078740157,
          "duration": 0.30208333333333304
        },
        {
          "name": "G#3",
          "midi": 56,
          "time": 5.75,
          "velocity": 0.5275590551181102,
          "duration": 0.536458333333333
        },
        {
          "name": "D#5",
          "midi": 75,
          "time": 6,
          "velocity": 0.8188976377952756,
          "duration": 0.375
        },
        {
          "name": "A#3",
          "midi": 58,
          "time": 6.25,
          "velocity": 0.5511811023622047,
          "duration": 0.53125
        },
        {
          "name": "C5",
          "midi": 72,
          "time": 6.25,
          "velocity": 0.5826771653543307,
          "duration": 1.744791666666667
        },
        {
          "name": "D#5",
          "midi": 75,
          "time": 6.375,
          "velocity": 0.6456692913385826,
          "duration": 0.25520833333333304
        },
        {
          "name": "C6",
          "midi": 84,
          "time": 6.375,
          "velocity": 0.4015748031496063,
          "duration": 1.385416666666667
        },
        {
          "name": "G#3",
          "midi": 56,
          "time": 6.75,
          "velocity": 0.49606299212598426,
          "duration": 0.536458333333333
        },
        {
          "name": "C4",
          "midi": 60,
          "time": 6.75,
          "velocity": 0.5354330708661418,
          "duration": 0.328125
        },
        {
          "name": "F5",
          "midi": 77,
          "time": 6.75,
          "velocity": 0.5748031496062992,
          "duration": 0.583333333333333
        },
        {
          "name": "C#4",
          "midi": 61,
          "time": 7,
          "velocity": 0.6062992125984252,
          "duration": 0.25
        },
        {
          "name": "C#4",
          "midi": 61,
          "time": 7.25,
          "velocity": 0.48031496062992124,
          "duration": 0.557291666666667
        },
        {
          "name": "A#4",
          "midi": 70,
          "time": 7.25,
          "velocity": 0.4251968503937008,
          "duration": 0.125
        },
        {
          "name": "D#5",
          "midi": 75,
          "time": 7.25,
          "velocity": 0.7244094488188977,
          "duration": 0.375
        },
        {
          "name": "F5",
          "midi": 77,
          "time": 7.5,
          "velocity": 0.6220472440944882,
          "duration": 0.5416666666666661
        },
        {
          "name": "A#4",
          "midi": 70,
          "time": 7.625,
          "velocity": 0.3779527559055118,
          "duration": 0.4791666666666661
        },
        {
          "name": "D#5",
          "midi": 75,
          "time": 7.625,
          "velocity": 0.5984251968503937,
          "duration": 0.328125
        },
        {
          "name": "F3",
          "midi": 53,
          "time": 7.75,
          "velocity": 0.4566929133858268,
          "duration": 0.24479166666666696
        },
        {
          "name": "F3",
          "midi": 53,
          "time": 8,
          "velocity": 0.3779527559055118,
          "duration": 0.8125
        },
        {
          "name": "G#3",
          "midi": 56,
          "time": 8,
          "velocity": 0.6377952755905512,
          "duration": 0.25
        },
        {
          "name": "C5",
          "midi": 72,
          "time": 8,
          "velocity": 0.84251968503937,
          "duration": 0.3697916666666661
        },
        {
          "name": "G#3",
          "midi": 56,
          "time": 8.25,
          "velocity": 0.8188976377952756,
          "duration": 0.2864583333333339
        },
        {
          "name": "C5",
          "midi": 72,
          "time": 8.375,
          "velocity": 0.6929133858267716,
          "duration": 0.703125
        },
        {
          "name": "A#3",
          "midi": 58,
          "time": 8.5,
          "velocity": 0.5511811023622047,
          "duration": 0.5364583333333339
        },
        {
          "name": "G#3",
          "midi": 56,
          "time": 9,
          "velocity": 0.5511811023622047,
          "duration": 0.5416666666666661
        },
        {
          "name": "C4",
          "midi": 60,
          "time": 9,
          "velocity": 0.5669291338582677,
          "duration": 0.3333333333333339
        },
        {
          "name": "F5",
          "midi": 77,
          "time": 9,
          "velocity": 0.6535433070866141,
          "duration": 0.24479166666666607
        },
        {
          "name": "C#4",
          "midi": 61,
          "time": 9.25,
          "velocity": 0.6220472440944882,
          "duration": 0.25
        },
        {
          "name": "C5",
          "midi": 72,
          "time": 9.25,
          "velocity": 0.7480314960629921,
          "duration": 0.15104166666666607
        },
        {
          "name": "D#5",
          "midi": 75,
          "time": 9.375,
          "velocity": 0.7401574803149606,
          "duration": 0.16666666666666607
        },
        {
          "name": "C#4",
          "midi": 61,
          "time": 9.5,
          "velocity": 0.5118110236220472,
          "duration": 1.046875
        },
        {
          "name": "F4",
          "midi": 65,
          "time": 9.5,
          "velocity": 0.6456692913385826,
          "duration": 0.8125
        },
        {
          "name": "A#4",
          "midi": 70,
          "time": 9.625,
          "velocity": 0.7086614173228346,
          "duration": 0.171875
        },
        {
          "name": "C5",
          "midi": 72,
          "time": 9.625,
          "velocity": 0.5275590551181102,
          "duration": 0.171875
        },
        {
          "name": "D#5",
          "midi": 75,
          "time": 9.75,
          "velocity": 0.8031496062992126,
          "duration": 0.25
        },
        {
          "name": "F3",
          "midi": 53,
          "time": 10,
          "velocity": 0.7716535433070866,
          "duration": 0.25
        },
        {
          "name": "A#4",
          "midi": 70,
          "time": 10,
          "velocity": 0.7401574803149606,
          "duration": 0.15625
        },
        {
          "name": "D#5",
          "midi": 75,
          "time": 10.125,
          "velocity": 0.8267716535433071,
          "duration": 0.19270833333333393
        },
        {
          "name": "F3",
          "midi": 53,
          "time": 10.25,
          "velocity": 0.49606299212598426,
          "duration": 0.5625
        },
        {
          "name": "G#3",
          "midi": 56,
          "time": 10.25,
          "velocity": 0.5354330708661418,
          "duration": 0.25
        },
        {
          "name": "A#5",
          "midi": 82,
          "time": 10.25,
          "velocity": 0.3779527559055118,
          "duration": 0.6458333333333339
        },
        {
          "name": "G#4",
          "midi": 68,
          "time": 10.375,
          "velocity": 0.4409448818897638,
          "duration": 1.2447916666666696
        },
        {
          "name": "A#4",
          "midi": 70,
          "time": 10.375,
          "velocity": 0.7165354330708661,
          "duration": 0.16666666666666607
        },
        {
          "name": "G#3",
          "midi": 56,
          "time": 10.5,
          "velocity": 0.8031496062992126,
          "duration": 0.2916666666666661
        },
        {
          "name": "F5",
          "midi": 77,
          "time": 10.625,
          "velocity": 0.6692913385826772,
          "duration": 0.36979166666666785
        },
        {
          "name": "A#3",
          "midi": 58,
          "time": 10.75,
          "velocity": 0.6771653543307087,
          "duration": 0.5416666666666679
        },
        {
          "name": "C5",
          "midi": 72,
          "time": 10.75,
          "velocity": 0.6377952755905512,
          "duration": 0.18229166666666785
        },
        {
          "name": "D#5",
          "midi": 75,
          "time": 10.875,
          "velocity": 0.7874015748031497,
          "duration": 0.1458333333333357
        },
        {
          "name": "F5",
          "midi": 77,
          "time": 11.000000000000002,
          "velocity": 0.7637795275590551,
          "duration": 0.296875
        },
        {
          "name": "G#5",
          "midi": 80,
          "time": 11.000000000000002,
          "velocity": 0.4881889763779528,
          "duration": 0.25
        },
        {
          "name": "C5",
          "midi": 72,
          "time": 11.125000000000002,
          "velocity": 0.5669291338582677,
          "duration": 0.171875
        },
        {
          "name": "G#3",
          "midi": 56,
          "time": 11.250000000000002,
          "velocity": 0.6929133858267716,
          "duration": 0.2864583333333339
        },
        {
          "name": "C4",
          "midi": 60,
          "time": 11.250000000000002,
          "velocity": 0.5196850393700787,
          "duration": 0.30729166666666785
        },
        {
          "name": "A#5",
          "midi": 82,
          "time": 11.250000000000002,
          "velocity": 0.4881889763779528,
          "duration": 0.5104166666666679
        },
        {
          "name": "C#4",
          "midi": 61,
          "time": 11.500000000000002,
          "velocity": 0.5354330708661418,
          "duration": 0.2500000000000018
        },
        {
          "name": "C5",
          "midi": 72,
          "time": 11.500000000000002,
          "velocity": 0.5905511811023622,
          "duration": 0.15625000000000178
        },
        {
          "name": "D#5",
          "midi": 75,
          "time": 11.625000000000004,
          "velocity": 0.6692913385826772,
          "duration": 0.16666666666666607
        },
        {
          "name": "C#4",
          "midi": 61,
          "time": 11.750000000000004,
          "velocity": 0.48031496062992124,
          "duration": 0.5625
        },
        {
          "name": "G#4",
          "midi": 68,
          "time": 11.750000000000004,
          "velocity": 0.4251968503937008,
          "duration": 0.5052083333333339
        },
        {
          "name": "A#4",
          "midi": 70,
          "time": 11.750000000000004,
          "velocity": 0.8031496062992126,
          "duration": 0.3697916666666661
        },
        {
          "name": "C5",
          "midi": 72,
          "time": 11.875000000000004,
          "velocity": 0.4881889763779528,
          "duration": 0.171875
        },
        {
          "name": "D#5",
          "midi": 75,
          "time": 12.000000000000004,
          "velocity": 0.5511811023622047,
          "duration": 0.21354166666666607
        },
        {
          "name": "F5",
          "midi": 77,
          "time": 12.000000000000004,
          "velocity": 0.6062992125984252,
          "duration": 0.328125
        },
        {
          "name": "A#4",
          "midi": 70,
          "time": 12.125000000000004,
          "velocity": 0.6141732283464567,
          "duration": 1.3749999999999982
        },
        {
          "name": "F3",
          "midi": 53,
          "time": 12.250000000000004,
          "velocity": 0.8188976377952756,
          "duration": 0.25
        },
        {
          "name": "A#5",
          "midi": 82,
          "time": 12.375000000000004,
          "velocity": 0.3700787401574803,
          "duration": 1.7291666666666643
        },
        {
          "name": "F3",
          "midi": 53,
          "time": 12.500000000000004,
          "velocity": 0.5039370078740157,
          "duration": 0.2916666666666661
        },
        {
          "name": "G#3",
          "midi": 56,
          "time": 12.500000000000004,
          "velocity": 0.6614173228346457,
          "duration": 0.24479166666666607
        },
        {
          "name": "C5",
          "midi": 72,
          "time": 12.625000000000004,
          "velocity": 0.6299212598425197,
          "duration": 0.42708333333333215
        },
        {
          "name": "G#3",
          "midi": 56,
          "time": 12.750000000000004,
          "velocity": 0.5826771653543307,
          "duration": 0.2916666666666661
        },
        {
          "name": "A#3",
          "midi": 58,
          "time": 13.000000000000004,
          "velocity": 0.5354330708661418,
          "duration": 0.5416666666666643
        },
        {
          "name": "G#4",
          "midi": 68,
          "time": 13.000000000000004,
          "velocity": 0.4566929133858268,
          "duration": 0.5416666666666643
        },
        {
          "name": "D#5",
          "midi": 75,
          "time": 13.000000000000004,
          "velocity": 0.6771653543307087,
          "duration": 0.3697916666666643
        },
        {
          "name": "F5",
          "midi": 77,
          "time": 13.250000000000002,
          "velocity": 0.6692913385826772,
          "duration": 1.026041666666666
        },
        {
          "name": "D#5",
          "midi": 75,
          "time": 13.375000000000002,
          "velocity": 0.5905511811023622,
          "duration": 0.296875
        },
        {
          "name": "G#3",
          "midi": 56,
          "time": 13.500000000000002,
          "velocity": 0.5590551181102362,
          "duration": 0.796875
        },
        {
          "name": "C4",
          "midi": 60,
          "time": 13.500000000000002,
          "velocity": 0.5275590551181102,
          "duration": 0.3125
        },
        {
          "name": "A#4",
          "midi": 70,
          "time": 13.500000000000002,
          "velocity": 0.5984251968503937,
          "duration": 2.005208333333334
        },
        {
          "name": "C#4",
          "midi": 61,
          "time": 13.750000000000002,
          "velocity": 0.7244094488188977,
          "duration": 0.3697916666666661
        },
        {
          "name": "C#4",
          "midi": 61,
          "time": 14.125000000000002,
          "velocity": 0.5433070866141733,
          "duration": 0.4427083333333339
        },
        {
          "name": "G#4",
          "midi": 68,
          "time": 14.250000000000002,
          "velocity": 0.5511811023622047,
          "duration": 0.13541666666666607
        },
        {
          "name": "D#5",
          "midi": 75,
          "time": 14.250000000000002,
          "velocity": 0.6692913385826772,
          "duration": 0.3645833333333339
        },
        {
          "name": "A#5",
          "midi": 82,
          "time": 14.250000000000002,
          "velocity": 0.5196850393700787,
          "duration": 0.25
        },
        {
          "name": "F3",
          "midi": 53,
          "time": 14.500000000000002,
          "velocity": 0.5118110236220472,
          "duration": 0.25
        },
        {
          "name": "A#5",
          "midi": 82,
          "time": 14.500000000000002,
          "velocity": 0.3937007874015748,
          "duration": 2.2447916666666696
        },
        {
          "name": "G#4",
          "midi": 68,
          "time": 14.625000000000002,
          "velocity": 0.4251968503937008,
          "duration": 0.9739583333333339
        },
        {
          "name": "F3",
          "midi": 53,
          "time": 14.750000000000002,
          "velocity": 0.4094488188976378,
          "duration": 0.3125
        },
        {
          "name": "G#3",
          "midi": 56,
          "time": 14.750000000000002,
          "velocity": 0.6929133858267716,
          "duration": 0.24479166666666607
        },
        {
          "name": "C5",
          "midi": 72,
          "time": 14.750000000000002,
          "velocity": 0.7401574803149606,
          "duration": 0.3177083333333339
        },
        {
          "name": "G#3",
          "midi": 56,
          "time": 15.000000000000002,
          "velocity": 0.5748031496062992,
          "duration": 0.2708333333333339
        },
        {
          "name": "A#3",
          "midi": 58,
          "time": 15.000000000000002,
          "velocity": 0.33070866141732286,
          "duration": 0.11458333333333393
        },
        {
          "name": "A#3",
          "midi": 58,
          "time": 15.250000000000002,
          "velocity": 0.5354330708661418,
          "duration": 0.5416666666666679
        },
        {
          "name": "F4",
          "midi": 65,
          "time": 15.250000000000002,
          "velocity": 0.48031496062992124,
          "duration": 0.35416666666666785
        },
        {
          "name": "C5",
          "midi": 72,
          "time": 15.500000000000002,
          "velocity": 0.7795275590551181,
          "duration": 0.3645833333333339
        },
        {
          "name": "F4",
          "midi": 65,
          "time": 15.625000000000004,
          "velocity": 0.3700787401574803,
          "duration": 0.3124999999999982
        },
        {
          "name": "G#3",
          "midi": 56,
          "time": 15.750000000000004,
          "velocity": 0.6141732283464567,
          "duration": 0.23958333333333215
        },
        {
          "name": "C4",
          "midi": 60,
          "time": 15.750000000000004,
          "velocity": 0.5275590551181102,
          "duration": 0.3125
        },
        {
          "name": "C5",
          "midi": 72,
          "time": 15.875000000000002,
          "velocity": 0.5826771653543307,
          "duration": 0.15104166666666963
        },
        {
          "name": "C#4",
          "midi": 61,
          "time": 16.000000000000004,
          "velocity": 0.5275590551181102,
          "duration": 0.29166666666666785
        },
        {
          "name": "G#4",
          "midi": 68,
          "time": 16.000000000000004,
          "velocity": 0.6771653543307087,
          "duration": 0.3125
        },
        {
          "name": "A#4",
          "midi": 70,
          "time": 16.250000000000004,
          "velocity": 0.7795275590551181,
          "duration": 0.7760416666666679
        },
        {
          "name": "F5",
          "midi": 77,
          "time": 16.250000000000004,
          "velocity": 0.7007874015748031,
          "duration": 0.24479166666666785
        },
        {
          "name": "C#4",
          "midi": 61,
          "time": 16.312500000000004,
          "velocity": 0.5590551181102362,
          "duration": 0.22395833333333215
        },
        {
          "name": "G#4",
          "midi": 68,
          "time": 16.312500000000004,
          "velocity": 0.5984251968503937,
          "duration": 0.453125
        },
        {
          "name": "F5",
          "midi": 77,
          "time": 16.500000000000004,
          "velocity": 0.6377952755905512,
          "duration": 0.25
        },
        {
          "name": "G#3",
          "midi": 56,
          "time": 16.562500000000004,
          "velocity": 0.3700787401574803,
          "duration": 0.1875
        },
        {
          "name": "F3",
          "midi": 53,
          "time": 16.750000000000004,
          "velocity": 0.5275590551181102,
          "duration": 0.375
        },
        {
          "name": "G#3",
          "midi": 56,
          "time": 16.750000000000004,
          "velocity": 0.984251968503937,
          "duration": 0.5
        },
        {
          "name": "F5",
          "midi": 77,
          "time": 16.750000000000004,
          "velocity": 0.7007874015748031,
          "duration": 0.28125
        },
        {
          "name": "F3",
          "midi": 53,
          "time": 17.125000000000004,
          "velocity": 0.5275590551181102,
          "duration": 0.25
        },
        {
          "name": "F4",
          "midi": 65,
          "time": 17.125000000000004,
          "velocity": 0.7952755905511811,
          "duration": 0.23958333333333215
        },
        {
          "name": "G#4",
          "midi": 68,
          "time": 17.125000000000004,
          "velocity": 0.5354330708661418,
          "duration": 0.40625
        },
        {
          "name": "G#3",
          "midi": 56,
          "time": 17.250000000000004,
          "velocity": 0.7401574803149606,
          "duration": 0.30729166666666785
        },
        {
          "name": "C4",
          "midi": 60,
          "time": 17.250000000000004,
          "velocity": 0.7795275590551181,
          "duration": 0.25
        },
        {
          "name": "F5",
          "midi": 77,
          "time": 17.250000000000004,
          "velocity": 0.5118110236220472,
          "duration": 0.27083333333333215
        },
        {
          "name": "F4",
          "midi": 65,
          "time": 17.375000000000004,
          "velocity": 0.8267716535433071,
          "duration": 0.25
        },
        {
          "name": "F3",
          "midi": 53,
          "time": 17.500000000000004,
          "velocity": 0.4094488188976378,
          "duration": 0.3125
        },
        {
          "name": "A#3",
          "midi": 58,
          "time": 17.500000000000004,
          "velocity": 0.5511811023622047,
          "duration": 0.36458333333333215
        },
        {
          "name": "C4",
          "midi": 60,
          "time": 17.500000000000004,
          "velocity": 0.7480314960629921,
          "duration": 0.140625
        },
        {
          "name": "D#5",
          "midi": 75,
          "time": 17.500000000000004,
          "velocity": 0.5826771653543307,
          "duration": 0.3697916666666643
        },
        {
          "name": "F4",
          "midi": 65,
          "time": 17.625000000000004,
          "velocity": 0.7559055118110236,
          "duration": 0.17708333333333215
        },
        {
          "name": "G#3",
          "midi": 56,
          "time": 17.750000000000004,
          "velocity": 0.7086614173228346,
          "duration": 0.24999999999999645
        },
        {
          "name": "D#4",
          "midi": 63,
          "time": 17.750000000000004,
          "velocity": 0.7559055118110236,
          "duration": 0.17187499999999645
        },
        {
          "name": "A#2",
          "midi": 46,
          "time": 17.875,
          "velocity": 0.41732283464566927,
          "duration": 0.24479166666666785
        },
        {
          "name": "C4",
          "midi": 60,
          "time": 17.875,
          "velocity": 0.6692913385826772,
          "duration": 0.24479166666666785
        },
        {
          "name": "A#4",
          "midi": 70,
          "time": 17.875,
          "velocity": 0.6299212598425197,
          "duration": 0.24479166666666785
        },
        {
          "name": "G#3",
          "midi": 56,
          "time": 18,
          "velocity": 0.6456692913385826,
          "duration": 0.296875
        },
        {
          "name": "A#2",
          "midi": 46,
          "time": 18.125,
          "velocity": 0.41732283464566927,
          "duration": 0.36979166666666785
        },
        {
          "name": "C4",
          "midi": 60,
          "time": 18.125,
          "velocity": 0.7165354330708661,
          "duration": 0.24479166666666785
        },
        {
          "name": "F4",
          "midi": 65,
          "time": 18.125,
          "velocity": 0.7086614173228346,
          "duration": 0.296875
        },
        {
          "name": "A#4",
          "midi": 70,
          "time": 18.125,
          "velocity": 0.6535433070866141,
          "duration": 0.36979166666666785
        },
        {
          "name": "C#4",
          "midi": 61,
          "time": 18.25,
          "velocity": 0.5590551181102362,
          "duration": 0.27604166666666785
        },
        {
          "name": "C3",
          "midi": 48,
          "time": 18.375,
          "velocity": 0.3858267716535433,
          "duration": 0.15625
        },
        {
          "name": "C4",
          "midi": 60,
          "time": 18.375,
          "velocity": 0.7244094488188977,
          "duration": 0.18229166666666785
        },
        {
          "name": "A#2",
          "midi": 46,
          "time": 18.5,
          "velocity": 0.3543307086614173,
          "duration": 0.171875
        },
        {
          "name": "D#4",
          "midi": 63,
          "time": 18.5,
          "velocity": 0.5984251968503937,
          "duration": 0.18229166666666785
        },
        {
          "name": "A#4",
          "midi": 70,
          "time": 18.5,
          "velocity": 0.49606299212598426,
          "duration": 0.25
        },
        {
          "name": "F4",
          "midi": 65,
          "time": 18.625,
          "velocity": 0.6692913385826772,
          "duration": 0.15625
        },
        {
          "name": "C3",
          "midi": 48,
          "time": 18.75,
          "velocity": 0.48031496062992124,
          "duration": 0.171875
        },
        {
          "name": "A#4",
          "midi": 70,
          "time": 18.75,
          "velocity": 0.4094488188976378,
          "duration": 0.40104166666666785
        },
        {
          "name": "C5",
          "midi": 72,
          "time": 18.75,
          "velocity": 0.6456692913385826,
          "duration": 0.16666666666666785
        },
        {
          "name": "D#5",
          "midi": 75,
          "time": 18.875,
          "velocity": 0.5118110236220472,
          "duration": 0.10416666666666785
        },
        {
          "name": "F3",
          "midi": 53,
          "time": 19,
          "velocity": 0.6850393700787402,
          "duration": 0.375
        },
        {
          "name": "C5",
          "midi": 72,
          "time": 19.125,
          "velocity": 0.5433070866141733,
          "duration": 0.9635416666666679
        },
        {
          "name": "G#3",
          "midi": 56,
          "time": 19.25,
          "velocity": 0.5748031496062992,
          "duration": 0.625
        },
        {
          "name": "F4",
          "midi": 65,
          "time": 19.25,
          "velocity": 0.7559055118110236,
          "duration": 0.29166666666666785
        },
        {
          "name": "F3",
          "midi": 53,
          "time": 19.375,
          "velocity": 0.41732283464566927,
          "duration": 0.19791666666666785
        },
        {
          "name": "A#3",
          "midi": 58,
          "time": 19.5,
          "velocity": 0.3228346456692913,
          "duration": 0.25
        },
        {
          "name": "A#4",
          "midi": 70,
          "time": 19.5,
          "velocity": 0.4015748031496063,
          "duration": 0.36979166666666785
        },
        {
          "name": "G#4",
          "midi": 68,
          "time": 19.625,
          "velocity": 0.4409448818897638,
          "duration": 0.3645833333333357
        },
        {
          "name": "A#3",
          "midi": 58,
          "time": 19.75,
          "velocity": 0.5196850393700787,
          "duration": 0.27604166666666785
        },
        {
          "name": "F4",
          "midi": 65,
          "time": 19.75,
          "velocity": 0.5118110236220472,
          "duration": 0.16666666666666785
        },
        {
          "name": "G#5",
          "midi": 80,
          "time": 19.75,
          "velocity": 0.5905511811023622,
          "duration": 0.11979166666666785
        },
        {
          "name": "G#3",
          "midi": 56,
          "time": 19.875,
          "velocity": 0.49606299212598426,
          "duration": 0.36458333333333215
        },
        {
          "name": "G#5",
          "midi": 80,
          "time": 19.875,
          "velocity": 0.5984251968503937,
          "duration": 0.41145833333333215
        },
        {
          "name": "A#4",
          "midi": 70,
          "time": 20.125,
          "velocity": 0.5275590551181102,
          "duration": 0.375
        },
        {
          "name": "G#3",
          "midi": 56,
          "time": 20.25,
          "velocity": 0.5275590551181102,
          "duration": 0.30729166666666785
        },
        {
          "name": "C4",
          "midi": 60,
          "time": 20.25,
          "velocity": 0.5196850393700787,
          "duration": 0.328125
        },
        {
          "name": "C#4",
          "midi": 61,
          "time": 20.5,
          "velocity": 0.5669291338582677,
          "duration": 0.24479166666666785
        },
        {
          "name": "A#4",
          "midi": 70,
          "time": 20.5,
          "velocity": 0.47244094488188976,
          "duration": 0.6197916666666679
        },
        {
          "name": "C#4",
          "midi": 61,
          "time": 20.75,
          "velocity": 0.5511811023622047,
          "duration": 0.765625
        },
        {
          "name": "A#4",
          "midi": 70,
          "time": 21.125,
          "velocity": 0.47244094488188976,
          "duration": 0.31770833333333215
        },
        {
          "name": "C6",
          "midi": 84,
          "time": 21.125,
          "velocity": 0.28346456692913385,
          "duration": 0.40104166666666785
        },
        {
          "name": "F3",
          "midi": 53,
          "time": 21.25,
          "velocity": 0.5039370078740157,
          "duration": 0.25
        },
        {
          "name": "F3",
          "midi": 53,
          "time": 21.5,
          "velocity": 0.4015748031496063,
          "duration": 0.296875
        },
        {
          "name": "G#3",
          "midi": 56,
          "time": 21.5,
          "velocity": 0.6141732283464567,
          "duration": 0.53125
        },
        {
          "name": "F5",
          "midi": 77,
          "time": 21.75,
          "velocity": 0.6692913385826772,
          "duration": 0.25520833333333215
        },
        {
          "name": "A#3",
          "midi": 58,
          "time": 22,
          "velocity": 0.5275590551181102,
          "duration": 0.5520833333333321
        },
        {
          "name": "G#5",
          "midi": 80,
          "time": 22,
          "velocity": 0.49606299212598426,
          "duration": 0.25520833333333215
        },
        {
          "name": "G#4",
          "midi": 68,
          "time": 22.25,
          "velocity": 0.4409448818897638,
          "duration": 0.265625
        },
        {
          "name": "A#4",
          "midi": 70,
          "time": 22.25,
          "velocity": 0.5354330708661418,
          "duration": 0.1875
        },
        {
          "name": "A#5",
          "midi": 82,
          "time": 22.375,
          "velocity": 0.5118110236220472,
          "duration": 0.640625
        },
        {
          "name": "A#4",
          "midi": 70,
          "time": 22.4375,
          "velocity": 0.33858267716535434,
          "duration": 0.1822916666666643
        },
        {
          "name": "G#3",
          "midi": 56,
          "time": 22.5,
          "velocity": 0.5433070866141733,
          "duration": 0.30208333333333215
        },
        {
          "name": "C4",
          "midi": 60,
          "time": 22.5,
          "velocity": 0.5354330708661418,
          "duration": 0.328125
        },
        {
          "name": "A#4",
          "midi": 70,
          "time": 22.624999999999996,
          "velocity": 0.4015748031496063,
          "duration": 0.13541666666666785
        },
        {
          "name": "C#4",
          "midi": 61,
          "time": 22.749999999999996,
          "velocity": 0.5196850393700787,
          "duration": 0.2447916666666714
        },
        {
          "name": "F5",
          "midi": 77,
          "time": 22.749999999999996,
          "velocity": 0.30708661417322836,
          "duration": 0.5833333333333357
        },
        {
          "name": "C6",
          "midi": 84,
          "time": 22.749999999999996,
          "velocity": 0.4094488188976378,
          "duration": 1.5208333333333393
        },
        {
          "name": "C#4",
          "midi": 61,
          "time": 23,
          "velocity": 0.5039370078740157,
          "duration": 0.5104166666666679
        },
        {
          "name": "F3",
          "midi": 53,
          "time": 23.5,
          "velocity": 0.5354330708661418,
          "duration": 0.24479166666666785
        },
        {
          "name": "F3",
          "midi": 53,
          "time": 23.75,
          "velocity": 0.3937007874015748,
          "duration": 0.30729166666666785
        },
        {
          "name": "G#3",
          "midi": 56,
          "time": 23.75,
          "velocity": 0.5433070866141733,
          "duration": 0.5416666666666679
        },
        {
          "name": "F5",
          "midi": 77,
          "time": 24,
          "velocity": 0.7086614173228346,
          "duration": 0.26041666666666785
        },
        {
          "name": "A#3",
          "midi": 58,
          "time": 24.25,
          "velocity": 0.7637795275590551,
          "duration": 0.5364583333333321
        },
        {
          "name": "D#5",
          "midi": 75,
          "time": 24.375,
          "velocity": 0.4409448818897638,
          "duration": 0.28125
        },
        {
          "name": "G#3",
          "midi": 56,
          "time": 24.75,
          "velocity": 0.5039370078740157,
          "duration": 0.5364583333333286
        },
        {
          "name": "C4",
          "midi": 60,
          "time": 24.75,
          "velocity": 0.5511811023622047,
          "duration": 0.32812499999999645
        },
        {
          "name": "F5",
          "midi": 77,
          "time": 24.75,
          "velocity": 0.4094488188976378,
          "duration": 0.2447916666666643
        },
        {
          "name": "C#4",
          "midi": 61,
          "time": 24.999999999999996,
          "velocity": 0.6220472440944882,
          "duration": 0.25
        },
        {
          "name": "F5",
          "midi": 77,
          "time": 24.999999999999996,
          "velocity": 0.7637795275590551,
          "duration": 0.28645833333333215
        },
        {
          "name": "C#4",
          "midi": 61,
          "time": 25.249999999999996,
          "velocity": 0.5118110236220472,
          "duration": 0.296875
        },
        {
          "name": "D#5",
          "midi": 75,
          "time": 25.249999999999996,
          "velocity": 0.7480314960629921,
          "duration": 0.36458333333333215
        },
        {
          "name": "F4",
          "midi": 65,
          "time": 25.499999999999996,
          "velocity": 0.6220472440944882,
          "duration": 0.8697916666666643
        },
        {
          "name": "C5",
          "midi": 72,
          "time": 25.499999999999996,
          "velocity": 0.7559055118110236,
          "duration": 0.375
        },
        {
          "name": "G#5",
          "midi": 80,
          "time": 25.499999999999996,
          "velocity": 0.49606299212598426,
          "duration": 0.5520833333333286
        },
        {
          "name": "A#4",
          "midi": 70,
          "time": 25.624999999999996,
          "velocity": 0.6456692913385826,
          "duration": 0.5312499999999964
        },
        {
          "name": "D#5",
          "midi": 75,
          "time": 25.624999999999996,
          "velocity": 0.5826771653543307,
          "duration": 0.30208333333333215
        },
        {
          "name": "F3",
          "midi": 53,
          "time": 25.749999999999996,
          "velocity": 0.5196850393700787,
          "duration": 0.2447916666666643
        },
        {
          "name": "C5",
          "midi": 72,
          "time": 25.874999999999996,
          "velocity": 0.7401574803149606,
          "duration": 0.23437499999999645
        },
        {
          "name": "F3",
          "midi": 53,
          "time": 25.999999999999993,
          "velocity": 0.41732283464566927,
          "duration": 0.8072916666666607
        },
        {
          "name": "G#3",
          "midi": 56,
          "time": 25.999999999999993,
          "velocity": 0.5826771653543307,
          "duration": 0.24479166666666785
        },
        {
          "name": "G#3",
          "midi": 56,
          "time": 26.249999999999993,
          "velocity": 0.6535433070866141,
          "duration": 0.28645833333333215
        },
        {
          "name": "C5",
          "midi": 72,
          "time": 26.249999999999993,
          "velocity": 0.7165354330708661,
          "duration": 0.17708333333333215
        },
        {
          "name": "A#5",
          "midi": 82,
          "time": 26.249999999999993,
          "velocity": 0.5039370078740157,
          "duration": 0.22395833333333215
        },
        {
          "name": "F4",
          "midi": 65,
          "time": 26.374999999999993,
          "velocity": 0.47244094488188976,
          "duration": 0.4999999999999929
        },
        {
          "name": "G#4",
          "midi": 68,
          "time": 26.374999999999993,
          "velocity": 0.5905511811023622,
          "duration": 0.1666666666666643
        },
        {
          "name": "A#3",
          "midi": 58,
          "time": 26.499999999999993,
          "velocity": 0.7480314960629921,
          "duration": 0.536458333333325
        },
        {
          "name": "C5",
          "midi": 72,
          "time": 26.62499999999999,
          "velocity": 0.4881889763779528,
          "duration": 0.16145833333333215
        },
        {
          "name": "G#5",
          "midi": 80,
          "time": 26.62499999999999,
          "velocity": 0.6062992125984252,
          "duration": 0.20312499999999645
        },
        {
          "name": "F5",
          "midi": 77,
          "time": 26.74999999999999,
          "velocity": 0.4881889763779528,
          "duration": 0.1041666666666643
        },
        {
          "name": "F4",
          "midi": 65,
          "time": 26.874999999999986,
          "velocity": 0.5905511811023622,
          "duration": 3.875
        },
        {
          "name": "G#3",
          "midi": 56,
          "time": 26.999999999999986,
          "velocity": 0.6062992125984252,
          "duration": 0.546875
        },
        {
          "name": "C4",
          "midi": 60,
          "time": 26.999999999999986,
          "velocity": 0.5118110236220472,
          "duration": 0.33854166666666785
        },
        {
          "name": "A#5",
          "midi": 82,
          "time": 26.999999999999986,
          "velocity": 0.4881889763779528,
          "duration": 1.859375
        },
        {
          "name": "C#4",
          "midi": 61,
          "time": 27.249999999999986,
          "velocity": 0.6062992125984252,
          "duration": 0.36979166666666785
        },
        {
          "name": "C#4",
          "midi": 61,
          "time": 27.624999999999986,
          "velocity": 0.5433070866141733,
          "duration": 0.44791666666666785
        },
        {
          "name": "F3",
          "midi": 53,
          "time": 27.999999999999986,
          "velocity": 0.7086614173228346,
          "duration": 0.3125
        },
        {
          "name": "G#3",
          "midi": 56,
          "time": 28.249999999999986,
          "velocity": 0.7637795275590551,
          "duration": 0.23958333333333215
        },
        {
          "name": "F3",
          "midi": 53,
          "time": 28.312499999999986,
          "velocity": 0.3937007874015748,
          "duration": 0.27083333333333215
        },
        {
          "name": "G#3",
          "midi": 56,
          "time": 28.499999999999986,
          "velocity": 0.6062992125984252,
          "duration": 0.29166666666666785
        },
        {
          "name": "A#3",
          "midi": 58,
          "time": 28.499999999999986,
          "velocity": 0.6377952755905512,
          "duration": 0.25
        },
        {
          "name": "A#3",
          "midi": 58,
          "time": 28.749999999999986,
          "velocity": 0.6929133858267716,
          "duration": 0.5416666666666679
        },
        {
          "name": "F5",
          "midi": 77,
          "time": 28.999999999999986,
          "velocity": 0.5748031496062992,
          "duration": 0.3177083333333357
        },
        {
          "name": "G#3",
          "midi": 56,
          "time": 29.249999999999986,
          "velocity": 0.6456692913385826,
          "duration": 0.25000000000000355
        },
        {
          "name": "C4",
          "midi": 60,
          "time": 29.249999999999986,
          "velocity": 0.5275590551181102,
          "duration": 0.3385416666666714
        },
        {
          "name": "G#3",
          "midi": 56,
          "time": 29.49999999999999,
          "velocity": 0.5511811023622047,
          "duration": 0.5729166666666643
        },
        {
          "name": "C#4",
          "midi": 61,
          "time": 29.49999999999999,
          "velocity": 0.7165354330708661,
          "duration": 0.25
        },
        {
          "name": "C#4",
          "midi": 61,
          "time": 29.74999999999999,
          "velocity": 0.5275590551181102,
          "duration": 0.25520833333333215
        },
        {
          "name": "D#4",
          "midi": 63,
          "time": 29.99999999999999,
          "velocity": 0.8188976377952756,
          "duration": 0.2916666666666643
        },
        {
          "name": "A#2",
          "midi": 46,
          "time": 30.249999999999986,
          "velocity": 0.4251968503937008,
          "duration": 0.5
        },
        {
          "name": "F3",
          "midi": 53,
          "time": 30.249999999999986,
          "velocity": 0.47244094488188976,
          "duration": 0.24479166666666785
        },
        {
          "name": "A#4",
          "midi": 70,
          "time": 30.249999999999986,
          "velocity": 0.84251968503937,
          "duration": 0.36979166666666785
        },
        {
          "name": "F3",
          "midi": 53,
          "time": 30.499999999999986,
          "velocity": 0.4566929133858268,
          "duration": 0.8020833333333321
        },
        {
          "name": "G#3",
          "midi": 56,
          "time": 30.499999999999986,
          "velocity": 0.6299212598425197,
          "duration": 0.546875
        },
        {
          "name": "A#4",
          "midi": 70,
          "time": 30.624999999999986,
          "velocity": 0.7559055118110236,
          "duration": 0.16666666666666785
        },
        {
          "name": "D#4",
          "midi": 63,
          "time": 30.749999999999986,
          "velocity": 0.5433070866141733,
          "duration": 0.30208333333333215
        },
        {
          "name": "F4",
          "midi": 65,
          "time": 30.749999999999986,
          "velocity": 0.8582677165354331,
          "duration": 0.359375
        },
        {
          "name": "A#2",
          "midi": 46,
          "time": 30.999999999999986,
          "velocity": 0.4645669291338583,
          "duration": 0.38541666666666785
        },
        {
          "name": "A#3",
          "midi": 58,
          "time": 30.999999999999986,
          "velocity": 0.6456692913385826,
          "duration": 0.5416666666666679
        },
        {
          "name": "F4",
          "midi": 65,
          "time": 31.124999999999986,
          "velocity": 0.7559055118110236,
          "duration": 0.375
        },
        {
          "name": "F5",
          "midi": 77,
          "time": 31.249999999999986,
          "velocity": 0.5039370078740157,
          "duration": 0.27604166666666785
        },
        {
          "name": "A#4",
          "midi": 70,
          "time": 31.374999999999986,
          "velocity": 0.6062992125984252,
          "duration": 0.4166666666666643
        },
        {
          "name": "G#3",
          "midi": 56,
          "time": 31.499999999999986,
          "velocity": 0.6377952755905512,
          "duration": 0.9843750000000071
        },
        {
          "name": "C4",
          "midi": 60,
          "time": 31.499999999999986,
          "velocity": 0.49606299212598426,
          "duration": 0.27083333333333215
        },
        {
          "name": "F4",
          "midi": 65,
          "time": 31.499999999999986,
          "velocity": 0.6929133858267716,
          "duration": 0.25
        },
        {
          "name": "A#2",
          "midi": 46,
          "time": 31.749999999999986,
          "velocity": 0.4566929133858268,
          "duration": 0.328125
        },
        {
          "name": "C#4",
          "midi": 61,
          "time": 31.749999999999986,
          "velocity": 0.5748031496062992,
          "duration": 0.24999999999999645
        },
        {
          "name": "F4",
          "midi": 65,
          "time": 31.749999999999986,
          "velocity": 0.7874015748031497,
          "duration": 0.3697916666666643
        },
        {
          "name": "A#5",
          "midi": 82,
          "time": 31.874999999999982,
          "velocity": 0.4881889763779528,
          "duration": 1.3489583333333464
        },
        {
          "name": "C3",
          "midi": 48,
          "time": 31.999999999999982,
          "velocity": 0.48031496062992124,
          "duration": 0.5000000000000107
        },
        {
          "name": "C#4",
          "midi": 61,
          "time": 31.999999999999982,
          "velocity": 0.5590551181102362,
          "duration": 0.31770833333333925
        },
        {
          "name": "C5",
          "midi": 72,
          "time": 31.999999999999982,
          "velocity": 0.7244094488188977,
          "duration": 0.36979166666667496
        },
        {
          "name": "F4",
          "midi": 65,
          "time": 32.124999999999986,
          "velocity": 0.7086614173228346,
          "duration": 0.3750000000000071
        },
        {
          "name": "C5",
          "midi": 72,
          "time": 32.37499999999999,
          "velocity": 0.5669291338582677,
          "duration": 0.171875
        },
        {
          "name": "C3",
          "midi": 48,
          "time": 32.49999999999999,
          "velocity": 0.4015748031496063,
          "duration": 0.421875
        },
        {
          "name": "F3",
          "midi": 53,
          "time": 32.49999999999999,
          "velocity": 0.5039370078740157,
          "duration": 0.2447916666666643
        },
        {
          "name": "A#3",
          "midi": 58,
          "time": 32.49999999999999,
          "velocity": 0.6062992125984252,
          "duration": 0.1041666666666643
        },
        {
          "name": "F4",
          "midi": 65,
          "time": 32.49999999999999,
          "velocity": 0.7952755905511811,
          "duration": 0.2447916666666643
        },
        {
          "name": "C4",
          "midi": 60,
          "time": 32.62499999999999,
          "velocity": 0.8031496062992126,
          "duration": 0.25
        },
        {
          "name": "F3",
          "midi": 53,
          "time": 32.74999999999999,
          "velocity": 0.4645669291338583,
          "duration": 0.5468750000000071
        },
        {
          "name": "G#3",
          "midi": 56,
          "time": 32.74999999999999,
          "velocity": 0.6535433070866141,
          "duration": 0.5000000000000071
        },
        {
          "name": "F4",
          "midi": 65,
          "time": 32.74999999999999,
          "velocity": 0.7244094488188977,
          "duration": 0.6250000000000071
        },
        {
          "name": "C4",
          "midi": 60,
          "time": 32.87499999999999,
          "velocity": 0.8110236220472441,
          "duration": 0.3697916666666714
        },
        {
          "name": "D#4",
          "midi": 63,
          "time": 33.12499999999999,
          "velocity": 0.6456692913385826,
          "duration": 0.1041666666666714
        },
        {
          "name": "A#2",
          "midi": 46,
          "time": 33.25,
          "velocity": 0.4015748031496063,
          "duration": 0.25
        },
        {
          "name": "G#3",
          "midi": 56,
          "time": 33.25,
          "velocity": 0.5590551181102362,
          "duration": 0.6197916666666643
        },
        {
          "name": "A#3",
          "midi": 58,
          "time": 33.25,
          "velocity": 0.8188976377952756,
          "duration": 0.5364583333333357
        },
        {
          "name": "C4",
          "midi": 60,
          "time": 33.25,
          "velocity": 0.6377952755905512,
          "duration": 0.1354166666666643
        },
        {
          "name": "F4",
          "midi": 65,
          "time": 33.375,
          "velocity": 0.6377952755905512,
          "duration": 0.21875
        },
        {
          "name": "A#2",
          "midi": 46,
          "time": 33.5,
          "velocity": 0.44881889763779526,
          "duration": 0.328125
        },
        {
          "name": "A#4",
          "midi": 70,
          "time": 33.5,
          "velocity": 0.5590551181102362,
          "duration": 0.2760416666666714
        },
        {
          "name": "F5",
          "midi": 77,
          "time": 33.5,
          "velocity": 0.5511811023622047,
          "duration": 0.2708333333333357
        },
        {
          "name": "C4",
          "midi": 60,
          "time": 33.625,
          "velocity": 0.5433070866141733,
          "duration": 0.125
        },
        {
          "name": "F4",
          "midi": 65,
          "time": 33.625,
          "velocity": 0.7480314960629921,
          "duration": 0.3020833333333286
        },
        {
          "name": "C3",
          "midi": 48,
          "time": 33.75,
          "velocity": 0.4015748031496063,
          "duration": 0.359375
        },
        {
          "name": "C4",
          "midi": 60,
          "time": 33.75,
          "velocity": 0.6062992125984252,
          "duration": 0.1510416666666643
        },
        {
          "name": "C5",
          "midi": 72,
          "time": 33.75,
          "velocity": 0.6692913385826772,
          "duration": 0.1822916666666643
        },
        {
          "name": "F3",
          "midi": 53,
          "time": 33.875,
          "velocity": 0.7165354330708661,
          "duration": 0.1510416666666643
        },
        {
          "name": "G#3",
          "midi": 56,
          "time": 33.875,
          "velocity": 0.5590551181102362,
          "duration": 0.6770833333333357
        },
        {
          "name": "D#4",
          "midi": 63,
          "time": 33.875,
          "velocity": 0.7795275590551181,
          "duration": 0.1666666666666643
        },
        {
          "name": "C#4",
          "midi": 61,
          "time": 34,
          "velocity": 0.6535433070866141,
          "duration": 0.2447916666666643
        },
        {
          "name": "G#4",
          "midi": 68,
          "time": 34,
          "velocity": 0.49606299212598426,
          "duration": 6.640625000000021
        },
        {
          "name": "F5",
          "midi": 77,
          "time": 34,
          "velocity": 0.6614173228346457,
          "duration": 0.1666666666666643
        },
        {
          "name": "C3",
          "midi": 48,
          "time": 34.125,
          "velocity": 0.3937007874015748,
          "duration": 0.28125
        },
        {
          "name": "A#4",
          "midi": 70,
          "time": 34.125,
          "velocity": 0.7165354330708661,
          "duration": 0.1770833333333357
        },
        {
          "name": "C5",
          "midi": 72,
          "time": 34.125,
          "velocity": 0.5354330708661418,
          "duration": 0.1770833333333357
        },
        {
          "name": "F3",
          "midi": 53,
          "time": 34.25,
          "velocity": 0.48031496062992124,
          "duration": 0.140625
        },
        {
          "name": "C#4",
          "midi": 61,
          "time": 34.25,
          "velocity": 0.47244094488188976,
          "duration": 0.5729166666666785
        },
        {
          "name": "D#5",
          "midi": 75,
          "time": 34.25,
          "velocity": 0.7559055118110236,
          "duration": 0.3750000000000071
        },
        {
          "name": "F4",
          "midi": 65,
          "time": 34.375,
          "velocity": 0.5354330708661418,
          "duration": 0.1822916666666714
        },
        {
          "name": "A#4",
          "midi": 70,
          "time": 34.5,
          "velocity": 0.6141732283464567,
          "duration": 0.1250000000000071
        },
        {
          "name": "C5",
          "midi": 72,
          "time": 34.5,
          "velocity": 0.7322834645669292,
          "duration": 0.1666666666666714
        },
        {
          "name": "F3",
          "midi": 53,
          "time": 34.62500000000001,
          "velocity": 0.5984251968503937,
          "duration": 0.4947916666666714
        },
        {
          "name": "A#4",
          "midi": 70,
          "time": 34.62500000000001,
          "velocity": 0.5039370078740157,
          "duration": 0.1770833333333357
        },
        {
          "name": "D#5",
          "midi": 75,
          "time": 34.62500000000001,
          "velocity": 0.6929133858267716,
          "duration": 0.3229166666666714
        },
        {
          "name": "F4",
          "midi": 65,
          "time": 34.75000000000001,
          "velocity": 0.5826771653543307,
          "duration": 0.3385416666666714
        },
        {
          "name": "G#5",
          "midi": 80,
          "time": 34.75000000000001,
          "velocity": 0.4566929133858268,
          "duration": 0.1666666666666714
        },
        {
          "name": "C5",
          "midi": 72,
          "time": 34.875000000000014,
          "velocity": 0.5905511811023622,
          "duration": 0.1510416666666643
        },
        {
          "name": "G#3",
          "midi": 56,
          "time": 35.000000000000014,
          "velocity": 0.8582677165354331,
          "duration": 0.3697916666666643
        },
        {
          "name": "F3",
          "midi": 53,
          "time": 35.125000000000014,
          "velocity": 0.5748031496062992,
          "duration": 0.171875
        },
        {
          "name": "C5",
          "midi": 72,
          "time": 35.250000000000014,
          "velocity": 0.6377952755905512,
          "duration": 0.1666666666666643
        },
        {
          "name": "G#3",
          "midi": 56,
          "time": 35.375000000000014,
          "velocity": 0.8267716535433071,
          "duration": 0.1614583333333357
        },
        {
          "name": "A#3",
          "midi": 58,
          "time": 35.500000000000014,
          "velocity": 0.7007874015748031,
          "duration": 0.5468750000000071
        },
        {
          "name": "C5",
          "midi": 72,
          "time": 35.625000000000014,
          "velocity": 0.49606299212598426,
          "duration": 0.1510416666666643
        },
        {
          "name": "D#5",
          "midi": 75,
          "time": 35.625000000000014,
          "velocity": 0.4881889763779528,
          "duration": 0.3697916666666714
        },
        {
          "name": "G#3",
          "midi": 56,
          "time": 35.750000000000014,
          "velocity": 0.5905511811023622,
          "duration": 0.2395833333333357
        },
        {
          "name": "G#5",
          "midi": 80,
          "time": 35.750000000000014,
          "velocity": 0.6299212598425197,
          "duration": 0.3697916666666714
        },
        {
          "name": "F5",
          "midi": 77,
          "time": 35.875000000000014,
          "velocity": 0.5118110236220472,
          "duration": 0.5572916666666714
        },
        {
          "name": "G#3",
          "midi": 56,
          "time": 36.00000000000002,
          "velocity": 0.5748031496062992,
          "duration": 0.5520833333333357
        },
        {
          "name": "C4",
          "midi": 60,
          "time": 36.00000000000002,
          "velocity": 0.6692913385826772,
          "duration": 0.3229166666666643
        },
        {
          "name": "A#5",
          "midi": 82,
          "time": 36.00000000000002,
          "velocity": 0.47244094488188976,
          "duration": 0.7395833333333357
        },
        {
          "name": "G#5",
          "midi": 80,
          "time": 36.12500000000002,
          "velocity": 0.3937007874015748,
          "duration": 2.8645833333333286
        },
        {
          "name": "C#4",
          "midi": 61,
          "time": 36.25000000000002,
          "velocity": 0.5984251968503937,
          "duration": 0.25
        },
        {
          "name": "C5",
          "midi": 72,
          "time": 36.37500000000002,
          "velocity": 0.7007874015748031,
          "duration": 0.4322916666666643
        },
        {
          "name": "C#4",
          "midi": 61,
          "time": 36.50000000000002,
          "velocity": 0.5433070866141733,
          "duration": 0.4947916666666643
        },
        {
          "name": "D#5",
          "midi": 75,
          "time": 36.75000000000002,
          "velocity": 0.7244094488188977,
          "duration": 0.2395833333333286
        },
        {
          "name": "F3",
          "midi": 53,
          "time": 37.00000000000002,
          "velocity": 0.5275590551181102,
          "duration": 0.3697916666666643
        },
        {
          "name": "F5",
          "midi": 77,
          "time": 37.00000000000002,
          "velocity": 0.6141732283464567,
          "duration": 0.2916666666666643
        },
        {
          "name": "D#5",
          "midi": 75,
          "time": 37.12500000000002,
          "velocity": 0.7007874015748031,
          "duration": 0.1041666666666643
        },
        {
          "name": "G#3",
          "midi": 56,
          "time": 37.25000000000002,
          "velocity": 0.8976377952755905,
          "duration": 0.2916666666666643
        },
        {
          "name": "F3",
          "midi": 53,
          "time": 37.37500000000002,
          "velocity": 0.48031496062992124,
          "duration": 0.4583333333333357
        },
        {
          "name": "D#5",
          "midi": 75,
          "time": 37.62500000000002,
          "velocity": 0.5275590551181102,
          "duration": 0.5208333333333357
        },
        {
          "name": "G#3",
          "midi": 56,
          "time": 37.75000000000002,
          "velocity": 0.5826771653543307,
          "duration": 0.234375
        },
        {
          "name": "A#3",
          "midi": 58,
          "time": 37.75000000000002,
          "velocity": 0.4566929133858268,
          "duration": 0.265625
        },
        {
          "name": "F5",
          "midi": 77,
          "time": 37.75000000000002,
          "velocity": 0.6299212598425197,
          "duration": 0.484375
        },
        {
          "name": "G#3",
          "midi": 56,
          "time": 38.00000000000002,
          "velocity": 0.6299212598425197,
          "duration": 0.2447916666666643
        },
        {
          "name": "G#3",
          "midi": 56,
          "time": 38.25000000000002,
          "velocity": 0.5984251968503937,
          "duration": 0.5572916666666643
        },
        {
          "name": "C4",
          "midi": 60,
          "time": 38.25000000000002,
          "velocity": 0.5275590551181102,
          "duration": 0.3229166666666643
        },
        {
          "name": "C5",
          "midi": 72,
          "time": 38.25000000000002,
          "velocity": 0.6929133858267716,
          "duration": 0.34375
        },
        {
          "name": "F5",
          "midi": 77,
          "time": 38.25000000000002,
          "velocity": 0.7244094488188977,
          "duration": 0.3125
        },
        {
          "name": "C#4",
          "midi": 61,
          "time": 38.50000000000002,
          "velocity": 0.5669291338582677,
          "duration": 0.25
        },
        {
          "name": "D#5",
          "midi": 75,
          "time": 38.50000000000002,
          "velocity": 0.7637795275590551,
          "duration": 0.3645833333333286
        },
        {
          "name": "F5",
          "midi": 77,
          "time": 38.56250000000002,
          "velocity": 0.6220472440944882,
          "duration": 0.1770833333333357
        },
        {
          "name": "C5",
          "midi": 72,
          "time": 38.62500000000002,
          "velocity": 0.44881889763779526,
          "duration": 0.3177083333333286
        },
        {
          "name": "C#4",
          "midi": 61,
          "time": 38.75000000000002,
          "velocity": 0.49606299212598426,
          "duration": 1.015625
        },
        {
          "name": "F5",
          "midi": 77,
          "time": 38.75000000000002,
          "velocity": 0.6377952755905512,
          "duration": 0.3281249999999929
        },
        {
          "name": "D#5",
          "midi": 75,
          "time": 38.875000000000014,
          "velocity": 0.5826771653543307,
          "duration": 0.4427083333333357
        },
        {
          "name": "G#5",
          "midi": 80,
          "time": 39.000000000000014,
          "velocity": 0.4251968503937008,
          "duration": 2.2291666666666714
        },
        {
          "name": "A#5",
          "midi": 82,
          "time": 39.000000000000014,
          "velocity": 0.4015748031496063,
          "duration": 0.3697916666666714
        },
        {
          "name": "F3",
          "midi": 53,
          "time": 39.250000000000014,
          "velocity": 0.5196850393700787,
          "duration": 0.2812500000000071
        },
        {
          "name": "A#5",
          "midi": 82,
          "time": 39.37500000000002,
          "velocity": 0.5118110236220472,
          "duration": 0.4010416666666643
        },
        {
          "name": "G#3",
          "midi": 56,
          "time": 39.50000000000002,
          "velocity": 0.6535433070866141,
          "duration": 0.296875
        },
        {
          "name": "A#2",
          "midi": 46,
          "time": 39.75000000000002,
          "velocity": 0.4015748031496063,
          "duration": 0.390625
        },
        {
          "name": "A#4",
          "midi": 70,
          "time": 39.75000000000002,
          "velocity": 0.7795275590551181,
          "duration": 0.390625
        },
        {
          "name": "G#3",
          "midi": 56,
          "time": 39.81250000000002,
          "velocity": 0.6062992125984252,
          "duration": 0.25
        },
        {
          "name": "A#3",
          "midi": 58,
          "time": 40.00000000000002,
          "velocity": 0.6220472440944882,
          "duration": 0.375
        },
        {
          "name": "F4",
          "midi": 65,
          "time": 40.12500000000002,
          "velocity": 0.7480314960629921,
          "duration": 0.1510416666666643
        },
        {
          "name": "C5",
          "midi": 72,
          "time": 40.25000000000002,
          "velocity": 0.7165354330708661,
          "duration": 0.1614583333333357
        },
        {
          "name": "F3",
          "midi": 53,
          "time": 40.37500000000002,
          "velocity": 0.49606299212598426,
          "duration": 0.1927083333333357
        },
        {
          "name": "A#3",
          "midi": 58,
          "time": 40.37500000000002,
          "velocity": 0.84251968503937,
          "duration": 0.171875
        },
        {
          "name": "G#3",
          "midi": 56,
          "time": 40.50000000000002,
          "velocity": 0.7244094488188977,
          "duration": 0.3697916666666643
        },
        {
          "name": "C4",
          "midi": 60,
          "time": 40.50000000000002,
          "velocity": 0.5748031496062992,
          "duration": 0.5677083333333357
        },
        {
          "name": "F4",
          "midi": 65,
          "time": 40.50000000000002,
          "velocity": 0.7401574803149606,
          "duration": 0.171875
        },
        {
          "name": "C3",
          "midi": 48,
          "time": 40.62500000000002,
          "velocity": 0.41732283464566927,
          "duration": 0.1510416666666643
        },
        {
          "name": "C5",
          "midi": 72,
          "time": 40.62500000000002,
          "velocity": 0.6220472440944882,
          "duration": 0.140625
        },
        {
          "name": "G#2",
          "midi": 44,
          "time": 40.75000000000002,
          "velocity": 0.3464566929133858,
          "duration": 0.140625
        },
        {
          "name": "A#3",
          "midi": 58,
          "time": 40.75000000000002,
          "velocity": 0.6456692913385826,
          "duration": 0.1666666666666643
        },
        {
          "name": "G#4",
          "midi": 68,
          "time": 40.75000000000002,
          "velocity": 0.7322834645669292,
          "duration": 0.140625
        },
        {
          "name": "F3",
          "midi": 53,
          "time": 40.87500000000002,
          "velocity": 0.4251968503937008,
          "duration": 0.1614583333333357
        },
        {
          "name": "G#3",
          "midi": 56,
          "time": 40.87500000000002,
          "velocity": 0.49606299212598426,
          "duration": 0.010416666666664298
        },
        {
          "name": "F4",
          "midi": 65,
          "time": 40.87500000000002,
          "velocity": 0.7637795275590551,
          "duration": 0.1614583333333357
        },
        {
          "name": "C#4",
          "midi": 61,
          "time": 41.00000000000002,
          "velocity": 0.6299212598425197,
          "duration": 0.2708333333333357
        },
        {
          "name": "C5",
          "midi": 72,
          "time": 41.00000000000002,
          "velocity": 0.7637795275590551,
          "duration": 0.1666666666666643
        },
        {
          "name": "F5",
          "midi": 77,
          "time": 41.00000000000002,
          "velocity": 0.6377952755905512,
          "duration": 0.203125
        },
        {
          "name": "G#2",
          "midi": 44,
          "time": 41.12500000000002,
          "velocity": 0.4015748031496063,
          "duration": 0.1666666666666714
        },
        {
          "name": "A#3",
          "midi": 58,
          "time": 41.12500000000002,
          "velocity": 0.4645669291338583,
          "duration": 0.1822916666666714
        },
        {
          "name": "G#4",
          "midi": 68,
          "time": 41.12500000000002,
          "velocity": 0.6614173228346457,
          "duration": 0.1875000000000071
        },
        {
          "name": "D#5",
          "midi": 75,
          "time": 41.12500000000002,
          "velocity": 0.6929133858267716,
          "duration": 0.1875000000000071
        },
        {
          "name": "F3",
          "midi": 53,
          "time": 41.25000000000002,
          "velocity": 0.5039370078740157,
          "duration": 0.0781250000000071
        },
        {
          "name": "F4",
          "midi": 65,
          "time": 41.25000000000002,
          "velocity": 0.9448818897637795,
          "duration": 0.2447916666666714
        },
        {
          "name": "A#4",
          "midi": 70,
          "time": 41.37500000000003,
          "velocity": 0.6535433070866141,
          "duration": 0.1614583333333357
        },
        {
          "name": "C5",
          "midi": 72,
          "time": 41.37500000000003,
          "velocity": 0.6299212598425197,
          "duration": 0.1666666666666714
        },
        {
          "name": "F3",
          "midi": 53,
          "time": 41.50000000000003,
          "velocity": 0.5275590551181102,
          "duration": 0.2500000000000071
        },
        {
          "name": "F4",
          "midi": 65,
          "time": 41.50000000000003,
          "velocity": 0.49606299212598426,
          "duration": 0.5364583333333428
        },
        {
          "name": "G#4",
          "midi": 68,
          "time": 41.50000000000003,
          "velocity": 0.5905511811023622,
          "duration": 0.1718750000000071
        },
        {
          "name": "D#5",
          "midi": 75,
          "time": 41.50000000000003,
          "velocity": 0.7401574803149606,
          "duration": 0.1718750000000071
        },
        {
          "name": "F3",
          "midi": 53,
          "time": 41.750000000000036,
          "velocity": 0.5826771653543307,
          "duration": 0.3229166666666714
        },
        {
          "name": "G#3",
          "midi": 56,
          "time": 41.750000000000036,
          "velocity": 0.6141732283464567,
          "duration": 0.5364583333333357
        },
        {
          "name": "A#4",
          "midi": 70,
          "time": 41.750000000000036,
          "velocity": 0.5118110236220472,
          "duration": 0.1458333333333357
        },
        {
          "name": "D#5",
          "midi": 75,
          "time": 41.875000000000036,
          "velocity": 0.7401574803149606,
          "duration": 0.1666666666666714
        },
        {
          "name": "F5",
          "midi": 77,
          "time": 41.875000000000036,
          "velocity": 0.4881889763779528,
          "duration": 0.2864583333333428
        },
        {
          "name": "A#4",
          "midi": 70,
          "time": 42.12500000000004,
          "velocity": 0.7716535433070866,
          "duration": 0.1354166666666643
        },
        {
          "name": "C5",
          "midi": 72,
          "time": 42.12500000000004,
          "velocity": 0.5275590551181102,
          "duration": 0.1614583333333286
        },
        {
          "name": "A#3",
          "midi": 58,
          "time": 42.25000000000004,
          "velocity": 0.5433070866141733,
          "duration": 0.5416666666666572
        },
        {
          "name": "D#5",
          "midi": 75,
          "time": 42.25000000000004,
          "velocity": 0.7165354330708661,
          "duration": 0.3697916666666572
        },
        {
          "name": "A#4",
          "midi": 70,
          "time": 42.500000000000036,
          "velocity": 0.6377952755905512,
          "duration": 0.5
        },
        {
          "name": "C5",
          "midi": 72,
          "time": 42.500000000000036,
          "velocity": 0.7401574803149606,
          "duration": 0.1614583333333357
        },
        {
          "name": "D#5",
          "midi": 75,
          "time": 42.625000000000036,
          "velocity": 0.7165354330708661,
          "duration": 0.1510416666666643
        },
        {
          "name": "G#3",
          "midi": 56,
          "time": 42.750000000000036,
          "velocity": 0.5669291338582677,
          "duration": 0.5572916666666643
        },
        {
          "name": "C4",
          "midi": 60,
          "time": 42.750000000000036,
          "velocity": 0.5669291338582677,
          "duration": 0.328125
        },
        {
          "name": "F5",
          "midi": 77,
          "time": 42.875000000000036,
          "velocity": 0.6062992125984252,
          "duration": 0.25
        },
        {
          "name": "C#4",
          "midi": 61,
          "time": 43.000000000000036,
          "velocity": 0.5118110236220472,
          "duration": 0.25
        },
        {
          "name": "A#4",
          "midi": 70,
          "time": 43.000000000000036,
          "velocity": 0.6456692913385826,
          "duration": 0.375
        },
        {
          "name": "D#5",
          "midi": 75,
          "time": 43.000000000000036,
          "velocity": 0.7165354330708661,
          "duration": 0.15625
        },
        {
          "name": "F5",
          "midi": 77,
          "time": 43.125000000000036,
          "velocity": 0.5748031496062992,
          "duration": 0.1666666666666643
        },
        {
          "name": "C#4",
          "midi": 61,
          "time": 43.250000000000036,
          "velocity": 0.5511811023622047,
          "duration": 0.5572916666666643
        },
        {
          "name": "C5",
          "midi": 72,
          "time": 43.250000000000036,
          "velocity": 0.6141732283464567,
          "duration": 0.1770833333333357
        },
        {
          "name": "A#4",
          "midi": 70,
          "time": 43.375000000000036,
          "velocity": 0.7480314960629921,
          "duration": 0.125
        },
        {
          "name": "D#5",
          "midi": 75,
          "time": 43.375000000000036,
          "velocity": 0.7322834645669292,
          "duration": 0.1614583333333357
        },
        {
          "name": "A#4",
          "midi": 70,
          "time": 43.500000000000036,
          "velocity": 0.8503937007874016,
          "duration": 0.2447916666666643
        },
        {
          "name": "C5",
          "midi": 72,
          "time": 43.625000000000036,
          "velocity": 0.4881889763779528,
          "duration": 0.1666666666666643
        },
        {
          "name": "F3",
          "midi": 53,
          "time": 43.750000000000036,
          "velocity": 0.4409448818897638,
          "duration": 0.25
        },
        {
          "name": "D#5",
          "midi": 75,
          "time": 43.750000000000036,
          "velocity": 0.5433070866141733,
          "duration": 0.1770833333333357
        },
        {
          "name": "A#4",
          "midi": 70,
          "time": 43.875000000000036,
          "velocity": 0.6377952755905512,
          "duration": 2.046875
        },
        {
          "name": "F5",
          "midi": 77,
          "time": 43.875000000000036,
          "velocity": 0.4881889763779528,
          "duration": 0.71875
        },
        {
          "name": "F3",
          "midi": 53,
          "time": 44.000000000000036,
          "velocity": 0.6456692913385826,
          "duration": 0.8125
        },
        {
          "name": "G#3",
          "midi": 56,
          "time": 44.000000000000036,
          "velocity": 0.5354330708661418,
          "duration": 0.2447916666666643
        },
        {
          "name": "G#3",
          "midi": 56,
          "time": 44.250000000000036,
          "velocity": 0.6141732283464567,
          "duration": 0.2916666666666643
        },
        {
          "name": "C5",
          "midi": 72,
          "time": 44.375000000000036,
          "velocity": 0.6614173228346457,
          "duration": 0.4427083333333357
        },
        {
          "name": "A#3",
          "midi": 58,
          "time": 44.500000000000036,
          "velocity": 0.4881889763779528,
          "duration": 0.5364583333333357
        },
        {
          "name": "D#5",
          "midi": 75,
          "time": 44.750000000000036,
          "velocity": 0.7559055118110236,
          "duration": 0.25
        },
        {
          "name": "G#3",
          "midi": 56,
          "time": 45.000000000000036,
          "velocity": 0.5826771653543307,
          "duration": 0.25
        },
        {
          "name": "C4",
          "midi": 60,
          "time": 45.000000000000036,
          "velocity": 0.5669291338582677,
          "duration": 0.3333333333333286
        },
        {
          "name": "F5",
          "midi": 77,
          "time": 45.000000000000036,
          "velocity": 0.5433070866141733,
          "duration": 0.2916666666666643
        },
        {
          "name": "D#5",
          "midi": 75,
          "time": 45.125000000000036,
          "velocity": 0.6141732283464567,
          "duration": 0.4375
        },
        {
          "name": "G#3",
          "midi": 56,
          "time": 45.250000000000036,
          "velocity": 0.5590551181102362,
          "duration": 0.2864583333333357
        },
        {
          "name": "C#4",
          "midi": 61,
          "time": 45.250000000000036,
          "velocity": 0.7637795275590551,
          "duration": 0.2447916666666643
        },
        {
          "name": "C#4",
          "midi": 61,
          "time": 45.500000000000036,
          "velocity": 0.49606299212598426,
          "duration": 0.5625
        },
        {
          "name": "F4",
          "midi": 65,
          "time": 45.500000000000036,
          "velocity": 0.47244094488188976,
          "duration": 0.25
        },
        {
          "name": "A#5",
          "midi": 82,
          "time": 45.500000000000036,
          "velocity": 0.33858267716535434,
          "duration": 1.2656250000000142
        },
        {
          "name": "C6",
          "midi": 84,
          "time": 45.625000000000036,
          "velocity": 0.6299212598425197,
          "duration": 0.203125
        },
        {
          "name": "F4",
          "midi": 65,
          "time": 45.750000000000036,
          "velocity": 0.6614173228346457,
          "duration": 0.1614583333333357
        },
        {
          "name": "F5",
          "midi": 77,
          "time": 45.750000000000036,
          "velocity": 0.6535433070866141,
          "duration": 0.3697916666666643
        },
        {
          "name": "F3",
          "midi": 53,
          "time": 46.000000000000036,
          "velocity": 0.5669291338582677,
          "duration": 0.25
        },
        {
          "name": "C4",
          "midi": 60,
          "time": 46.125000000000036,
          "velocity": 0.7322834645669292,
          "duration": 0.3177083333333357
        },
        {
          "name": "D#4",
          "midi": 63,
          "time": 46.125000000000036,
          "velocity": 0.3937007874015748,
          "duration": 0.4791666666666785
        },
        {
          "name": "A#4",
          "midi": 70,
          "time": 46.125000000000036,
          "velocity": 0.6062992125984252,
          "duration": 1.906250000000007
        },
        {
          "name": "F5",
          "midi": 77,
          "time": 46.125000000000036,
          "velocity": 0.5669291338582677,
          "duration": 0.4270833333333428
        },
        {
          "name": "D#6",
          "midi": 87,
          "time": 46.125000000000036,
          "velocity": 0.4330708661417323,
          "duration": 0.1614583333333357
        },
        {
          "name": "F3",
          "midi": 53,
          "time": 46.250000000000036,
          "velocity": 0.4094488188976378,
          "duration": 0.3072916666666785
        },
        {
          "name": "G#3",
          "midi": 56,
          "time": 46.250000000000036,
          "velocity": 0.5196850393700787,
          "duration": 0.2447916666666714
        },
        {
          "name": "G#3",
          "midi": 56,
          "time": 46.50000000000004,
          "velocity": 0.5196850393700787,
          "duration": 0.2916666666666714
        },
        {
          "name": "D#5",
          "midi": 75,
          "time": 46.50000000000004,
          "velocity": 0.7401574803149606,
          "duration": 0.3750000000000071
        },
        {
          "name": "C5",
          "midi": 72,
          "time": 46.62500000000005,
          "velocity": 0.5354330708661418,
          "duration": 0.3020833333333357
        },
        {
          "name": "A#3",
          "midi": 58,
          "time": 46.75000000000005,
          "velocity": 0.5354330708661418,
          "duration": 0.5416666666666643
        },
        {
          "name": "F4",
          "midi": 65,
          "time": 46.75000000000005,
          "velocity": 0.3464566929133858,
          "duration": 0.7812499999999929
        },
        {
          "name": "D#5",
          "midi": 75,
          "time": 46.87500000000005,
          "velocity": 0.6141732283464567,
          "duration": 0.4270833333333286
        },
        {
          "name": "G#3",
          "midi": 56,
          "time": 47.25000000000005,
          "velocity": 0.5039370078740157,
          "duration": 1.0520833333333286
        },
        {
          "name": "C4",
          "midi": 60,
          "time": 47.25000000000005,
          "velocity": 0.5039370078740157,
          "duration": 0.3333333333333286
        },
        {
          "name": "A#5",
          "midi": 82,
          "time": 47.25000000000005,
          "velocity": 0.3858267716535433,
          "duration": 0.4947916666666572
        },
        {
          "name": "C#4",
          "midi": 61,
          "time": 47.50000000000004,
          "velocity": 0.6377952755905512,
          "duration": 0.25
        },
        {
          "name": "F5",
          "midi": 77,
          "time": 47.62500000000004,
          "velocity": 0.33070866141732286,
          "duration": 0.1614583333333357
        },
        {
          "name": "C#4",
          "midi": 61,
          "time": 47.75000000000004,
          "velocity": 0.5039370078740157,
          "duration": 0.3125
        },
        {
          "name": "F4",
          "midi": 65,
          "time": 47.75000000000004,
          "velocity": 0.41732283464566927,
          "duration": 0.3697916666666643
        },
        {
          "name": "A#5",
          "midi": 82,
          "time": 47.75000000000004,
          "velocity": 0.3779527559055118,
          "duration": 0.6197916666666714
        },
        {
          "name": "C5",
          "midi": 72,
          "time": 47.87500000000004,
          "velocity": 0.2677165354330709,
          "duration": 0.4114583333333357
        },
        {
          "name": "F4",
          "midi": 65,
          "time": 48.12500000000004,
          "velocity": 0.47244094488188976,
          "duration": 0.1770833333333357
        },
        {
          "name": "F3",
          "midi": 53,
          "time": 48.25000000000004,
          "velocity": 0.48031496062992124,
          "duration": 0.2447916666666714
        },
        {
          "name": "A#3",
          "midi": 58,
          "time": 48.25000000000004,
          "velocity": 0.47244094488188976,
          "duration": 0.3697916666666785
        },
        {
          "name": "D#5",
          "midi": 75,
          "time": 48.25000000000004,
          "velocity": 0.5196850393700787,
          "duration": 0.1197916666666714
        },
        {
          "name": "A#5",
          "midi": 82,
          "time": 48.37500000000005,
          "velocity": 0.41732283464566927,
          "duration": 0.2083333333333357
        },
        {
          "name": "F3",
          "midi": 53,
          "time": 48.50000000000005,
          "velocity": 0.4645669291338583,
          "duration": 0.5677083333333428
        },
        {
          "name": "G#3",
          "midi": 56,
          "time": 48.50000000000005,
          "velocity": 0.6456692913385826,
          "duration": 0.2500000000000071
        },
        {
          "name": "A#3",
          "midi": 58,
          "time": 48.62500000000006,
          "velocity": 0.7244094488188977,
          "duration": 0.375
        },
        {
          "name": "G#3",
          "midi": 56,
          "time": 48.75000000000006,
          "velocity": 0.6692913385826772,
          "duration": 0.296875
        },
        {
          "name": "A#4",
          "midi": 70,
          "time": 48.87500000000006,
          "velocity": 0.6062992125984252,
          "duration": 0.9010416666666714
        },
        {
          "name": "A#3",
          "midi": 58,
          "time": 49.00000000000006,
          "velocity": 0.6456692913385826,
          "duration": 0.296875
        },
        {
          "name": "G#5",
          "midi": 80,
          "time": 49.12500000000006,
          "velocity": 0.5748031496062992,
          "duration": 0.2916666666666714
        },
        {
          "name": "A#5",
          "midi": 82,
          "time": 49.12500000000006,
          "velocity": 0.4015748031496063,
          "duration": 0.2864583333333357
        },
        {
          "name": "G#3",
          "midi": 56,
          "time": 49.25000000000006,
          "velocity": 0.5984251968503937,
          "duration": 0.2500000000000071
        },
        {
          "name": "F4",
          "midi": 65,
          "time": 49.25000000000006,
          "velocity": 0.4881889763779528,
          "duration": 0.1979166666666714
        },
        {
          "name": "C6",
          "midi": 84,
          "time": 49.37500000000006,
          "velocity": 0.7322834645669292,
          "duration": 0.1822916666666714
        },
        {
          "name": "G#3",
          "midi": 56,
          "time": 49.500000000000064,
          "velocity": 0.5984251968503937,
          "duration": 0.296875
        },
        {
          "name": "C4",
          "midi": 60,
          "time": 49.500000000000064,
          "velocity": 0.5669291338582677,
          "duration": 0.3385416666666643
        },
        {
          "name": "C5",
          "midi": 72,
          "time": 49.625000000000064,
          "velocity": 0.6535433070866141,
          "duration": 0.25
        },
        {
          "name": "D#5",
          "midi": 75,
          "time": 49.750000000000064,
          "velocity": 0.6299212598425197,
          "duration": 0.1302083333333357
        },
        {
          "name": "D#4",
          "midi": 63,
          "time": 49.875000000000064,
          "velocity": 0.3700787401574803,
          "duration": 0.1822916666666714
        },
        {
          "name": "F4",
          "midi": 65,
          "time": 49.875000000000064,
          "velocity": 0.7480314960629921,
          "duration": 0.4947916666666714
        },
        {
          "name": "C5",
          "midi": 72,
          "time": 49.875000000000064,
          "velocity": 0.6062992125984252,
          "duration": 0.1770833333333357
        },
        {
          "name": "A4",
          "midi": 69,
          "time": 50.000000000000064,
          "velocity": 0.7244094488188977,
          "duration": 0.1979166666666714
        },
        {
          "name": "G#4",
          "midi": 68,
          "time": 50.12500000000007,
          "velocity": 0.6220472440944882,
          "duration": 0.3697916666666643
        },
        {
          "name": "D#5",
          "midi": 75,
          "time": 50.12500000000007,
          "velocity": 0.3858267716535433,
          "duration": 0.3697916666666643
        },
        {
          "name": "C5",
          "midi": 72,
          "time": 50.25000000000007,
          "velocity": 0.8031496062992126,
          "duration": 0.375
        },
        {
          "name": "F4",
          "midi": 65,
          "time": 50.37500000000007,
          "velocity": 0.5354330708661418,
          "duration": 0.1510416666666643
        },
        {
          "name": "G#4",
          "midi": 68,
          "time": 50.50000000000007,
          "velocity": 0.7874015748031497,
          "duration": 0.3697916666666643
        },
        {
          "name": "C5",
          "midi": 72,
          "time": 50.62500000000007,
          "velocity": 0.6141732283464567,
          "duration": 0.2916666666666643
        },
        {
          "name": "G#4",
          "midi": 68,
          "time": 50.87500000000007,
          "velocity": 0.6220472440944882,
          "duration": 0.5364583333333357
        },
        {
          "name": "A#4",
          "midi": 70,
          "time": 51.00000000000007,
          "velocity": 0.7559055118110236,
          "duration": 0.3697916666666643
        },
        {
          "name": "G#5",
          "midi": 80,
          "time": 51.25000000000007,
          "velocity": 0.4330708661417323,
          "duration": 0.5208333333333357
        },
        {
          "name": "A#4",
          "midi": 70,
          "time": 51.37500000000007,
          "velocity": 0.44881889763779526,
          "duration": 0.28125
        },
        {
          "name": "C5",
          "midi": 72,
          "time": 51.62500000000007,
          "velocity": 0.2992125984251969,
          "duration": 0.40625
        },
        {
          "name": "F5",
          "midi": 77,
          "time": 51.75000000000007,
          "velocity": 0.6377952755905512,
          "duration": 0.5364583333333357
        },
        {
          "name": "A#5",
          "midi": 82,
          "time": 52.00000000000007,
          "velocity": 0.4251968503937008,
          "duration": 0.140625
        },
        {
          "name": "D#5",
          "midi": 75,
          "time": 52.25000000000007,
          "velocity": 0.7244094488188977,
          "duration": 0.3697916666666643
        },
        {
          "name": "F5",
          "midi": 77,
          "time": 52.50000000000007,
          "velocity": 0.5826771653543307,
          "duration": 0.5052083333333357
        },
        {
          "name": "D#5",
          "midi": 75,
          "time": 52.62500000000007,
          "velocity": 0.5433070866141733,
          "duration": 0.2916666666666643
        },
        {
          "name": "G#4",
          "midi": 68,
          "time": 52.87500000000007,
          "velocity": 0.4645669291338583,
          "duration": 0.171875
        },
        {
          "name": "C5",
          "midi": 72,
          "time": 53.00000000000007,
          "velocity": 0.7637795275590551,
          "duration": 0.3697916666666643
        },
        {
          "name": "G#4",
          "midi": 68,
          "time": 53.06250000000007,
          "velocity": 0.33070866141732286,
          "duration": 0.3125
        },
        {
          "name": "D#5",
          "midi": 75,
          "time": 53.25000000000007,
          "velocity": 0.6850393700787402,
          "duration": 0.3697916666666643
        },
        {
          "name": "G#4",
          "midi": 68,
          "time": 53.37500000000007,
          "velocity": 0.4251968503937008,
          "duration": 0.25
        },
        {
          "name": "C5",
          "midi": 72,
          "time": 53.37500000000007,
          "velocity": 0.4645669291338583,
          "duration": 0.2864583333333357
        },
        {
          "name": "G#4",
          "midi": 68,
          "time": 53.62500000000007,
          "velocity": 0.48031496062992124,
          "duration": 0.2291666666666714
        },
        {
          "name": "G#4",
          "midi": 68,
          "time": 54.00000000000008,
          "velocity": 0.3937007874015748,
          "duration": 0.2135416666666643
        },
        {
          "name": "D#5",
          "midi": 75,
          "time": 54.00000000000008,
          "velocity": 0.4330708661417323,
          "duration": 0.421875
        },
        {
          "name": "F5",
          "midi": 77,
          "time": 54.00000000000008,
          "velocity": 0.6377952755905512,
          "duration": 0.2864583333333357
        },
        {
          "name": "A#4",
          "midi": 70,
          "time": 54.25000000000008,
          "velocity": 0.7559055118110236,
          "duration": 0.3697916666666643
        },
        {
          "name": "F5",
          "midi": 77,
          "time": 54.50000000000008,
          "velocity": 0.6692913385826772,
          "duration": 0.1666666666666643
        },
        {
          "name": "A#4",
          "midi": 70,
          "time": 54.62500000000008,
          "velocity": 0.5118110236220472,
          "duration": 0.296875
        },
        {
          "name": "D#5",
          "midi": 75,
          "time": 54.62500000000008,
          "velocity": 0.6377952755905512,
          "duration": 0.15625
        },
        {
          "name": "C5",
          "midi": 72,
          "time": 54.75000000000008,
          "velocity": 0.7165354330708661,
          "duration": 0.1666666666666643
        },
        {
          "name": "F4",
          "midi": 65,
          "time": 54.87500000000008,
          "velocity": 0.5118110236220472,
          "duration": 0.1822916666666643
        },
        {
          "name": "G#4",
          "midi": 68,
          "time": 55.00000000000008,
          "velocity": 0.6377952755905512,
          "duration": 0.375
        },
        {
          "name": "D#5",
          "midi": 75,
          "time": 55.00000000000008,
          "velocity": 0.49606299212598426,
          "duration": 0.1666666666666643
        },
        {
          "name": "C5",
          "midi": 72,
          "time": 55.12500000000008,
          "velocity": 0.5196850393700787,
          "duration": 0.1510416666666643
        },
        {
          "name": "A#4",
          "midi": 70,
          "time": 55.25000000000008,
          "velocity": 0.7874015748031497,
          "duration": 0.375
        },
        {
          "name": "G#4",
          "midi": 68,
          "time": 55.37500000000008,
          "velocity": 0.5354330708661418,
          "duration": 0.3020833333333357
        },
        {
          "name": "A#3",
          "midi": 58,
          "time": 55.50000000000008,
          "velocity": 0.49606299212598426,
          "duration": 0.171875
        },
        {
          "name": "F3",
          "midi": 53,
          "time": 55.62500000000008,
          "velocity": 0.4645669291338583,
          "duration": 0.15625
        },
        {
          "name": "A#4",
          "midi": 70,
          "time": 55.62500000000008,
          "velocity": 0.5826771653543307,
          "duration": 0.5520833333333215
        },
        {
          "name": "F5",
          "midi": 77,
          "time": 55.62500000000008,
          "velocity": 0.5669291338582677,
          "duration": 0.1614583333333357
        },
        {
          "name": "C4",
          "midi": 60,
          "time": 55.75000000000008,
          "velocity": 0.3937007874015748,
          "duration": 0.140625
        },
        {
          "name": "G#5",
          "midi": 80,
          "time": 55.75000000000008,
          "velocity": 0.5433070866141733,
          "duration": 0.2760416666666643
        },
        {
          "name": "C6",
          "midi": 84,
          "time": 55.75000000000008,
          "velocity": 0.4645669291338583,
          "duration": 0.3749999999999929
        },
        {
          "name": "G#3",
          "midi": 56,
          "time": 55.87500000000008,
          "velocity": 0.47244094488188976,
          "duration": 0.1770833333333286
        },
        {
          "name": "F3",
          "midi": 53,
          "time": 56.00000000000008,
          "velocity": 0.4094488188976378,
          "duration": 0.1510416666666572
        },
        {
          "name": "F4",
          "midi": 65,
          "time": 56.00000000000008,
          "velocity": 0.4881889763779528,
          "duration": 0.2499999999999858
        },
        {
          "name": "C4",
          "midi": 60,
          "time": 56.12500000000007,
          "velocity": 0.4015748031496063,
          "duration": 0.1562499999999929
        },
        {
          "name": "C6",
          "midi": 84,
          "time": 56.12500000000007,
          "velocity": 0.5196850393700787,
          "duration": 0.2552083333333286
        },
        {
          "name": "G#3",
          "midi": 56,
          "time": 56.250000000000064,
          "velocity": 0.4409448818897638,
          "duration": 0.1770833333333357
        },
        {
          "name": "F4",
          "midi": 65,
          "time": 56.250000000000064,
          "velocity": 0.3937007874015748,
          "duration": 0.3020833333333286
        },
        {
          "name": "F5",
          "midi": 77,
          "time": 56.250000000000064,
          "velocity": 0.6220472440944882,
          "duration": 0.2916666666666643
        },
        {
          "name": "D#5",
          "midi": 75,
          "time": 56.500000000000064,
          "velocity": 0.6220472440944882,
          "duration": 0.9895833333333286
        },
        {
          "name": "C6",
          "midi": 84,
          "time": 56.500000000000064,
          "velocity": 0.5196850393700787,
          "duration": 0.4427083333333286
        },
        {
          "name": "C4",
          "midi": 60,
          "time": 56.62500000000006,
          "velocity": 0.4015748031496063,
          "duration": 0.7864583333333357
        },
        {
          "name": "F4",
          "midi": 65,
          "time": 57.00000000000006,
          "velocity": 0.49606299212598426,
          "duration": 0.3697916666666643
        },
        {
          "name": "F5",
          "midi": 77,
          "time": 57.00000000000006,
          "velocity": 0.5748031496062992,
          "duration": 0.234375
        },
        {
          "name": "D#4",
          "midi": 63,
          "time": 57.25000000000006,
          "velocity": 0.4566929133858268,
          "duration": 0.7916666666666714
        },
        {
          "name": "C5",
          "midi": 72,
          "time": 57.25000000000006,
          "velocity": 0.7559055118110236,
          "duration": 0.3697916666666714
        },
        {
          "name": "F4",
          "midi": 65,
          "time": 57.37500000000006,
          "velocity": 0.4251968503937008,
          "duration": 0.3125000000000071
        },
        {
          "name": "C5",
          "midi": 72,
          "time": 57.625000000000064,
          "velocity": 0.5590551181102362,
          "duration": 0.40625
        },
        {
          "name": "D#6",
          "midi": 87,
          "time": 57.625000000000064,
          "velocity": 0.4645669291338583,
          "duration": 0.21875
        },
        {
          "name": "D#5",
          "midi": 75,
          "time": 57.750000000000064,
          "velocity": 0.5433070866141733,
          "duration": 0.2447916666666643
        },
        {
          "name": "A#4",
          "midi": 70,
          "time": 58.000000000000064,
          "velocity": 0.3858267716535433,
          "duration": 0.4947916666666643
        },
        {
          "name": "C#5",
          "midi": 73,
          "time": 58.000000000000064,
          "velocity": 0.4881889763779528,
          "duration": 0.1510416666666643
        },
        {
          "name": "D#5",
          "midi": 75,
          "time": 58.000000000000064,
          "velocity": 0.7007874015748031,
          "duration": 0.3697916666666643
        },
        {
          "name": "F5",
          "midi": 77,
          "time": 58.000000000000064,
          "velocity": 0.4015748031496063,
          "duration": 0.2447916666666643
        },
        {
          "name": "F5",
          "midi": 77,
          "time": 58.250000000000064,
          "velocity": 0.6614173228346457,
          "duration": 0.2708333333333357
        },
        {
          "name": "D#5",
          "midi": 75,
          "time": 58.375000000000064,
          "velocity": 0.5511811023622047,
          "duration": 0.2760416666666714
        },
        {
          "name": "F4",
          "midi": 65,
          "time": 58.500000000000064,
          "velocity": 0.44881889763779526,
          "duration": 0.3750000000000071
        },
        {
          "name": "A#4",
          "midi": 70,
          "time": 58.500000000000064,
          "velocity": 0.7480314960629921,
          "duration": 0.3750000000000071
        },
        {
          "name": "F4",
          "midi": 65,
          "time": 58.87500000000007,
          "velocity": 0.3464566929133858,
          "duration": 0.3020833333333357
        },
        {
          "name": "A#4",
          "midi": 70,
          "time": 58.87500000000007,
          "velocity": 0.5196850393700787,
          "duration": 0.15625
        },
        {
          "name": "F5",
          "midi": 77,
          "time": 59.00000000000007,
          "velocity": 0.6141732283464567,
          "duration": 0.2708333333333357
        },
        {
          "name": "D#5",
          "midi": 75,
          "time": 59.25000000000007,
          "velocity": 0.5669291338582677,
          "duration": 0.3697916666666714
        },
        {
          "name": "F4",
          "midi": 65,
          "time": 59.37500000000007,
          "velocity": 0.4881889763779528,
          "duration": 0.1614583333333357
        },
        {
          "name": "A#3",
          "midi": 58,
          "time": 59.62500000000008,
          "velocity": 0.48031496062992124,
          "duration": 0.1614583333333357
        },
        {
          "name": "A#5",
          "midi": 82,
          "time": 59.62500000000008,
          "velocity": 0.4645669291338583,
          "duration": 0.15625
        },
        {
          "name": "F3",
          "midi": 53,
          "time": 59.75000000000008,
          "velocity": 0.4251968503937008,
          "duration": 0.1510416666666643
        },
        {
          "name": "F5",
          "midi": 77,
          "time": 59.75000000000008,
          "velocity": 0.6299212598425197,
          "duration": 0.296875
        },
        {
          "name": "C4",
          "midi": 60,
          "time": 59.87500000000008,
          "velocity": 0.5669291338582677,
          "duration": 0.1614583333333357
        },
        {
          "name": "G#3",
          "midi": 56,
          "time": 60.00000000000008,
          "velocity": 0.4015748031496063,
          "duration": 0.1510416666666643
        },
        {
          "name": "G#5",
          "midi": 80,
          "time": 60.00000000000008,
          "velocity": 0.5590551181102362,
          "duration": 0.1979166666666643
        },
        {
          "name": "F3",
          "midi": 53,
          "time": 60.12500000000008,
          "velocity": 0.3858267716535433,
          "duration": 0.1666666666666643
        },
        {
          "name": "F4",
          "midi": 65,
          "time": 60.12500000000008,
          "velocity": 0.4330708661417323,
          "duration": 0.375
        },
        {
          "name": "C4",
          "midi": 60,
          "time": 60.25000000000008,
          "velocity": 0.4251968503937008,
          "duration": 0.25
        },
        {
          "name": "C5",
          "midi": 72,
          "time": 60.25000000000008,
          "velocity": 0.7559055118110236,
          "duration": 0.3697916666666714
        },
        {
          "name": "G#3",
          "midi": 56,
          "time": 60.37500000000008,
          "velocity": 0.47244094488188976,
          "duration": 0.1458333333333357
        },
        {
          "name": "C4",
          "midi": 60,
          "time": 60.50000000000008,
          "velocity": 0.3937007874015748,
          "duration": 0.9114583333333428
        },
        {
          "name": "F4",
          "midi": 65,
          "time": 60.50000000000008,
          "velocity": 0.5433070866141733,
          "duration": 0.3697916666666714
        },
        {
          "name": "C5",
          "midi": 72,
          "time": 60.625000000000085,
          "velocity": 0.6535433070866141,
          "duration": 0.375
        },
        {
          "name": "F4",
          "midi": 65,
          "time": 60.875000000000085,
          "velocity": 0.3779527559055118,
          "duration": 0.4166666666666643
        },
        {
          "name": "C5",
          "midi": 72,
          "time": 61.000000000000085,
          "velocity": 0.7559055118110236,
          "duration": 0.3697916666666643
        },
        {
          "name": "F6",
          "midi": 89,
          "time": 61.000000000000085,
          "velocity": 0.4645669291338583,
          "duration": 0.3229166666666643
        },
        {
          "name": "D#4",
          "midi": 63,
          "time": 61.250000000000085,
          "velocity": 0.3937007874015748,
          "duration": 0.796875
        },
        {
          "name": "G#4",
          "midi": 68,
          "time": 61.250000000000085,
          "velocity": 0.7401574803149606,
          "duration": 0.1770833333333357
        },
        {
          "name": "A#4",
          "midi": 70,
          "time": 61.375000000000085,
          "velocity": 0.6850393700787402,
          "duration": 0.1666666666666643
        },
        {
          "name": "C5",
          "midi": 72,
          "time": 61.375000000000085,
          "velocity": 0.5118110236220472,
          "duration": 0.3072916666666643
        },
        {
          "name": "G#5",
          "midi": 80,
          "time": 61.500000000000085,
          "velocity": 0.5275590551181102,
          "duration": 0.1510416666666643
        },
        {
          "name": "G#4",
          "midi": 68,
          "time": 61.625000000000085,
          "velocity": 0.5039370078740157,
          "duration": 0.1875
        },
        {
          "name": "F5",
          "midi": 77,
          "time": 61.625000000000085,
          "velocity": 0.5905511811023622,
          "duration": 0.25
        },
        {
          "name": "A#4",
          "midi": 70,
          "time": 61.750000000000085,
          "velocity": 0.47244094488188976,
          "duration": 0.171875
        },
        {
          "name": "D#5",
          "midi": 75,
          "time": 61.750000000000085,
          "velocity": 0.5826771653543307,
          "duration": 0.1458333333333357
        },
        {
          "name": "F5",
          "midi": 77,
          "time": 61.875000000000085,
          "velocity": 0.6535433070866141,
          "duration": 0.1666666666666643
        },
        {
          "name": "C5",
          "midi": 72,
          "time": 62.000000000000085,
          "velocity": 0.7244094488188977,
          "duration": 0.1770833333333357
        },
        {
          "name": "D#5",
          "midi": 75,
          "time": 62.125000000000085,
          "velocity": 0.7480314960629921,
          "duration": 0.15625
        },
        {
          "name": "F4",
          "midi": 65,
          "time": 62.250000000000085,
          "velocity": 0.4409448818897638,
          "duration": 0.375
        },
        {
          "name": "A#4",
          "midi": 70,
          "time": 62.250000000000085,
          "velocity": 0.7401574803149606,
          "duration": 0.375
        },
        {
          "name": "C5",
          "midi": 72,
          "time": 62.375000000000085,
          "velocity": 0.6299212598425197,
          "duration": 0.1614583333333357
        },
        {
          "name": "C#5",
          "midi": 73,
          "time": 62.500000000000085,
          "velocity": 0.5118110236220472,
          "duration": 0.125
        },
        {
          "name": "D#5",
          "midi": 75,
          "time": 62.500000000000085,
          "velocity": 0.5669291338582677,
          "duration": 0.171875
        },
        {
          "name": "F5",
          "midi": 77,
          "time": 62.500000000000085,
          "velocity": 0.5118110236220472,
          "duration": 0.515625
        },
        {
          "name": "F4",
          "midi": 65,
          "time": 62.625000000000085,
          "velocity": 0.2992125984251969,
          "duration": 0.3854166666666643
        },
        {
          "name": "A#4",
          "midi": 70,
          "time": 62.625000000000085,
          "velocity": 0.4330708661417323,
          "duration": 0.2916666666666643
        },
        {
          "name": "C#5",
          "midi": 73,
          "time": 62.625000000000085,
          "velocity": 0.44881889763779526,
          "duration": 0.1354166666666643
        },
        {
          "name": "C#5",
          "midi": 73,
          "time": 63.000000000000085,
          "velocity": 0.5118110236220472,
          "duration": 0.1354166666666643
        },
        {
          "name": "D#5",
          "midi": 75,
          "time": 63.000000000000085,
          "velocity": 0.7322834645669292,
          "duration": 0.2552083333333357
        },
        {
          "name": "C5",
          "midi": 72,
          "time": 63.250000000000085,
          "velocity": 0.7795275590551181,
          "duration": 0.375
        },
        {
          "name": "D#5",
          "midi": 75,
          "time": 63.375000000000085,
          "velocity": 0.5590551181102362,
          "duration": 0.2864583333333357
        },
        {
          "name": "C5",
          "midi": 72,
          "time": 63.625000000000085,
          "velocity": 0.6614173228346457,
          "duration": 0.2552083333333357
        },
        {
          "name": "F4",
          "midi": 65,
          "time": 63.750000000000085,
          "velocity": 0.4881889763779528,
          "duration": 0.2447916666666714
        },
        {
          "name": "F4",
          "midi": 65,
          "time": 64.00000000000009,
          "velocity": 0.49606299212598426,
          "duration": 0.171875
        },
        {
          "name": "A#4",
          "midi": 70,
          "time": 64.12500000000009,
          "velocity": 0.3779527559055118,
          "duration": 0.1197916666666714
        },
        {
          "name": "D#5",
          "midi": 75,
          "time": 64.12500000000009,
          "velocity": 0.30708661417322836,
          "duration": 0.09375
        },
        {
          "name": "A#4",
          "midi": 70,
          "time": 64.25000000000009,
          "velocity": 0.44881889763779526,
          "duration": 0.4114583333333286
        },
        {
          "name": "C5",
          "midi": 72,
          "time": 64.25000000000009,
          "velocity": 0.4645669291338583,
          "duration": 0.25
        },
        {
          "name": "C5",
          "midi": 72,
          "time": 64.50000000000009,
          "velocity": 0.7952755905511811,
          "duration": 0.3697916666666572
        },
        {
          "name": "F5",
          "midi": 77,
          "time": 64.62500000000009,
          "velocity": 0.36220472440944884,
          "duration": 0.1614583333333286
        },
        {
          "name": "G#4",
          "midi": 68,
          "time": 64.75000000000009,
          "velocity": 0.5196850393700787,
          "duration": 0.401041666666643
        },
        {
          "name": "D#5",
          "midi": 75,
          "time": 64.75000000000009,
          "velocity": 0.44881889763779526,
          "duration": 0.369791666666643
        },
        {
          "name": "C5",
          "midi": 72,
          "time": 64.87500000000007,
          "velocity": 0.4645669291338583,
          "duration": 0.1614583333333286
        },
        {
          "name": "A#4",
          "midi": 70,
          "time": 65.00000000000007,
          "velocity": 0.6614173228346457,
          "duration": 0.2499999999999858
        },
        {
          "name": "D#5",
          "midi": 75,
          "time": 65.12500000000006,
          "velocity": 0.4094488188976378,
          "duration": 0.375
        },
        {
          "name": "A#4",
          "midi": 70,
          "time": 65.25000000000006,
          "velocity": 0.8110236220472441,
          "duration": 0.3697916666666714
        },
        {
          "name": "D#5",
          "midi": 75,
          "time": 65.50000000000006,
          "velocity": 0.3779527559055118,
          "duration": 0.4791666666666714
        },
        {
          "name": "G#5",
          "midi": 80,
          "time": 65.50000000000006,
          "velocity": 0.47244094488188976,
          "duration": 0.796875
        },
        {
          "name": "A#4",
          "midi": 70,
          "time": 65.62500000000006,
          "velocity": 0.5748031496062992,
          "duration": 0.3125
        },
        {
          "name": "D#6",
          "midi": 87,
          "time": 66.00000000000006,
          "velocity": 0.4330708661417323,
          "duration": 0.1510416666666714
        },
        {
          "name": "A#4",
          "midi": 70,
          "time": 66.12500000000006,
          "velocity": 0.4881889763779528,
          "duration": 0.375
        },
        {
          "name": "F5",
          "midi": 77,
          "time": 66.25000000000006,
          "velocity": 0.6850393700787402,
          "duration": 0.296875
        },
        {
          "name": "D#6",
          "midi": 87,
          "time": 66.37500000000006,
          "velocity": 0.36220472440944884,
          "duration": 0.1510416666666714
        },
        {
          "name": "A#4",
          "midi": 70,
          "time": 66.50000000000006,
          "velocity": 0.4409448818897638,
          "duration": 0.34375
        },
        {
          "name": "C#5",
          "midi": 73,
          "time": 66.50000000000006,
          "velocity": 0.4566929133858268,
          "duration": 0.1197916666666714
        },
        {
          "name": "D#5",
          "midi": 75,
          "time": 66.50000000000006,
          "velocity": 0.7480314960629921,
          "duration": 0.3697916666666714
        },
        {
          "name": "C#5",
          "midi": 73,
          "time": 66.62500000000006,
          "velocity": 0.5039370078740157,
          "duration": 0.1197916666666714
        },
        {
          "name": "F5",
          "midi": 77,
          "time": 66.75000000000006,
          "velocity": 0.5826771653543307,
          "duration": 0.5208333333333286
        },
        {
          "name": "D#5",
          "midi": 75,
          "time": 66.87500000000006,
          "velocity": 0.7244094488188977,
          "duration": 0.2708333333333286
        },
        {
          "name": "A#4",
          "midi": 70,
          "time": 67.00000000000006,
          "velocity": 0.4409448818897638,
          "duration": 0.2552083333333286
        },
        {
          "name": "C#5",
          "midi": 73,
          "time": 67.00000000000006,
          "velocity": 0.41732283464566927,
          "duration": 0.1302083333333286
        },
        {
          "name": "C5",
          "midi": 72,
          "time": 67.25000000000006,
          "velocity": 0.7952755905511811,
          "duration": 0.3697916666666714
        },
        {
          "name": "A#4",
          "midi": 70,
          "time": 67.37500000000006,
          "velocity": 0.4330708661417323,
          "duration": 0.25
        },
        {
          "name": "D#5",
          "midi": 75,
          "time": 67.50000000000006,
          "velocity": 0.6220472440944882,
          "duration": 0.9166666666666714
        },
        {
          "name": "A#4",
          "midi": 70,
          "time": 67.62500000000006,
          "velocity": 0.4330708661417323,
          "duration": 0.2447916666666714
        },
        {
          "name": "C5",
          "midi": 72,
          "time": 67.62500000000006,
          "velocity": 0.5748031496062992,
          "duration": 0.2916666666666714
        },
        {
          "name": "A#4",
          "midi": 70,
          "time": 67.87500000000006,
          "velocity": 0.48031496062992124,
          "duration": 0.40625
        },
        {
          "name": "F5",
          "midi": 77,
          "time": 68.00000000000006,
          "velocity": 0.6377952755905512,
          "duration": 0.6197916666666714
        },
        {
          "name": "A#4",
          "midi": 70,
          "time": 68.50000000000006,
          "velocity": 0.7322834645669292,
          "duration": 0.375
        },
        {
          "name": "C#5",
          "midi": 73,
          "time": 68.50000000000006,
          "velocity": 0.5118110236220472,
          "duration": 0.125
        },
        {
          "name": "C#5",
          "midi": 73,
          "time": 68.62500000000006,
          "velocity": 0.47244094488188976,
          "duration": 0.1510416666666714
        },
        {
          "name": "D#5",
          "midi": 75,
          "time": 68.75000000000006,
          "velocity": 0.47244094488188976,
          "duration": 0.2552083333333286
        },
        {
          "name": "F5",
          "midi": 77,
          "time": 68.75000000000006,
          "velocity": 0.5748031496062992,
          "duration": 0.5260416666666572
        },
        {
          "name": "A#4",
          "midi": 70,
          "time": 68.87500000000006,
          "velocity": 0.5275590551181102,
          "duration": 0.3072916666666572
        },
        {
          "name": "C#5",
          "midi": 73,
          "time": 69.00000000000006,
          "velocity": 0.5196850393700787,
          "duration": 0.1354166666666572
        },
        {
          "name": "D#5",
          "midi": 75,
          "time": 69.25000000000004,
          "velocity": 0.7795275590551181,
          "duration": 0.3697916666666714
        },
        {
          "name": "C5",
          "midi": 72,
          "time": 69.50000000000004,
          "velocity": 0.7716535433070866,
          "duration": 0.3697916666666714
        },
        {
          "name": "D#5",
          "midi": 75,
          "time": 69.62500000000004,
          "velocity": 0.6377952755905512,
          "duration": 0.2916666666666714
        },
        {
          "name": "A#4",
          "midi": 70,
          "time": 69.87500000000004,
          "velocity": 0.48031496062992124,
          "duration": 0.3541666666666714
        },
        {
          "name": "C5",
          "midi": 72,
          "time": 69.87500000000004,
          "velocity": 0.6771653543307087,
          "duration": 0.4322916666666714
        },
        {
          "name": "F4",
          "midi": 65,
          "time": 70.25000000000004,
          "velocity": 0.5118110236220472,
          "duration": 0.375
        },
        {
          "name": "C5",
          "midi": 72,
          "time": 70.50000000000004,
          "velocity": 0.8188976377952756,
          "duration": 0.375
        },
        {
          "name": "F4",
          "midi": 65,
          "time": 70.62500000000004,
          "velocity": 0.4094488188976378,
          "duration": 0.3072916666666714
        },
        {
          "name": "G#4",
          "midi": 68,
          "time": 70.75000000000004,
          "velocity": 0.6614173228346457,
          "duration": 0.4947916666666714
        },
        {
          "name": "D#5",
          "midi": 75,
          "time": 70.75000000000004,
          "velocity": 0.4409448818897638,
          "duration": 0.3697916666666714
        },
        {
          "name": "C5",
          "midi": 72,
          "time": 70.87500000000004,
          "velocity": 0.5433070866141733,
          "duration": 0.2447916666666714
        },
        {
          "name": "A#4",
          "midi": 70,
          "time": 71.00000000000004,
          "velocity": 0.49606299212598426,
          "duration": 0.2447916666666714
        },
        {
          "name": "D#5",
          "midi": 75,
          "time": 71.12500000000004,
          "velocity": 0.44881889763779526,
          "duration": 0.125
        },
        {
          "name": "G#4",
          "midi": 68,
          "time": 71.25000000000004,
          "velocity": 0.4015748031496063,
          "duration": 0.4479166666666714
        },
        {
          "name": "A#4",
          "midi": 70,
          "time": 71.25000000000004,
          "velocity": 0.7480314960629921,
          "duration": 0.375
        },
        {
          "name": "D#5",
          "midi": 75,
          "time": 71.25000000000004,
          "velocity": 0.4645669291338583,
          "duration": 0.25
        },
        {
          "name": "D#5",
          "midi": 75,
          "time": 71.50000000000004,
          "velocity": 0.4251968503937008,
          "duration": 0.109375
        },
        {
          "name": "G#5",
          "midi": 80,
          "time": 71.50000000000004,
          "velocity": 0.5669291338582677,
          "duration": 0.3802083333333286
        },
        {
          "name": "A#4",
          "midi": 70,
          "time": 71.62500000000004,
          "velocity": 0.5275590551181102,
          "duration": 0.2447916666666714
        },
        {
          "name": "F#5",
          "midi": 78,
          "time": 71.62500000000004,
          "velocity": 0.5196850393700787,
          "duration": 0.1875
        },
        {
          "name": "F4",
          "midi": 65,
          "time": 71.87500000000004,
          "velocity": 0.49606299212598426,
          "duration": 0.9062499999999858
        },
        {
          "name": "G#4",
          "midi": 68,
          "time": 71.87500000000004,
          "velocity": 0.49606299212598426,
          "duration": 0.2447916666666572
        },
        {
          "name": "C5",
          "midi": 72,
          "time": 71.87500000000004,
          "velocity": 0.4251968503937008,
          "duration": 0.1822916666666572
        },
        {
          "name": "D#5",
          "midi": 75,
          "time": 71.87500000000004,
          "velocity": 0.33070866141732286,
          "duration": 0.1302083333333286
        },
        {
          "name": "F5",
          "midi": 77,
          "time": 71.87500000000004,
          "velocity": 0.4566929133858268,
          "duration": 0.10416666666665719
        },
        {
          "name": "A#4",
          "midi": 70,
          "time": 72.12500000000003,
          "velocity": 0.5905511811023622,
          "duration": 0.25
        },
        {
          "name": "A#5",
          "midi": 82,
          "time": 72.12500000000003,
          "velocity": 0.4015748031496063,
          "duration": 1.2083333333333286
        },
        {
          "name": "C5",
          "midi": 72,
          "time": 72.25000000000003,
          "velocity": 0.48031496062992124,
          "duration": 0.25
        },
        {
          "name": "A#4",
          "midi": 70,
          "time": 72.37500000000003,
          "velocity": 0.6377952755905512,
          "duration": 0.140625
        },
        {
          "name": "C5",
          "midi": 72,
          "time": 72.50000000000003,
          "velocity": 0.7874015748031497,
          "duration": 0.3697916666666714
        },
        {
          "name": "F5",
          "midi": 77,
          "time": 72.62500000000003,
          "velocity": 0.33858267716535434,
          "duration": 0.265625
        },
        {
          "name": "G#4",
          "midi": 68,
          "time": 72.75000000000003,
          "velocity": 0.5748031496062992,
          "duration": 0.9479166666666572
        },
        {
          "name": "C5",
          "midi": 72,
          "time": 72.87500000000003,
          "velocity": 0.5905511811023622,
          "duration": 0.3125
        },
        {
          "name": "D#5",
          "midi": 75,
          "time": 73.12500000000003,
          "velocity": 0.41732283464566927,
          "duration": 0.2604166666666572
        },
        {
          "name": "A#4",
          "midi": 70,
          "time": 73.25000000000003,
          "velocity": 0.8661417322834646,
          "duration": 0.3697916666666572
        },
        {
          "name": "G#5",
          "midi": 80,
          "time": 73.50000000000001,
          "velocity": 0.5039370078740157,
          "duration": 0.2708333333333428
        },
        {
          "name": "A#4",
          "midi": 70,
          "time": 73.62500000000001,
          "velocity": 0.7086614173228346,
          "duration": 0.7343750000000142
        },
        {
          "name": "F5",
          "midi": 77,
          "time": 73.87500000000003,
          "velocity": 0.3937007874015748,
          "duration": 0.2447916666666714
        },
        {
          "name": "A#5",
          "midi": 82,
          "time": 73.87500000000003,
          "velocity": 0.29133858267716534,
          "duration": 2.9427083333333
        },
        {
          "name": "F5",
          "midi": 77,
          "time": 74.12500000000003,
          "velocity": 0.4330708661417323,
          "duration": 0.1197916666666714
        },
        {
          "name": "F5",
          "midi": 77,
          "time": 74.25000000000003,
          "velocity": 0.7007874015748031,
          "duration": 0.2864583333333286
        },
        {
          "name": "C#5",
          "midi": 73,
          "time": 74.50000000000003,
          "velocity": 0.49606299212598426,
          "duration": 0.11979166666665719
        },
        {
          "name": "D#5",
          "midi": 75,
          "time": 74.50000000000003,
          "velocity": 0.7401574803149606,
          "duration": 0.369791666666643
        },
        {
          "name": "A#4",
          "midi": 70,
          "time": 74.62500000000001,
          "velocity": 0.5669291338582677,
          "duration": 0.3697916666666572
        },
        {
          "name": "C#5",
          "midi": 73,
          "time": 74.62500000000001,
          "velocity": 0.48031496062992124,
          "duration": 0.1302083333333286
        },
        {
          "name": "F5",
          "midi": 77,
          "time": 74.75000000000001,
          "velocity": 0.5984251968503937,
          "duration": 0.5312499999999858
        },
        {
          "name": "D#5",
          "midi": 75,
          "time": 74.875,
          "velocity": 0.7165354330708661,
          "duration": 0.28125
        },
        {
          "name": "A#4",
          "midi": 70,
          "time": 75,
          "velocity": 0.6771653543307087,
          "duration": 0.375
        },
        {
          "name": "C#5",
          "midi": 73,
          "time": 75,
          "velocity": 0.48031496062992124,
          "duration": 0.1510416666666714
        },
        {
          "name": "C5",
          "midi": 72,
          "time": 75.25,
          "velocity": 0.8110236220472441,
          "duration": 0.3697916666666714
        },
        {
          "name": "A#4",
          "midi": 70,
          "time": 75.375,
          "velocity": 0.6771653543307087,
          "duration": 0.2447916666666714
        },
        {
          "name": "D#5",
          "midi": 75,
          "time": 75.5,
          "velocity": 0.6377952755905512,
          "duration": 0.921875
        },
        {
          "name": "C5",
          "midi": 72,
          "time": 75.625,
          "velocity": 0.5118110236220472,
          "duration": 0.2864583333333286
        },
        {
          "name": "F5",
          "midi": 77,
          "time": 76,
          "velocity": 0.6062992125984252,
          "duration": 0.421875
        },
        {
          "name": "C6",
          "midi": 84,
          "time": 76,
          "velocity": 0.4015748031496063,
          "duration": 0.375
        },
        {
          "name": "A#4",
          "midi": 70,
          "time": 76.5,
          "velocity": 0.8818897637795275,
          "duration": 0.375
        },
        {
          "name": "C#5",
          "midi": 73,
          "time": 76.625,
          "velocity": 0.5118110236220472,
          "duration": 0.125
        },
        {
          "name": "F5",
          "midi": 77,
          "time": 76.75,
          "velocity": 0.5354330708661418,
          "duration": 0.5520833333333286
        },
        {
          "name": "A#4",
          "midi": 70,
          "time": 76.875,
          "velocity": 0.6929133858267716,
          "duration": 1.4947916666666714
        },
        {
          "name": "D#5",
          "midi": 75,
          "time": 76.875,
          "velocity": 0.4645669291338583,
          "duration": 0.1145833333333286
        },
        {
          "name": "C#5",
          "midi": 73,
          "time": 77,
          "velocity": 0.4645669291338583,
          "duration": 0.1458333333333286
        },
        {
          "name": "A#5",
          "midi": 82,
          "time": 77,
          "velocity": 0.36220472440944884,
          "duration": 0.625
        },
        {
          "name": "G#5",
          "midi": 80,
          "time": 77.125,
          "velocity": 0.48031496062992124,
          "duration": 0.0833333333333286
        },
        {
          "name": "D#5",
          "midi": 75,
          "time": 77.25,
          "velocity": 0.7716535433070866,
          "duration": 0.3697916666666714
        },
        {
          "name": "G#5",
          "midi": 80,
          "time": 77.375,
          "velocity": 0.4330708661417323,
          "duration": 0.234375
        },
        {
          "name": "C5",
          "midi": 72,
          "time": 77.5,
          "velocity": 0.7637795275590551,
          "duration": 0.3697916666666714
        },
        {
          "name": "D#5",
          "midi": 75,
          "time": 77.625,
          "velocity": 0.5275590551181102,
          "duration": 0.2708333333333286
        },
        {
          "name": "A#5",
          "midi": 82,
          "time": 77.625,
          "velocity": 0.25984251968503935,
          "duration": 1.8125
        },
        {
          "name": "C5",
          "midi": 72,
          "time": 77.875,
          "velocity": 0.6614173228346457,
          "duration": 0.375
        },
        {
          "name": "F4",
          "midi": 65,
          "time": 78.25,
          "velocity": 0.3700787401574803,
          "duration": 0.1770833333333286
        },
        {
          "name": "G#4",
          "midi": 68,
          "time": 78.25,
          "velocity": 0.5354330708661418,
          "duration": 0.1770833333333286
        },
        {
          "name": "A#4",
          "midi": 70,
          "time": 78.375,
          "velocity": 0.8110236220472441,
          "duration": 0.25
        },
        {
          "name": "C#5",
          "midi": 73,
          "time": 78.4375,
          "velocity": 0.4015748031496063,
          "duration": 0.1822916666666714
        },
        {
          "name": "G#5",
          "midi": 80,
          "time": 78.5,
          "velocity": 0.5984251968503937,
          "duration": 0.1822916666666714
        },
        {
          "name": "F4",
          "midi": 65,
          "time": 78.625,
          "velocity": 0.31496062992125984,
          "duration": 0.1875000000000142
        },
        {
          "name": "G#4",
          "midi": 68,
          "time": 78.625,
          "velocity": 0.3937007874015748,
          "duration": 0.18229166666668561
        },
        {
          "name": "A#4",
          "midi": 70,
          "time": 78.625,
          "velocity": 0.6692913385826772,
          "duration": 0.6197916666666714
        },
        {
          "name": "C#5",
          "midi": 73,
          "time": 78.625,
          "velocity": 0.44881889763779526,
          "duration": 0.11458333333334281
        },
        {
          "name": "F5",
          "midi": 77,
          "time": 78.625,
          "velocity": 0.6456692913385826,
          "duration": 0.2500000000000142
        },
        {
          "name": "D#5",
          "midi": 75,
          "time": 78.75000000000001,
          "velocity": 0.6456692913385826,
          "duration": 0.1510416666666714
        },
        {
          "name": "F5",
          "midi": 77,
          "time": 78.87500000000001,
          "velocity": 0.6456692913385826,
          "duration": 0.1614583333333286
        },
        {
          "name": "C5",
          "midi": 72,
          "time": 79.00000000000001,
          "velocity": 0.7480314960629921,
          "duration": 0.1770833333333286
        },
        {
          "name": "D#5",
          "midi": 75,
          "time": 79.12500000000001,
          "velocity": 0.7244094488188977,
          "duration": 0.20833333333331439
        },
        {
          "name": "A#4",
          "midi": 70,
          "time": 79.25,
          "velocity": 0.6456692913385826,
          "duration": 0.25
        },
        {
          "name": "C5",
          "midi": 72,
          "time": 79.375,
          "velocity": 0.5196850393700787,
          "duration": 0.1666666666666714
        },
        {
          "name": "G#5",
          "midi": 80,
          "time": 79.375,
          "velocity": 0.36220472440944884,
          "duration": 0.1145833333333286
        },
        {
          "name": "D#5",
          "midi": 75,
          "time": 79.5,
          "velocity": 0.6220472440944882,
          "duration": 0.2916666666666714
        },
        {
          "name": "F5",
          "midi": 77,
          "time": 79.5,
          "velocity": 0.6535433070866141,
          "duration": 0.25
        },
        {
          "name": "F#5",
          "midi": 78,
          "time": 79.5,
          "velocity": 0.5275590551181102,
          "duration": 0.3489583333333428
        },
        {
          "name": "A#4",
          "midi": 70,
          "time": 79.625,
          "velocity": 0.5511811023622047,
          "duration": 0.2604166666666856
        },
        {
          "name": "F5",
          "midi": 77,
          "time": 79.75,
          "velocity": 0.6929133858267716,
          "duration": 0.23958333333335702
        },
        {
          "name": "C5",
          "midi": 72,
          "time": 79.87500000000001,
          "velocity": 0.7401574803149606,
          "duration": 0.2500000000000142
        },
        {
          "name": "F3",
          "midi": 53,
          "time": 80.00000000000003,
          "velocity": 0.5511811023622047,
          "duration": 0.25
        },
        {
          "name": "G#3",
          "midi": 56,
          "time": 80.00000000000003,
          "velocity": 0.3937007874015748,
          "duration": 0.5520833333333144
        },
        {
          "name": "C#4",
          "midi": 61,
          "time": 80.00000000000003,
          "velocity": 0.5275590551181102,
          "duration": 0.8020833333333002
        },
        {
          "name": "D#5",
          "midi": 75,
          "time": 80.00000000000003,
          "velocity": 0.7244094488188977,
          "duration": 0.1822916666666714
        },
        {
          "name": "F5",
          "midi": 77,
          "time": 80.00000000000003,
          "velocity": 0.7007874015748031,
          "duration": 0.25
        },
        {
          "name": "C3",
          "midi": 48,
          "time": 80.12500000000003,
          "velocity": 0.49606299212598426,
          "duration": 0.2447916666666714
        },
        {
          "name": "A#4",
          "midi": 70,
          "time": 80.12500000000003,
          "velocity": 0.7086614173228346,
          "duration": 0.3697916666666572
        },
        {
          "name": "C5",
          "midi": 72,
          "time": 80.12500000000003,
          "velocity": 0.7716535433070866,
          "duration": 0.2447916666666714
        },
        {
          "name": "F3",
          "midi": 53,
          "time": 80.25000000000003,
          "velocity": 0.49606299212598426,
          "duration": 0.2447916666666572
        },
        {
          "name": "F5",
          "midi": 77,
          "time": 80.25000000000003,
          "velocity": 0.7244094488188977,
          "duration": 0.369791666666643
        },
        {
          "name": "C3",
          "midi": 48,
          "time": 80.37500000000003,
          "velocity": 0.48031496062992124,
          "duration": 0.1145833333333286
        },
        {
          "name": "C5",
          "midi": 72,
          "time": 80.37500000000003,
          "velocity": 0.6614173228346457,
          "duration": 0.276041666666643
        },
        {
          "name": "D#5",
          "midi": 75,
          "time": 80.37500000000003,
          "velocity": 0.6456692913385826,
          "duration": 0.6718749999999716
        },
        {
          "name": "F3",
          "midi": 53,
          "time": 80.50000000000001,
          "velocity": 0.5354330708661418,
          "duration": 0.2499999999999858
        },
        {
          "name": "A#4",
          "midi": 70,
          "time": 80.50000000000001,
          "velocity": 0.5039370078740157,
          "duration": 0.2864583333333144
        },
        {
          "name": "F3",
          "midi": 53,
          "time": 80.75,
          "velocity": 0.5511811023622047,
          "duration": 0.5104166666666714
        },
        {
          "name": "G#3",
          "midi": 56,
          "time": 80.75,
          "velocity": 0.5590551181102362,
          "duration": 0.2916666666666714
        },
        {
          "name": "A#5",
          "midi": 82,
          "time": 81,
          "velocity": 0.6220472440944882,
          "duration": 0.125
        },
        {
          "name": "F4",
          "midi": 65,
          "time": 81.125,
          "velocity": 0.6062992125984252,
          "duration": 0.9947916666666714
        },
        {
          "name": "G#3",
          "midi": 56,
          "time": 81.25,
          "velocity": 0.5118110236220472,
          "duration": 0.4895833333333286
        },
        {
          "name": "A#3",
          "midi": 58,
          "time": 81.25,
          "velocity": 0.6220472440944882,
          "duration": 0.2447916666666714
        },
        {
          "name": "C5",
          "midi": 72,
          "time": 81.25,
          "velocity": 0.7637795275590551,
          "duration": 0.3645833333333286
        },
        {
          "name": "A#3",
          "midi": 58,
          "time": 81.5,
          "velocity": 0.6062992125984252,
          "duration": 0.2916666666666714
        },
        {
          "name": "G#4",
          "midi": 68,
          "time": 81.5,
          "velocity": 0.4881889763779528,
          "duration": 0.359375
        },
        {
          "name": "C5",
          "midi": 72,
          "time": 81.625,
          "velocity": 0.5039370078740157,
          "duration": 0.2604166666666714
        },
        {
          "name": "G#3",
          "midi": 56,
          "time": 81.75,
          "velocity": 0.5590551181102362,
          "duration": 0.3020833333333286
        },
        {
          "name": "C4",
          "midi": 60,
          "time": 81.75,
          "velocity": 0.5354330708661418,
          "duration": 0.34375
        },
        {
          "name": "C#4",
          "midi": 61,
          "time": 82,
          "velocity": 0.7322834645669292,
          "duration": 0.2395833333333286
        },
        {
          "name": "F4",
          "midi": 65,
          "time": 82.125,
          "velocity": 0.5590551181102362,
          "duration": 0.328125
        },
        {
          "name": "G#3",
          "midi": 56,
          "time": 82.25,
          "velocity": 0.5118110236220472,
          "duration": 0.2968750000000142
        },
        {
          "name": "A#3",
          "midi": 58,
          "time": 82.25,
          "velocity": 0.44881889763779526,
          "duration": 0.1145833333333286
        },
        {
          "name": "C#4",
          "midi": 61,
          "time": 82.25,
          "velocity": 0.5669291338582677,
          "duration": 0.5208333333333428
        },
        {
          "name": "A#5",
          "midi": 82,
          "time": 82.25,
          "velocity": 0.5669291338582677,
          "duration": 0.2291666666666714
        },
        {
          "name": "F3",
          "midi": 53,
          "time": 82.375,
          "velocity": 0.4251968503937008,
          "duration": 0.1354166666666714
        },
        {
          "name": "F5",
          "midi": 77,
          "time": 82.375,
          "velocity": 0.5826771653543307,
          "duration": 0.1614583333333428
        },
        {
          "name": "A#3",
          "midi": 58,
          "time": 82.5,
          "velocity": 0.4881889763779528,
          "duration": 0.11979166666668561
        },
        {
          "name": "A#5",
          "midi": 82,
          "time": 82.5,
          "velocity": 0.5984251968503937,
          "duration": 0.317708333333357
        },
        {
          "name": "C6",
          "midi": 84,
          "time": 82.5,
          "velocity": 0.4330708661417323,
          "duration": 0.18229166666668561
        },
        {
          "name": "A#2",
          "midi": 46,
          "time": 82.62500000000001,
          "velocity": 0.49606299212598426,
          "duration": 0.15625
        },
        {
          "name": "A#4",
          "midi": 70,
          "time": 82.62500000000001,
          "velocity": 0.7401574803149606,
          "duration": 0.1666666666666714
        },
        {
          "name": "F3",
          "midi": 53,
          "time": 82.75000000000001,
          "velocity": 0.9133858267716536,
          "duration": 0.3750000000000142
        },
        {
          "name": "C3",
          "midi": 48,
          "time": 82.87500000000003,
          "velocity": 0.4251968503937008,
          "duration": 0.4479166666666714
        },
        {
          "name": "A#3",
          "midi": 58,
          "time": 82.87500000000003,
          "velocity": 0.6692913385826772,
          "duration": 0.1875
        },
        {
          "name": "C5",
          "midi": 72,
          "time": 82.87500000000003,
          "velocity": 0.6614173228346457,
          "duration": 0.7291666666666714
        },
        {
          "name": "G#3",
          "midi": 56,
          "time": 83.00000000000003,
          "velocity": 0.6377952755905512,
          "duration": 0.25
        },
        {
          "name": "A#4",
          "midi": 70,
          "time": 83.00000000000003,
          "velocity": 0.4409448818897638,
          "duration": 0.1458333333333286
        },
        {
          "name": "F3",
          "midi": 53,
          "time": 83.12500000000003,
          "velocity": 0.49606299212598426,
          "duration": 0.125
        },
        {
          "name": "F4",
          "midi": 65,
          "time": 83.12500000000003,
          "velocity": 0.6535433070866141,
          "duration": 0.8333333333333286
        },
        {
          "name": "F3",
          "midi": 53,
          "time": 83.25000000000003,
          "velocity": 0.44881889763779526,
          "duration": 0.28125
        },
        {
          "name": "G#3",
          "midi": 56,
          "time": 83.25000000000003,
          "velocity": 0.5984251968503937,
          "duration": 0.2916666666666714
        },
        {
          "name": "A#5",
          "midi": 82,
          "time": 83.25000000000003,
          "velocity": 0.5669291338582677,
          "duration": 0.34375
        },
        {
          "name": "G#2",
          "midi": 44,
          "time": 83.50000000000003,
          "velocity": 0.5275590551181102,
          "duration": 0.3697916666666714
        },
        {
          "name": "A#3",
          "midi": 58,
          "time": 83.50000000000003,
          "velocity": 0.5433070866141733,
          "duration": 0.5312499999999858
        },
        {
          "name": "G#4",
          "midi": 68,
          "time": 83.50000000000003,
          "velocity": 0.7007874015748031,
          "duration": 0.3697916666666714
        },
        {
          "name": "G#3",
          "midi": 56,
          "time": 83.75000000000003,
          "velocity": 0.8267716535433071,
          "duration": 0.2447916666666572
        },
        {
          "name": "F5",
          "midi": 77,
          "time": 83.75000000000003,
          "velocity": 0.6062992125984252,
          "duration": 0.2968749999999858
        },
        {
          "name": "G#2",
          "midi": 44,
          "time": 83.87500000000003,
          "velocity": 0.3937007874015748,
          "duration": 0.2864583333333144
        },
        {
          "name": "G#4",
          "midi": 68,
          "time": 83.87500000000003,
          "velocity": 0.5511811023622047,
          "duration": 0.307291666666643
        },
        {
          "name": "C3",
          "midi": 48,
          "time": 84.00000000000001,
          "velocity": 0.41732283464566927,
          "duration": 0.3749999999999858
        },
        {
          "name": "G#3",
          "midi": 56,
          "time": 84.00000000000001,
          "velocity": 0.5275590551181102,
          "duration": 1.0520833333333002
        },
        {
          "name": "C4",
          "midi": 60,
          "time": 84.00000000000001,
          "velocity": 0.6141732283464567,
          "duration": 0.3177083333333144
        },
        {
          "name": "C5",
          "midi": 72,
          "time": 84.00000000000001,
          "velocity": 0.6299212598425197,
          "duration": 0.3749999999999858
        },
        {
          "name": "F4",
          "midi": 65,
          "time": 84.12500000000001,
          "velocity": 0.6850393700787402,
          "duration": 0.5364583333333144
        },
        {
          "name": "F3",
          "midi": 53,
          "time": 84.25,
          "velocity": 0.4566929133858268,
          "duration": 0.3697916666666714
        },
        {
          "name": "C#4",
          "midi": 61,
          "time": 84.25,
          "velocity": 0.6220472440944882,
          "duration": 0.2447916666666714
        },
        {
          "name": "C3",
          "midi": 48,
          "time": 84.375,
          "velocity": 0.5196850393700787,
          "duration": 0.1197916666666714
        },
        {
          "name": "C5",
          "midi": 72,
          "time": 84.375,
          "velocity": 0.5905511811023622,
          "duration": 0.1197916666666714
        },
        {
          "name": "C3",
          "midi": 48,
          "time": 84.5,
          "velocity": 0.3858267716535433,
          "duration": 0.2916666666666714
        },
        {
          "name": "C#4",
          "midi": 61,
          "time": 84.5,
          "velocity": 0.5039370078740157,
          "duration": 0.3072916666666714
        },
        {
          "name": "C5",
          "midi": 72,
          "time": 84.5,
          "velocity": 0.7086614173228346,
          "duration": 0.375
        },
        {
          "name": "D#5",
          "midi": 75,
          "time": 84.5,
          "velocity": 0.5511811023622047,
          "duration": 0.15625
        },
        {
          "name": "F3",
          "midi": 53,
          "time": 84.625,
          "velocity": 0.33070866141732286,
          "duration": 0.3697916666666572
        },
        {
          "name": "C4",
          "midi": 60,
          "time": 84.625,
          "velocity": 0.44881889763779526,
          "duration": 0.3020833333333286
        },
        {
          "name": "D#4",
          "midi": 63,
          "time": 84.625,
          "velocity": 0.49606299212598426,
          "duration": 0.416666666666643
        },
        {
          "name": "F4",
          "midi": 65,
          "time": 84.6875,
          "velocity": 0.5984251968503937,
          "duration": 0.1875
        },
        {
          "name": "D#3",
          "midi": 51,
          "time": 84.875,
          "velocity": 0.36220472440944884,
          "duration": 0.16145833333331439
        },
        {
          "name": "F4",
          "midi": 65,
          "time": 84.875,
          "velocity": 0.4251968503937008,
          "duration": 0.3333333333333286
        },
        {
          "name": "C5",
          "midi": 72,
          "time": 84.875,
          "velocity": 0.47244094488188976,
          "duration": 0.2604166666666572
        },
        {
          "name": "D#5",
          "midi": 75,
          "time": 84.875,
          "velocity": 0.5748031496062992,
          "duration": 0.16666666666664298
        },
        {
          "name": "F3",
          "midi": 53,
          "time": 84.99999999999999,
          "velocity": 0.5118110236220472,
          "duration": 0.2447916666666714
        },
        {
          "name": "A#4",
          "midi": 70,
          "time": 84.99999999999999,
          "velocity": 0.5118110236220472,
          "duration": 0.328125
        },
        {
          "name": "F5",
          "midi": 77,
          "time": 85.12499999999999,
          "velocity": 0.5354330708661418,
          "duration": 0.140625
        },
        {
          "name": "F3",
          "midi": 53,
          "time": 85.24999999999999,
          "velocity": 0.49606299212598426,
          "duration": 1.0572916666666856
        },
        {
          "name": "G#3",
          "midi": 56,
          "time": 85.24999999999999,
          "velocity": 0.6299212598425197,
          "duration": 0.25
        },
        {
          "name": "A#3",
          "midi": 58,
          "time": 85.24999999999999,
          "velocity": 0.4409448818897638,
          "duration": 0.3489583333333286
        },
        {
          "name": "A#5",
          "midi": 82,
          "time": 85.24999999999999,
          "velocity": 0.5039370078740157,
          "duration": 0.21875
        },
        {
          "name": "G#3",
          "midi": 56,
          "time": 85.49999999999999,
          "velocity": 0.6929133858267716,
          "duration": 0.25
        },
        {
          "name": "F6",
          "midi": 89,
          "time": 85.62499999999999,
          "velocity": 0.49606299212598426,
          "duration": 0.203125
        },
        {
          "name": "G#3",
          "midi": 56,
          "time": 85.74999999999999,
          "velocity": 0.5039370078740157,
          "duration": 0.4895833333333428
        },
        {
          "name": "A#3",
          "midi": 58,
          "time": 85.74999999999999,
          "velocity": 0.5354330708661418,
          "duration": 0.5156250000000142
        },
        {
          "name": "F4",
          "midi": 65,
          "time": 85.99999999999999,
          "velocity": 0.6614173228346457,
          "duration": 0.6093750000000142
        },
        {
          "name": "D#5",
          "midi": 75,
          "time": 85.99999999999999,
          "velocity": 0.41732283464566927,
          "duration": 0.5312500000000142
        },
        {
          "name": "A#5",
          "midi": 82,
          "time": 85.99999999999999,
          "velocity": 0.5354330708661418,
          "duration": 0.1510416666666714
        },
        {
          "name": "G#3",
          "midi": 56,
          "time": 86.25,
          "velocity": 0.6299212598425197,
          "duration": 0.25
        },
        {
          "name": "C4",
          "midi": 60,
          "time": 86.25,
          "velocity": 0.5984251968503937,
          "duration": 0.25
        },
        {
          "name": "A#2",
          "midi": 46,
          "time": 86.5,
          "velocity": 0.4645669291338583,
          "duration": 0.28125
        },
        {
          "name": "G#3",
          "midi": 56,
          "time": 86.5,
          "velocity": 0.5354330708661418,
          "duration": 0.546875
        },
        {
          "name": "C4",
          "midi": 60,
          "time": 86.5,
          "velocity": 0.889763779527559,
          "duration": 0.2447916666666714
        },
        {
          "name": "A#4",
          "midi": 70,
          "time": 86.5,
          "velocity": 0.7086614173228346,
          "duration": 0.375
        },
        {
          "name": "F4",
          "midi": 65,
          "time": 86.625,
          "velocity": 0.7952755905511811,
          "duration": 0.4322916666666714
        },
        {
          "name": "C4",
          "midi": 60,
          "time": 86.75,
          "velocity": 0.8582677165354331,
          "duration": 0.15625
        },
        {
          "name": "C#4",
          "midi": 61,
          "time": 86.875,
          "velocity": 0.6062992125984252,
          "duration": 0.234375
        },
        {
          "name": "A#4",
          "midi": 70,
          "time": 86.875,
          "velocity": 0.7244094488188977,
          "duration": 0.2447916666666714
        },
        {
          "name": "D#4",
          "midi": 63,
          "time": 87,
          "velocity": 0.6850393700787402,
          "duration": 0.15625
        },
        {
          "name": "G#4",
          "midi": 68,
          "time": 87,
          "velocity": 0.5826771653543307,
          "duration": 0.15625
        },
        {
          "name": "A#2",
          "midi": 46,
          "time": 87.125,
          "velocity": 0.4094488188976378,
          "duration": 0.25
        },
        {
          "name": "C4",
          "midi": 60,
          "time": 87.125,
          "velocity": 0.6692913385826772,
          "duration": 0.1458333333333286
        },
        {
          "name": "A#4",
          "midi": 70,
          "time": 87.125,
          "velocity": 0.7401574803149606,
          "duration": 0.25
        },
        {
          "name": "D#5",
          "midi": 75,
          "time": 87.125,
          "velocity": 0.47244094488188976,
          "duration": 0.2708333333333286
        },
        {
          "name": "F3",
          "midi": 53,
          "time": 87.25,
          "velocity": 0.5905511811023622,
          "duration": 0.3645833333333428
        },
        {
          "name": "A#2",
          "midi": 46,
          "time": 87.375,
          "velocity": 0.4409448818897638,
          "duration": 0.3750000000000142
        },
        {
          "name": "A#4",
          "midi": 70,
          "time": 87.375,
          "velocity": 0.7244094488188977,
          "duration": 0.1666666666666714
        },
        {
          "name": "G#3",
          "midi": 56,
          "time": 87.5,
          "velocity": 0.6377952755905512,
          "duration": 0.2500000000000142
        },
        {
          "name": "C4",
          "midi": 60,
          "time": 87.5,
          "velocity": 0.5748031496062992,
          "duration": 0.1614583333333428
        },
        {
          "name": "F4",
          "midi": 65,
          "time": 87.5,
          "velocity": 0.7007874015748031,
          "duration": 0.1614583333333428
        },
        {
          "name": "C3",
          "midi": 48,
          "time": 87.62500000000001,
          "velocity": 0.4094488188976378,
          "duration": 0.1510416666666714
        },
        {
          "name": "F3",
          "midi": 53,
          "time": 87.62500000000001,
          "velocity": 0.44881889763779526,
          "duration": 0.4427083333333286
        },
        {
          "name": "A#2",
          "midi": 46,
          "time": 87.75000000000001,
          "velocity": 0.3228346456692913,
          "duration": 0.15625
        },
        {
          "name": "G#3",
          "midi": 56,
          "time": 87.75000000000001,
          "velocity": 0.6692913385826772,
          "duration": 0.3489583333333286
        },
        {
          "name": "D#4",
          "midi": 63,
          "time": 87.75000000000001,
          "velocity": 0.5905511811023622,
          "duration": 0.1614583333333286
        },
        {
          "name": "A#4",
          "midi": 70,
          "time": 87.75000000000001,
          "velocity": 0.5590551181102362,
          "duration": 0.1458333333333286
        },
        {
          "name": "F4",
          "midi": 65,
          "time": 87.87500000000001,
          "velocity": 0.7559055118110236,
          "duration": 0.546875
        },
        {
          "name": "C3",
          "midi": 48,
          "time": 88.00000000000001,
          "velocity": 0.5118110236220472,
          "duration": 0.1666666666666714
        },
        {
          "name": "A#3",
          "midi": 58,
          "time": 88.00000000000001,
          "velocity": 0.5669291338582677,
          "duration": 0.5572916666666714
        },
        {
          "name": "C5",
          "midi": 72,
          "time": 88.00000000000001,
          "velocity": 0.7716535433070866,
          "duration": 0.1666666666666714
        },
        {
          "name": "G#3",
          "midi": 56,
          "time": 88.12500000000001,
          "velocity": 0.6614173228346457,
          "duration": 0.375
        },
        {
          "name": "D#5",
          "midi": 75,
          "time": 88.12500000000001,
          "velocity": 0.7086614173228346,
          "duration": 0.1666666666666714
        },
        {
          "name": "F5",
          "midi": 77,
          "time": 88.25000000000001,
          "velocity": 0.6141732283464567,
          "duration": 0.1666666666666714
        },
        {
          "name": "A#4",
          "midi": 70,
          "time": 88.37500000000001,
          "velocity": 0.6456692913385826,
          "duration": 0.1822916666666714
        },
        {
          "name": "C5",
          "midi": 72,
          "time": 88.37500000000001,
          "velocity": 0.5433070866141733,
          "duration": 0.15625
        },
        {
          "name": "G#3",
          "midi": 56,
          "time": 88.50000000000001,
          "velocity": 0.7401574803149606,
          "duration": 0.8125
        },
        {
          "name": "C4",
          "midi": 60,
          "time": 88.50000000000001,
          "velocity": 0.5748031496062992,
          "duration": 0.3229166666666714
        },
        {
          "name": "F4",
          "midi": 65,
          "time": 88.62500000000001,
          "velocity": 0.5826771653543307,
          "duration": 0.2447916666666714
        },
        {
          "name": "C#4",
          "midi": 61,
          "time": 88.75000000000001,
          "velocity": 0.6771653543307087,
          "duration": 0.25
        },
        {
          "name": "A#4",
          "midi": 70,
          "time": 88.75000000000001,
          "velocity": 0.5433070866141733,
          "duration": 0.125
        },
        {
          "name": "C5",
          "midi": 72,
          "time": 88.75000000000001,
          "velocity": 0.7007874015748031,
          "duration": 0.171875
        },
        {
          "name": "F4",
          "midi": 65,
          "time": 88.87500000000001,
          "velocity": 0.4645669291338583,
          "duration": 0.375
        },
        {
          "name": "A#4",
          "midi": 70,
          "time": 88.87500000000001,
          "velocity": 0.5354330708661418,
          "duration": 0.1822916666666714
        },
        {
          "name": "D#5",
          "midi": 75,
          "time": 88.87500000000001,
          "velocity": 0.7086614173228346,
          "duration": 0.375
        },
        {
          "name": "C#4",
          "midi": 61,
          "time": 89.00000000000001,
          "velocity": 0.5984251968503937,
          "duration": 1.5364583333333286
        },
        {
          "name": "C5",
          "midi": 72,
          "time": 89.12500000000001,
          "velocity": 0.5590551181102362,
          "duration": 0.15625
        },
        {
          "name": "F5",
          "midi": 77,
          "time": 89.12500000000001,
          "velocity": 0.6929133858267716,
          "duration": 0.2447916666666714
        },
        {
          "name": "F4",
          "midi": 65,
          "time": 89.25000000000001,
          "velocity": 0.4015748031496063,
          "duration": 0.2239583333333286
        },
        {
          "name": "A#4",
          "midi": 70,
          "time": 89.25000000000001,
          "velocity": 0.3937007874015748,
          "duration": 0.1822916666666572
        },
        {
          "name": "D#5",
          "midi": 75,
          "time": 89.25000000000001,
          "velocity": 0.6062992125984252,
          "duration": 0.1614583333333286
        },
        {
          "name": "F5",
          "midi": 77,
          "time": 89.37500000000001,
          "velocity": 0.6850393700787402,
          "duration": 0.1979166666666714
        },
        {
          "name": "F3",
          "midi": 53,
          "time": 89.50000000000001,
          "velocity": 0.6456692913385826,
          "duration": 0.3697916666666572
        },
        {
          "name": "D#5",
          "midi": 75,
          "time": 89.62500000000001,
          "velocity": 0.7322834645669292,
          "duration": 0.1770833333333286
        },
        {
          "name": "G#3",
          "midi": 56,
          "time": 89.75000000000001,
          "velocity": 0.5669291338582677,
          "duration": 0.2812499999999858
        },
        {
          "name": "A#4",
          "midi": 70,
          "time": 89.75000000000001,
          "velocity": 0.6850393700787402,
          "duration": 0.3749999999999858
        },
        {
          "name": "F3",
          "midi": 53,
          "time": 89.875,
          "velocity": 0.5118110236220472,
          "duration": 0.4270833333333286
        },
        {
          "name": "D#5",
          "midi": 75,
          "time": 90,
          "velocity": 0.5905511811023622,
          "duration": 0.1666666666666714
        },
        {
          "name": "F5",
          "midi": 77,
          "time": 90,
          "velocity": 0.5433070866141733,
          "duration": 0.4270833333333428
        },
        {
          "name": "A#4",
          "midi": 70,
          "time": 90.125,
          "velocity": 0.4881889763779528,
          "duration": 0.2916666666666714
        },
        {
          "name": "A#3",
          "midi": 58,
          "time": 90.25,
          "velocity": 0.49606299212598426,
          "duration": 0.5468750000000142
        },
        {
          "name": "G#3",
          "midi": 56,
          "time": 90.375,
          "velocity": 0.5118110236220472,
          "duration": 0.3750000000000142
        },
        {
          "name": "D#5",
          "midi": 75,
          "time": 90.50000000000001,
          "velocity": 0.7244094488188977,
          "duration": 0.375
        },
        {
          "name": "G#3",
          "midi": 56,
          "time": 90.75000000000001,
          "velocity": 0.5118110236220472,
          "duration": 0.3020833333333286
        },
        {
          "name": "C4",
          "midi": 60,
          "time": 90.75000000000001,
          "velocity": 0.6377952755905512,
          "duration": 0.3229166666666572
        },
        {
          "name": "D#5",
          "midi": 75,
          "time": 90.87500000000001,
          "velocity": 0.5590551181102362,
          "duration": 0.2916666666666572
        },
        {
          "name": "C#4",
          "midi": 61,
          "time": 91.00000000000001,
          "velocity": 0.7322834645669292,
          "duration": 0.2499999999999858
        },
        {
          "name": "C5",
          "midi": 72,
          "time": 91.125,
          "velocity": 0.49606299212598426,
          "duration": 0.25
        },
        {
          "name": "C#4",
          "midi": 61,
          "time": 91.25,
          "velocity": 0.5905511811023622,
          "duration": 1.2708333333333144
        },
        {
          "name": "A#5",
          "midi": 82,
          "time": 91.25,
          "velocity": 0.5590551181102362,
          "duration": 0.3020833333333286
        },
        {
          "name": "F6",
          "midi": 89,
          "time": 91.5,
          "velocity": 0.5433070866141733,
          "duration": 0.390625
        },
        {
          "name": "F3",
          "midi": 53,
          "time": 91.75,
          "velocity": 0.5590551181102362,
          "duration": 0.3697916666666714
        },
        {
          "name": "G#3",
          "midi": 56,
          "time": 92,
          "velocity": 0.5748031496062992,
          "duration": 0.5572916666666572
        },
        {
          "name": "C5",
          "midi": 72,
          "time": 92,
          "velocity": 0.7007874015748031,
          "duration": 0.1666666666666714
        },
        {
          "name": "F3",
          "midi": 53,
          "time": 92.125,
          "velocity": 0.4015748031496063,
          "duration": 0.1979166666666572
        },
        {
          "name": "D#5",
          "midi": 75,
          "time": 92.125,
          "velocity": 0.7480314960629921,
          "duration": 0.1927083333333286
        },
        {
          "name": "F5",
          "midi": 77,
          "time": 92.25,
          "velocity": 0.6929133858267716,
          "duration": 0.1718749999999858
        },
        {
          "name": "A#4",
          "midi": 70,
          "time": 92.37499999999999,
          "velocity": 0.6692913385826772,
          "duration": 0.15625
        },
        {
          "name": "C5",
          "midi": 72,
          "time": 92.37499999999999,
          "velocity": 0.5905511811023622,
          "duration": 0.2552083333333428
        },
        {
          "name": "A#3",
          "midi": 58,
          "time": 92.49999999999999,
          "velocity": 0.5196850393700787,
          "duration": 0.5572916666666714
        },
        {
          "name": "D#5",
          "midi": 75,
          "time": 92.49999999999999,
          "velocity": 0.7401574803149606,
          "duration": 0.2447916666666714
        },
        {
          "name": "C5",
          "midi": 72,
          "time": 92.74999999999999,
          "velocity": 0.7401574803149606,
          "duration": 0.171875
        },
        {
          "name": "A#4",
          "midi": 70,
          "time": 92.87499999999999,
          "velocity": 0.4251968503937008,
          "duration": 0.1822916666666714
        },
        {
          "name": "D#5",
          "midi": 75,
          "time": 92.87499999999999,
          "velocity": 0.6850393700787402,
          "duration": 0.3697916666666714
        },
        {
          "name": "G#5",
          "midi": 80,
          "time": 92.87499999999999,
          "velocity": 0.49606299212598426,
          "duration": 0.296875
        },
        {
          "name": "G#3",
          "midi": 56,
          "time": 92.99999999999999,
          "velocity": 0.49606299212598426,
          "duration": 0.3072916666666714
        },
        {
          "name": "C4",
          "midi": 60,
          "time": 92.99999999999999,
          "velocity": 0.5433070866141733,
          "duration": 0.328125
        },
        {
          "name": "C5",
          "midi": 72,
          "time": 93.12499999999999,
          "velocity": 0.47244094488188976,
          "duration": 0.1822916666666714
        },
        {
          "name": "F5",
          "midi": 77,
          "time": 93.12499999999999,
          "velocity": 0.5826771653543307,
          "duration": 0.25
        },
        {
          "name": "C#4",
          "midi": 61,
          "time": 93.24999999999999,
          "velocity": 0.5984251968503937,
          "duration": 0.25
        },
        {
          "name": "D#5",
          "midi": 75,
          "time": 93.24999999999999,
          "velocity": 0.6929133858267716,
          "duration": 0.171875
        },
        {
          "name": "F5",
          "midi": 77,
          "time": 93.37499999999999,
          "velocity": 0.5039370078740157,
          "duration": 0.1510416666666714
        },
        {
          "name": "G#5",
          "midi": 80,
          "time": 93.37499999999999,
          "velocity": 0.48031496062992124,
          "duration": 0.6197916666666714
        },
        {
          "name": "A#5",
          "midi": 82,
          "time": 93.37499999999999,
          "velocity": 0.4566929133858268,
          "duration": 0.3697916666666714
        },
        {
          "name": "C#4",
          "midi": 61,
          "time": 93.49999999999999,
          "velocity": 0.5354330708661418,
          "duration": 1.2760416666666572
        },
        {
          "name": "C5",
          "midi": 72,
          "time": 93.49999999999999,
          "velocity": 0.6614173228346457,
          "duration": 0.171875
        },
        {
          "name": "D#5",
          "midi": 75,
          "time": 93.62499999999999,
          "velocity": 0.7480314960629921,
          "duration": 0.1822916666666714
        },
        {
          "name": "A#4",
          "midi": 70,
          "time": 93.74999999999999,
          "velocity": 0.7165354330708661,
          "duration": 0.375
        },
        {
          "name": "C5",
          "midi": 72,
          "time": 93.87499999999999,
          "velocity": 0.6299212598425197,
          "duration": 0.109375
        },
        {
          "name": "C3",
          "midi": 48,
          "time": 93.99999999999999,
          "velocity": 0.44881889763779526,
          "duration": 0.3697916666666572
        },
        {
          "name": "F3",
          "midi": 53,
          "time": 93.99999999999999,
          "velocity": 0.7480314960629921,
          "duration": 0.3020833333333286
        },
        {
          "name": "D#5",
          "midi": 75,
          "time": 93.99999999999999,
          "velocity": 0.5039370078740157,
          "duration": 0.1510416666666714
        },
        {
          "name": "A#4",
          "midi": 70,
          "time": 94.12499999999999,
          "velocity": 0.5275590551181102,
          "duration": 0.2968749999999858
        },
        {
          "name": "G#3",
          "midi": 56,
          "time": 94.24999999999999,
          "velocity": 0.5433070866141733,
          "duration": 0.5677083333333286
        },
        {
          "name": "F5",
          "midi": 77,
          "time": 94.24999999999999,
          "velocity": 0.6299212598425197,
          "duration": 0.2916666666666572
        },
        {
          "name": "C3",
          "midi": 48,
          "time": 94.37499999999997,
          "velocity": 0.3937007874015748,
          "duration": 0.125
        },
        {
          "name": "C5",
          "midi": 72,
          "time": 94.37499999999997,
          "velocity": 0.5826771653543307,
          "duration": 0.125
        },
        {
          "name": "C3",
          "midi": 48,
          "time": 94.49999999999997,
          "velocity": 0.4094488188976378,
          "duration": 0.3229166666666714
        },
        {
          "name": "C5",
          "midi": 72,
          "time": 94.49999999999997,
          "velocity": 0.7716535433070866,
          "duration": 0.25
        },
        {
          "name": "D#5",
          "midi": 75,
          "time": 94.49999999999997,
          "velocity": 0.7086614173228346,
          "duration": 0.3697916666666714
        },
        {
          "name": "A#3",
          "midi": 58,
          "time": 94.74999999999997,
          "velocity": 0.6771653543307087,
          "duration": 0.546875
        },
        {
          "name": "C5",
          "midi": 72,
          "time": 94.74999999999997,
          "velocity": 0.7480314960629921,
          "duration": 0.3697916666666714
        },
        {
          "name": "D#5",
          "midi": 75,
          "time": 94.87499999999997,
          "velocity": 0.7007874015748031,
          "duration": 0.3072916666666714
        },
        {
          "name": "F3",
          "midi": 53,
          "time": 94.99999999999997,
          "velocity": 0.4094488188976378,
          "duration": 0.328125
        },
        {
          "name": "G#3",
          "midi": 56,
          "time": 94.99999999999997,
          "velocity": 0.6220472440944882,
          "duration": 0.25
        },
        {
          "name": "C5",
          "midi": 72,
          "time": 95.12499999999997,
          "velocity": 0.5354330708661418,
          "duration": 0.2291666666666714
        },
        {
          "name": "F5",
          "midi": 77,
          "time": 95.12499999999997,
          "velocity": 0.5039370078740157,
          "duration": 0.1614583333333286
        },
        {
          "name": "G#3",
          "midi": 56,
          "time": 95.24999999999997,
          "velocity": 0.5905511811023622,
          "duration": 0.5572916666666714
        },
        {
          "name": "C4",
          "midi": 60,
          "time": 95.24999999999997,
          "velocity": 0.5826771653543307,
          "duration": 0.2916666666666714
        },
        {
          "name": "A#5",
          "midi": 82,
          "time": 95.24999999999997,
          "velocity": 0.5669291338582677,
          "duration": 0.2604166666666714
        },
        {
          "name": "C#4",
          "midi": 61,
          "time": 95.49999999999997,
          "velocity": 0.6692913385826772,
          "duration": 0.25
        },
        {
          "name": "F6",
          "midi": 89,
          "time": 95.49999999999997,
          "velocity": 0.48031496062992124,
          "duration": 0.1979166666666714
        },
        {
          "name": "A#3",
          "midi": 58,
          "time": 95.74999999999997,
          "velocity": 0.5748031496062992,
          "duration": 0.3072916666666714
        },
        {
          "name": "C#4",
          "midi": 61,
          "time": 95.74999999999997,
          "velocity": 0.5511811023622047,
          "duration": 0.8437500000000142
        },
        {
          "name": "F3",
          "midi": 53,
          "time": 95.99999999999997,
          "velocity": 0.5826771653543307,
          "duration": 0.25
        },
        {
          "name": "F5",
          "midi": 77,
          "time": 95.99999999999997,
          "velocity": 0.6377952755905512,
          "duration": 0.2916666666666714
        },
        {
          "name": "A#5",
          "midi": 82,
          "time": 95.99999999999997,
          "velocity": 0.6220472440944882,
          "duration": 0.2239583333333286
        },
        {
          "name": "G#5",
          "midi": 80,
          "time": 96.12499999999997,
          "velocity": 0.47244094488188976,
          "duration": 0.3645833333333428
        },
        {
          "name": "F3",
          "midi": 53,
          "time": 96.24999999999997,
          "velocity": 0.5118110236220472,
          "duration": 0.2864583333333428
        },
        {
          "name": "C4",
          "midi": 60,
          "time": 96.24999999999997,
          "velocity": 0.5590551181102362,
          "duration": 0.1979166666666714
        },
        {
          "name": "D#6",
          "midi": 87,
          "time": 96.37499999999997,
          "velocity": 0.6141732283464567,
          "duration": 0.1718750000000142
        },
        {
          "name": "A#2",
          "midi": 46,
          "time": 96.49999999999999,
          "velocity": 0.4251968503937008,
          "duration": 0.296875
        },
        {
          "name": "G#3",
          "midi": 56,
          "time": 96.49999999999999,
          "velocity": 0.5984251968503937,
          "duration": 0.5416666666666714
        },
        {
          "name": "A#4",
          "midi": 70,
          "time": 96.49999999999999,
          "velocity": 0.7637795275590551,
          "duration": 0.3645833333333286
        },
        {
          "name": "C6",
          "midi": 84,
          "time": 96.49999999999999,
          "velocity": 0.5748031496062992,
          "duration": 0.125
        },
        {
          "name": "F5",
          "midi": 77,
          "time": 96.62499999999999,
          "velocity": 0.6614173228346457,
          "duration": 0.1614583333333286
        },
        {
          "name": "F4",
          "midi": 65,
          "time": 96.74999999999999,
          "velocity": 0.7559055118110236,
          "duration": 0.1770833333333286
        },
        {
          "name": "G#5",
          "midi": 80,
          "time": 96.74999999999999,
          "velocity": 0.5354330708661418,
          "duration": 0.6666666666666714
        },
        {
          "name": "C#4",
          "midi": 61,
          "time": 96.87499999999999,
          "velocity": 0.4566929133858268,
          "duration": 0.3645833333333428
        },
        {
          "name": "A#4",
          "midi": 70,
          "time": 96.87499999999999,
          "velocity": 0.5905511811023622,
          "duration": 0.3072916666666714
        },
        {
          "name": "C5",
          "midi": 72,
          "time": 96.87499999999999,
          "velocity": 0.5984251968503937,
          "duration": 0.1666666666666714
        },
        {
          "name": "G#2",
          "midi": 44,
          "time": 96.99999999999999,
          "velocity": 0.3937007874015748,
          "duration": 0.125
        },
        {
          "name": "A#3",
          "midi": 58,
          "time": 96.99999999999999,
          "velocity": 0.6141732283464567,
          "duration": 0.2447916666666714
        },
        {
          "name": "G#4",
          "midi": 68,
          "time": 96.99999999999999,
          "velocity": 0.6614173228346457,
          "duration": 0.171875
        },
        {
          "name": "F3",
          "midi": 53,
          "time": 97.12499999999999,
          "velocity": 0.4094488188976378,
          "duration": 0.2395833333333286
        },
        {
          "name": "F4",
          "midi": 65,
          "time": 97.12499999999999,
          "velocity": 0.6456692913385826,
          "duration": 0.1614583333333286
        },
        {
          "name": "C3",
          "midi": 48,
          "time": 97.24999999999999,
          "velocity": 0.4330708661417323,
          "duration": 0.1875
        },
        {
          "name": "A#3",
          "midi": 58,
          "time": 97.24999999999999,
          "velocity": 0.5433070866141733,
          "duration": 0.28125
        },
        {
          "name": "C5",
          "midi": 72,
          "time": 97.24999999999999,
          "velocity": 0.48031496062992124,
          "duration": 0.1666666666666714
        },
        {
          "name": "G#2",
          "midi": 44,
          "time": 97.37499999999999,
          "velocity": 0.3937007874015748,
          "duration": 0.171875
        },
        {
          "name": "G#4",
          "midi": 68,
          "time": 97.37499999999999,
          "velocity": 0.4645669291338583,
          "duration": 0.171875
        },
        {
          "name": "G#3",
          "midi": 56,
          "time": 97.49999999999999,
          "velocity": 0.5590551181102362,
          "duration": 0.5364583333333286
        },
        {
          "name": "C4",
          "midi": 60,
          "time": 97.49999999999999,
          "velocity": 0.4881889763779528,
          "duration": 0.328125
        },
        {
          "name": "C#4",
          "midi": 61,
          "time": 97.74999999999999,
          "velocity": 0.6141732283464567,
          "duration": 0.25
        },
        {
          "name": "A#4",
          "midi": 70,
          "time": 97.74999999999999,
          "velocity": 0.49606299212598426,
          "duration": 0.453125
        },
        {
          "name": "C#4",
          "midi": 61,
          "time": 97.99999999999999,
          "velocity": 0.4645669291338583,
          "duration": 0.3072916666666714
        },
        {
          "name": "D#5",
          "midi": 75,
          "time": 97.99999999999999,
          "velocity": 0.5118110236220472,
          "duration": 0.25
        },
        {
          "name": "F5",
          "midi": 77,
          "time": 97.99999999999999,
          "velocity": 0.5039370078740157,
          "duration": 0.3385416666666714
        },
        {
          "name": "C6",
          "midi": 84,
          "time": 97.99999999999999,
          "velocity": 0.3937007874015748,
          "duration": 0.5989583333333286
        },
        {
          "name": "D#5",
          "midi": 75,
          "time": 98.24999999999999,
          "velocity": 0.5748031496062992,
          "duration": 0.08333333333334281
        },
        {
          "name": "A#4",
          "midi": 70,
          "time": 98.37499999999999,
          "velocity": 0.48031496062992124,
          "duration": 0.375
        },
        {
          "name": "F3",
          "midi": 53,
          "time": 98.49999999999999,
          "velocity": 0.4409448818897638,
          "duration": 0.2447916666666714
        },
        {
          "name": "D#5",
          "midi": 75,
          "time": 98.56249999999999,
          "velocity": 0.5039370078740157,
          "duration": 0.15625
        },
        {
          "name": "F3",
          "midi": 53,
          "time": 98.74999999999999,
          "velocity": 0.4566929133858268,
          "duration": 0.3072916666666714
        },
        {
          "name": "G#3",
          "midi": 56,
          "time": 98.74999999999999,
          "velocity": 0.6220472440944882,
          "duration": 0.5416666666666714
        },
        {
          "name": "A#4",
          "midi": 70,
          "time": 98.74999999999999,
          "velocity": 0.5118110236220472,
          "duration": 0.375
        },
        {
          "name": "A#5",
          "midi": 82,
          "time": 98.99999999999999,
          "velocity": 0.6535433070866141,
          "duration": 0.2291666666666714
        },
        {
          "name": "A#4",
          "midi": 70,
          "time": 99.12499999999999,
          "velocity": 0.5433070866141733,
          "duration": 0.2395833333333428
        },
        {
          "name": "A#3",
          "midi": 58,
          "time": 99.24999999999999,
          "velocity": 0.49606299212598426,
          "duration": 0.5364583333333428
        },
        {
          "name": "C6",
          "midi": 84,
          "time": 99.24999999999999,
          "velocity": 0.5511811023622047,
          "duration": 0.2760416666666856
        },
        {
          "name": "A#4",
          "midi": 70,
          "time": 99.375,
          "velocity": 0.5039370078740157,
          "duration": 0.625
        },
        {
          "name": "D#6",
          "midi": 87,
          "time": 99.5,
          "velocity": 0.5354330708661418,
          "duration": 0.265625
        },
        {
          "name": "G#3",
          "midi": 56,
          "time": 99.75,
          "velocity": 0.5433070866141733,
          "duration": 0.28125
        },
        {
          "name": "C4",
          "midi": 60,
          "time": 99.75,
          "velocity": 0.5590551181102362,
          "duration": 0.328125
        },
        {
          "name": "A#5",
          "midi": 82,
          "time": 99.75,
          "velocity": 0.4409448818897638,
          "duration": 0.15625
        },
        {
          "name": "C#4",
          "midi": 61,
          "time": 100,
          "velocity": 0.6614173228346457,
          "duration": 0.2447916666666714
        },
        {
          "name": "A#4",
          "midi": 70,
          "time": 100,
          "velocity": 0.6614173228346457,
          "duration": 0.109375
        },
        {
          "name": "A#4",
          "midi": 70,
          "time": 100.125,
          "velocity": 0.5275590551181102,
          "duration": 0.25
        },
        {
          "name": "C#4",
          "midi": 61,
          "time": 100.25,
          "velocity": 0.6062992125984252,
          "duration": 0.5625000000000142
        },
        {
          "name": "A#5",
          "midi": 82,
          "time": 100.25,
          "velocity": 0.5118110236220472,
          "duration": 0.4010416666666714
        },
        {
          "name": "A#4",
          "midi": 70,
          "time": 100.375,
          "velocity": 0.5905511811023622,
          "duration": 0.1666666666666714
        },
        {
          "name": "C5",
          "midi": 72,
          "time": 100.5,
          "velocity": 0.4645669291338583,
          "duration": 0.1354166666666714
        },
        {
          "name": "D#6",
          "midi": 87,
          "time": 100.5,
          "velocity": 0.5275590551181102,
          "duration": 0.1614583333333428
        },
        {
          "name": "C6",
          "midi": 84,
          "time": 100.625,
          "velocity": 0.6299212598425197,
          "duration": 0.2500000000000142
        },
        {
          "name": "F3",
          "midi": 53,
          "time": 100.75000000000001,
          "velocity": 0.5196850393700787,
          "duration": 0.2447916666666572
        },
        {
          "name": "A#4",
          "midi": 70,
          "time": 100.75000000000001,
          "velocity": 0.4566929133858268,
          "duration": 0.2447916666666572
        },
        {
          "name": "F5",
          "midi": 77,
          "time": 100.75000000000001,
          "velocity": 0.7165354330708661,
          "duration": 0.1614583333333286
        },
        {
          "name": "C6",
          "midi": 84,
          "time": 100.87500000000001,
          "velocity": 0.6377952755905512,
          "duration": 0.16145833333331439
        },
        {
          "name": "F3",
          "midi": 53,
          "time": 101,
          "velocity": 0.5511811023622047,
          "duration": 0.2916666666666714
        },
        {
          "name": "G#3",
          "midi": 56,
          "time": 101,
          "velocity": 0.6535433070866141,
          "duration": 0.25
        },
        {
          "name": "A#4",
          "midi": 70,
          "time": 101,
          "velocity": 0.5118110236220472,
          "duration": 0.25
        },
        {
          "name": "A#5",
          "midi": 82,
          "time": 101.125,
          "velocity": 0.4330708661417323,
          "duration": 0.3177083333333428
        },
        {
          "name": "G#3",
          "midi": 56,
          "time": 101.25,
          "velocity": 0.6299212598425197,
          "duration": 0.2656250000000142
        },
        {
          "name": "A#4",
          "midi": 70,
          "time": 101.25,
          "velocity": 0.5433070866141733,
          "duration": 0.8489583333333428
        },
        {
          "name": "A#3",
          "midi": 58,
          "time": 101.50000000000001,
          "velocity": 0.8661417322834646,
          "duration": 0.2708333333333286
        },
        {
          "name": "F3",
          "midi": 53,
          "time": 101.75000000000001,
          "velocity": 0.8110236220472441,
          "duration": 0.265625
        },
        {
          "name": "G#3",
          "midi": 56,
          "time": 102.00000000000001,
          "velocity": 0.6850393700787402,
          "duration": 0.25
        },
        {
          "name": "A#3",
          "midi": 58,
          "time": 102.00000000000001,
          "velocity": 0.7401574803149606,
          "duration": 0.1822916666666714
        },
        {
          "name": "C4",
          "midi": 60,
          "time": 102.00000000000001,
          "velocity": 0.8031496062992126,
          "duration": 0.3697916666666714
        },
        {
          "name": "F4",
          "midi": 65,
          "time": 102.00000000000001,
          "velocity": 0.4330708661417323,
          "duration": 0.15625
        },
        {
          "name": "G#3",
          "midi": 56,
          "time": 102.25000000000001,
          "velocity": 0.8346456692913385,
          "duration": 0.8020833333333286
        },
        {
          "name": "C#4",
          "midi": 61,
          "time": 102.25000000000001,
          "velocity": 0.6456692913385826,
          "duration": 0.25
        },
        {
          "name": "C4",
          "midi": 60,
          "time": 102.37500000000001,
          "velocity": 0.6771653543307087,
          "duration": 0.375
        },
        {
          "name": "F4",
          "midi": 65,
          "time": 102.37500000000001,
          "velocity": 0.49606299212598426,
          "duration": 0.25
        },
        {
          "name": "A#4",
          "midi": 70,
          "time": 102.37500000000001,
          "velocity": 0.5275590551181102,
          "duration": 0.359375
        },
        {
          "name": "C#4",
          "midi": 61,
          "time": 102.50000000000001,
          "velocity": 0.6850393700787402,
          "duration": 0.3697916666666714
        },
        {
          "name": "F4",
          "midi": 65,
          "time": 102.62500000000001,
          "velocity": 0.7716535433070866,
          "duration": 0.2447916666666714
        },
        {
          "name": "A#5",
          "midi": 82,
          "time": 102.62500000000001,
          "velocity": 0.5118110236220472,
          "duration": 0.5416666666666714
        },
        {
          "name": "C4",
          "midi": 60,
          "time": 102.75000000000001,
          "velocity": 0.8346456692913385,
          "duration": 0.25
        },
        {
          "name": "C#4",
          "midi": 61,
          "time": 102.87500000000001,
          "velocity": 0.6692913385826772,
          "duration": 0.1822916666666572
        },
        {
          "name": "F4",
          "midi": 65,
          "time": 102.87500000000001,
          "velocity": 0.8031496062992126,
          "duration": 0.2395833333333286
        },
        {
          "name": "A#4",
          "midi": 70,
          "time": 102.87500000000001,
          "velocity": 0.5118110236220472,
          "duration": 0.4895833333333286
        },
        {
          "name": "F3",
          "midi": 53,
          "time": 103.00000000000001,
          "velocity": 0.5669291338582677,
          "duration": 0.3645833333333286
        },
        {
          "name": "C4",
          "midi": 60,
          "time": 103.00000000000001,
          "velocity": 0.7795275590551181,
          "duration": 0.3645833333333286
        },
        {
          "name": "F4",
          "midi": 65,
          "time": 103.12500000000001,
          "velocity": 0.7322834645669292,
          "duration": 0.375
        },
        {
          "name": "G#3",
          "midi": 56,
          "time": 103.25000000000001,
          "velocity": 0.5511811023622047,
          "duration": 0.25
        },
        {
          "name": "D#4",
          "midi": 63,
          "time": 103.25000000000001,
          "velocity": 0.6535433070866141,
          "duration": 0.1510416666666714
        },
        {
          "name": "A#2",
          "midi": 46,
          "time": 103.37500000000001,
          "velocity": 0.44881889763779526,
          "duration": 0.25
        },
        {
          "name": "F3",
          "midi": 53,
          "time": 103.37500000000001,
          "velocity": 0.5039370078740157,
          "duration": 0.1927083333333286
        },
        {
          "name": "C4",
          "midi": 60,
          "time": 103.37500000000001,
          "velocity": 0.6377952755905512,
          "duration": 0.15625
        },
        {
          "name": "A#4",
          "midi": 70,
          "time": 103.37500000000001,
          "velocity": 0.7244094488188977,
          "duration": 0.25
        },
        {
          "name": "G#3",
          "midi": 56,
          "time": 103.50000000000001,
          "velocity": 0.6299212598425197,
          "duration": 0.296875
        },
        {
          "name": "F4",
          "midi": 65,
          "time": 103.50000000000001,
          "velocity": 0.6299212598425197,
          "duration": 0.2395833333333286
        },
        {
          "name": "A#2",
          "midi": 46,
          "time": 103.62500000000001,
          "velocity": 0.5039370078740157,
          "duration": 0.3489583333333286
        },
        {
          "name": "A#4",
          "midi": 70,
          "time": 103.62500000000001,
          "velocity": 0.7874015748031497,
          "duration": 0.1458333333333286
        },
        {
          "name": "A#3",
          "midi": 58,
          "time": 103.75000000000001,
          "velocity": 0.5354330708661418,
          "duration": 0.546875
        },
        {
          "name": "F4",
          "midi": 65,
          "time": 103.75000000000001,
          "velocity": 0.7401574803149606,
          "duration": 0.375
        },
        {
          "name": "G#5",
          "midi": 80,
          "time": 103.75000000000001,
          "velocity": 0.4881889763779528,
          "duration": 0.421875
        },
        {
          "name": "C5",
          "midi": 72,
          "time": 103.87500000000001,
          "velocity": 0.6141732283464567,
          "duration": 0.125
        },
        {
          "name": "A#2",
          "midi": 46,
          "time": 104.00000000000001,
          "velocity": 0.41732283464566927,
          "duration": 0.1822916666666714
        },
        {
          "name": "D#3",
          "midi": 51,
          "time": 104.00000000000001,
          "velocity": 0.4409448818897638,
          "duration": 0.5677083333333428
        },
        {
          "name": "G#3",
          "midi": 56,
          "time": 104.00000000000001,
          "velocity": 0.6062992125984252,
          "duration": 0.25
        },
        {
          "name": "D#5",
          "midi": 75,
          "time": 104.00000000000001,
          "velocity": 0.7795275590551181,
          "duration": 0.6250000000000142
        },
        {
          "name": "F4",
          "midi": 65,
          "time": 104.12500000000001,
          "velocity": 0.6299212598425197,
          "duration": 0.15625
        },
        {
          "name": "A#4",
          "midi": 70,
          "time": 104.12500000000001,
          "velocity": 0.5354330708661418,
          "duration": 0.359375
        },
        {
          "name": "G#3",
          "midi": 56,
          "time": 104.25000000000001,
          "velocity": 0.6456692913385826,
          "duration": 0.2916666666666714
        },
        {
          "name": "C4",
          "midi": 60,
          "time": 104.25000000000001,
          "velocity": 0.6771653543307087,
          "duration": 0.3750000000000142
        },
        {
          "name": "F3",
          "midi": 53,
          "time": 104.50000000000001,
          "velocity": 0.6141732283464567,
          "duration": 0.2447916666666714
        },
        {
          "name": "A#5",
          "midi": 82,
          "time": 104.50000000000001,
          "velocity": 0.48031496062992124,
          "duration": 0.296875
        },
        {
          "name": "C4",
          "midi": 60,
          "time": 104.62500000000003,
          "velocity": 0.6220472440944882,
          "duration": 0.1666666666666572
        },
        {
          "name": "A#4",
          "midi": 70,
          "time": 104.62500000000003,
          "velocity": 0.4330708661417323,
          "duration": 0.3802083333333144
        },
        {
          "name": "D#5",
          "midi": 75,
          "time": 104.62500000000003,
          "velocity": 0.5984251968503937,
          "duration": 0.0989583333333286
        },
        {
          "name": "F3",
          "midi": 53,
          "time": 104.75000000000001,
          "velocity": 0.5039370078740157,
          "duration": 0.3697916666666572
        },
        {
          "name": "F5",
          "midi": 77,
          "time": 104.75000000000001,
          "velocity": 0.5826771653543307,
          "duration": 0.1197916666666714
        },
        {
          "name": "C#4",
          "midi": 61,
          "time": 104.87500000000001,
          "velocity": 0.5590551181102362,
          "duration": 0.2656249999999858
        },
        {
          "name": "F5",
          "midi": 77,
          "time": 105.00000000000001,
          "velocity": 0.5826771653543307,
          "duration": 0.3281249999999858
        },
        {
          "name": "F3",
          "midi": 53,
          "time": 105.125,
          "velocity": 0.4094488188976378,
          "duration": 0.1197916666666714
        },
        {
          "name": "G#4",
          "midi": 68,
          "time": 105.125,
          "velocity": 0.4881889763779528,
          "duration": 0.3177083333333428
        },
        {
          "name": "A#5",
          "midi": 82,
          "time": 105.125,
          "velocity": 0.41732283464566927,
          "duration": 0.2760416666666714
        },
        {
          "name": "F3",
          "midi": 53,
          "time": 105.25,
          "velocity": 0.5669291338582677,
          "duration": 0.2812500000000142
        },
        {
          "name": "G#5",
          "midi": 80,
          "time": 105.25,
          "velocity": 0.41732283464566927,
          "duration": 0.2864583333333428
        },
        {
          "name": "D#5",
          "midi": 75,
          "time": 105.375,
          "velocity": 0.4330708661417323,
          "duration": 0.3385416666666714
        },
        {
          "name": "G#3",
          "midi": 56,
          "time": 105.50000000000001,
          "velocity": 0.6535433070866141,
          "duration": 0.375
        },
        {
          "name": "A#3",
          "midi": 58,
          "time": 105.50000000000001,
          "velocity": 0.4251968503937008,
          "duration": 0.1927083333333286
        },
        {
          "name": "A#4",
          "midi": 70,
          "time": 105.50000000000001,
          "velocity": 0.6456692913385826,
          "duration": 0.2395833333333286
        },
        {
          "name": "G#4",
          "midi": 68,
          "time": 105.62500000000001,
          "velocity": 0.5196850393700787,
          "duration": 0.3802083333333286
        },
        {
          "name": "F4",
          "midi": 65,
          "time": 105.75000000000001,
          "velocity": 0.3937007874015748,
          "duration": 0.3333333333333286
        },
        {
          "name": "F5",
          "midi": 77,
          "time": 105.75000000000001,
          "velocity": 0.6299212598425197,
          "duration": 0.3697916666666572
        },
        {
          "name": "G#3",
          "midi": 56,
          "time": 105.87500000000001,
          "velocity": 0.6062992125984252,
          "duration": 0.1458333333333286
        },
        {
          "name": "A#3",
          "midi": 58,
          "time": 106.00000000000001,
          "velocity": 0.5748031496062992,
          "duration": 0.3958333333333144
        },
        {
          "name": "C4",
          "midi": 60,
          "time": 106.00000000000001,
          "velocity": 0.47244094488188976,
          "duration": 0.14583333333331439
        },
        {
          "name": "C5",
          "midi": 72,
          "time": 106.00000000000001,
          "velocity": 0.5118110236220472,
          "duration": 0.2343749999999858
        },
        {
          "name": "F3",
          "midi": 53,
          "time": 106.125,
          "velocity": 0.4251968503937008,
          "duration": 0.265625
        },
        {
          "name": "A#2",
          "midi": 46,
          "time": 106.25,
          "velocity": 0.4330708661417323,
          "duration": 0.2864583333333144
        },
        {
          "name": "A#4",
          "midi": 70,
          "time": 106.25,
          "velocity": 0.7244094488188977,
          "duration": 0.369791666666643
        },
        {
          "name": "C4",
          "midi": 60,
          "time": 106.375,
          "velocity": 0.48031496062992124,
          "duration": 0.11979166666665719
        },
        {
          "name": "G#3",
          "midi": 56,
          "time": 106.49999999999999,
          "velocity": 0.6062992125984252,
          "duration": 0.8124999999999716
        },
        {
          "name": "C4",
          "midi": 60,
          "time": 106.49999999999999,
          "velocity": 0.6220472440944882,
          "duration": 0.5989583333333002
        },
        {
          "name": "F4",
          "midi": 65,
          "time": 106.49999999999999,
          "velocity": 0.6850393700787402,
          "duration": 0.1666666666666572
        },
        {
          "name": "C3",
          "midi": 48,
          "time": 106.62499999999997,
          "velocity": 0.4015748031496063,
          "duration": 0.1822916666666572
        },
        {
          "name": "G#4",
          "midi": 68,
          "time": 106.62499999999997,
          "velocity": 0.5511811023622047,
          "duration": 0.3749999999999858
        },
        {
          "name": "A#4",
          "midi": 70,
          "time": 106.62499999999997,
          "velocity": 0.4881889763779528,
          "duration": 0.2708333333333144
        },
        {
          "name": "C5",
          "midi": 72,
          "time": 106.62499999999997,
          "velocity": 0.5669291338582677,
          "duration": 0.1770833333333286
        },
        {
          "name": "G#2",
          "midi": 44,
          "time": 106.74999999999997,
          "velocity": 0.5748031496062992,
          "duration": 0.1718749999999858
        },
        {
          "name": "C#4",
          "midi": 61,
          "time": 106.81249999999996,
          "velocity": 0.5511811023622047,
          "duration": 0.1875
        },
        {
          "name": "F4",
          "midi": 65,
          "time": 106.87499999999996,
          "velocity": 0.7874015748031497,
          "duration": 0.1614583333333286
        },
        {
          "name": "C#4",
          "midi": 61,
          "time": 106.99999999999996,
          "velocity": 0.5039370078740157,
          "duration": 0.3645833333333286
        },
        {
          "name": "G#4",
          "midi": 68,
          "time": 106.99999999999996,
          "velocity": 0.5433070866141733,
          "duration": 0.6458333333333002
        },
        {
          "name": "C5",
          "midi": 72,
          "time": 106.99999999999996,
          "velocity": 0.6692913385826772,
          "duration": 0.3697916666666572
        },
        {
          "name": "C3",
          "midi": 48,
          "time": 107.12499999999996,
          "velocity": 0.4330708661417323,
          "duration": 0.2499999999999858
        },
        {
          "name": "F3",
          "midi": 53,
          "time": 107.12499999999996,
          "velocity": 0.6929133858267716,
          "duration": 0.369791666666643
        },
        {
          "name": "D#5",
          "midi": 75,
          "time": 107.12499999999996,
          "velocity": 0.5748031496062992,
          "duration": 0.3906249999999716
        },
        {
          "name": "C3",
          "midi": 48,
          "time": 107.37499999999994,
          "velocity": 0.4094488188976378,
          "duration": 0.4374999999999858
        },
        {
          "name": "C5",
          "midi": 72,
          "time": 107.37499999999994,
          "velocity": 0.4566929133858268,
          "duration": 0.0989583333333286
        },
        {
          "name": "F3",
          "midi": 53,
          "time": 107.49999999999993,
          "velocity": 0.5984251968503937,
          "duration": 0.25
        },
        {
          "name": "A#5",
          "midi": 82,
          "time": 107.49999999999993,
          "velocity": 0.4330708661417323,
          "duration": 0.234375
        },
        {
          "name": "F3",
          "midi": 53,
          "time": 107.74999999999993,
          "velocity": 0.7401574803149606,
          "duration": 0.296875
        },
        {
          "name": "G#3",
          "midi": 56,
          "time": 107.74999999999993,
          "velocity": 0.6850393700787402,
          "duration": 0.25
        },
        {
          "name": "C5",
          "midi": 72,
          "time": 107.87499999999993,
          "velocity": 0.5275590551181102,
          "duration": 0.328125
        },
        {
          "name": "G#3",
          "midi": 56,
          "time": 107.99999999999993,
          "velocity": 0.8346456692913385,
          "duration": 0.28125
        },
        {
          "name": "D#3",
          "midi": 51,
          "time": 108.12499999999993,
          "velocity": 0.4251968503937008,
          "duration": 0.40625
        },
        {
          "name": "A#3",
          "midi": 58,
          "time": 108.24999999999993,
          "velocity": 0.6220472440944882,
          "duration": 0.5416666666666714
        },
        {
          "name": "G#4",
          "midi": 68,
          "time": 108.24999999999993,
          "velocity": 0.5118110236220472,
          "duration": 0.3697916666666714
        },
        {
          "name": "G#3",
          "midi": 56,
          "time": 108.49999999999993,
          "velocity": 0.6062992125984252,
          "duration": 0.2447916666666714
        },
        {
          "name": "D#4",
          "midi": 63,
          "time": 108.49999999999993,
          "velocity": 0.7480314960629921,
          "duration": 0.140625
        },
        {
          "name": "F4",
          "midi": 65,
          "time": 108.62499999999993,
          "velocity": 0.5354330708661418,
          "duration": 0.1666666666666714
        },
        {
          "name": "G#4",
          "midi": 68,
          "time": 108.62499999999993,
          "velocity": 0.4251968503937008,
          "duration": 0.9999999999999858
        },
        {
          "name": "F3",
          "midi": 53,
          "time": 108.74999999999993,
          "velocity": 0.6692913385826772,
          "duration": 0.7916666666666572
        },
        {
          "name": "G#3",
          "midi": 56,
          "time": 108.74999999999993,
          "velocity": 0.7795275590551181,
          "duration": 0.3697916666666714
        },
        {
          "name": "C4",
          "midi": 60,
          "time": 108.74999999999993,
          "velocity": 0.5118110236220472,
          "duration": 0.484375
        },
        {
          "name": "G#5",
          "midi": 80,
          "time": 108.87499999999993,
          "velocity": 0.4094488188976378,
          "duration": 0.59375
        },
        {
          "name": "C#4",
          "midi": 61,
          "time": 108.99999999999993,
          "velocity": 0.5590551181102362,
          "duration": 0.2447916666666714
        },
        {
          "name": "C5",
          "midi": 72,
          "time": 108.99999999999993,
          "velocity": 0.30708661417322836,
          "duration": 0.5364583333333286
        },
        {
          "name": "G#3",
          "midi": 56,
          "time": 109.12499999999993,
          "velocity": 0.5669291338582677,
          "duration": 0.171875
        },
        {
          "name": "C#4",
          "midi": 61,
          "time": 109.24999999999993,
          "velocity": 0.49606299212598426,
          "duration": 0.3697916666666572
        },
        {
          "name": "A#3",
          "midi": 58,
          "time": 109.49999999999993,
          "velocity": 0.4566929133858268,
          "duration": 0.291666666666643
        },
        {
          "name": "F4",
          "midi": 65,
          "time": 109.49999999999993,
          "velocity": 0.5669291338582677,
          "duration": 0.11979166666665719
        },
        {
          "name": "A#5",
          "midi": 82,
          "time": 109.49999999999993,
          "velocity": 0.5118110236220472,
          "duration": 0.2864583333333144
        },
        {
          "name": "D#4",
          "midi": 63,
          "time": 109.62499999999991,
          "velocity": 0.41732283464566927,
          "duration": 0.1458333333333286
        },
        {
          "name": "G#4",
          "midi": 68,
          "time": 109.62499999999991,
          "velocity": 0.3700787401574803,
          "duration": 0.416666666666643
        },
        {
          "name": "F3",
          "midi": 53,
          "time": 109.74999999999991,
          "velocity": 0.5669291338582677,
          "duration": 0.369791666666643
        },
        {
          "name": "G#5",
          "midi": 80,
          "time": 109.74999999999991,
          "velocity": 0.44881889763779526,
          "duration": 0.2708333333333144
        },
        {
          "name": "F4",
          "midi": 65,
          "time": 109.8749999999999,
          "velocity": 0.5748031496062992,
          "duration": 0.2499999999999858
        },
        {
          "name": "G#3",
          "midi": 56,
          "time": 109.9999999999999,
          "velocity": 0.7795275590551181,
          "duration": 0.5416666666666572
        },
        {
          "name": "A#4",
          "midi": 70,
          "time": 109.9999999999999,
          "velocity": 0.5511811023622047,
          "duration": 0.2499999999999858
        },
        {
          "name": "F3",
          "midi": 53,
          "time": 110.12499999999989,
          "velocity": 0.4566929133858268,
          "duration": 0.1979166666666714
        },
        {
          "name": "F5",
          "midi": 77,
          "time": 110.12499999999989,
          "velocity": 0.6141732283464567,
          "duration": 0.1510416666666714
        },
        {
          "name": "A#2",
          "midi": 46,
          "time": 110.24999999999989,
          "velocity": 0.4015748031496063,
          "duration": 0.1770833333333428
        },
        {
          "name": "A#4",
          "midi": 70,
          "time": 110.24999999999989,
          "velocity": 0.7322834645669292,
          "duration": 0.1666666666666714
        },
        {
          "name": "C5",
          "midi": 72,
          "time": 110.24999999999989,
          "velocity": 0.6929133858267716,
          "duration": 0.2447916666666714
        },
        {
          "name": "F4",
          "midi": 65,
          "time": 110.37499999999989,
          "velocity": 0.6929133858267716,
          "duration": 0.15625
        },
        {
          "name": "D#5",
          "midi": 75,
          "time": 110.37499999999989,
          "velocity": 0.5669291338582677,
          "duration": 0.6145833333333286
        },
        {
          "name": "C3",
          "midi": 48,
          "time": 110.49999999999989,
          "velocity": 0.4330708661417323,
          "duration": 0.1770833333333286
        },
        {
          "name": "A#3",
          "midi": 58,
          "time": 110.49999999999989,
          "velocity": 0.5275590551181102,
          "duration": 0.5520833333333286
        },
        {
          "name": "C5",
          "midi": 72,
          "time": 110.49999999999989,
          "velocity": 0.6299212598425197,
          "duration": 0.3697916666666714
        },
        {
          "name": "G#2",
          "midi": 44,
          "time": 110.62499999999989,
          "velocity": 0.3779527559055118,
          "duration": 0.171875
        },
        {
          "name": "G#4",
          "midi": 68,
          "time": 110.62499999999989,
          "velocity": 0.6220472440944882,
          "duration": 0.1614583333333286
        },
        {
          "name": "A#4",
          "midi": 70,
          "time": 110.62499999999989,
          "velocity": 0.4409448818897638,
          "duration": 0.2708333333333286
        },
        {
          "name": "G#3",
          "midi": 56,
          "time": 110.74999999999989,
          "velocity": 0.5433070866141733,
          "duration": 0.25
        },
        {
          "name": "F4",
          "midi": 65,
          "time": 110.74999999999989,
          "velocity": 0.5748031496062992,
          "duration": 0.171875
        },
        {
          "name": "C3",
          "midi": 48,
          "time": 110.87499999999989,
          "velocity": 0.4015748031496063,
          "duration": 0.1614583333333286
        },
        {
          "name": "C5",
          "midi": 72,
          "time": 110.87499999999989,
          "velocity": 0.48031496062992124,
          "duration": 0.1822916666666572
        },
        {
          "name": "G#2",
          "midi": 44,
          "time": 110.99999999999989,
          "velocity": 0.33858267716535434,
          "duration": 0.2031249999999858
        },
        {
          "name": "F3",
          "midi": 53,
          "time": 110.99999999999989,
          "velocity": 0.31496062992125984,
          "duration": 0.2604166666666572
        },
        {
          "name": "G#3",
          "midi": 56,
          "time": 110.99999999999989,
          "velocity": 0.6850393700787402,
          "duration": 0.3697916666666572
        },
        {
          "name": "C4",
          "midi": 60,
          "time": 110.99999999999989,
          "velocity": 0.5669291338582677,
          "duration": 0.3281249999999858
        },
        {
          "name": "F5",
          "midi": 77,
          "time": 110.99999999999989,
          "velocity": 0.7637795275590551,
          "duration": 0.2499999999999858
        },
        {
          "name": "F4",
          "midi": 65,
          "time": 111.12499999999987,
          "velocity": 0.41732283464566927,
          "duration": 0.1510416666666714
        },
        {
          "name": "C#4",
          "midi": 61,
          "time": 111.24999999999987,
          "velocity": 0.5196850393700787,
          "duration": 0.5052083333333286
        },
        {
          "name": "C5",
          "midi": 72,
          "time": 111.24999999999987,
          "velocity": 0.6535433070866141,
          "duration": 0.3697916666666714
        },
        {
          "name": "F5",
          "midi": 77,
          "time": 111.24999999999987,
          "velocity": 0.6535433070866141,
          "duration": 0.5364583333333286
        },
        {
          "name": "C3",
          "midi": 48,
          "time": 111.37499999999987,
          "velocity": 0.3858267716535433,
          "duration": 0.25
        },
        {
          "name": "G#3",
          "midi": 56,
          "time": 111.37499999999987,
          "velocity": 0.4645669291338583,
          "duration": 0.1510416666666714
        },
        {
          "name": "A#4",
          "midi": 70,
          "time": 111.37499999999987,
          "velocity": 0.4645669291338583,
          "duration": 0.125
        },
        {
          "name": "F3",
          "midi": 53,
          "time": 111.49999999999987,
          "velocity": 0.4015748031496063,
          "duration": 0.2864583333333286
        },
        {
          "name": "A#4",
          "midi": 70,
          "time": 111.49999999999987,
          "velocity": 0.6614173228346457,
          "duration": 0.375
        },
        {
          "name": "C3",
          "midi": 48,
          "time": 111.62499999999987,
          "velocity": 0.4409448818897638,
          "duration": 0.3020833333333286
        },
        {
          "name": "C5",
          "midi": 72,
          "time": 111.62499999999987,
          "velocity": 0.5275590551181102,
          "duration": 0.3020833333333286
        },
        {
          "name": "D#3",
          "midi": 51,
          "time": 111.74999999999987,
          "velocity": 0.4094488188976378,
          "duration": 0.3177083333333286
        },
        {
          "name": "D#5",
          "midi": 75,
          "time": 111.74999999999987,
          "velocity": 0.6456692913385826,
          "duration": 0.375
        },
        {
          "name": "A#4",
          "midi": 70,
          "time": 111.87499999999987,
          "velocity": 0.7165354330708661,
          "duration": 0.3177083333333286
        },
        {
          "name": "F3",
          "midi": 53,
          "time": 111.99999999999987,
          "velocity": 0.5748031496062992,
          "duration": 0.375
        },
        {
          "name": "A#3",
          "midi": 58,
          "time": 111.99999999999987,
          "velocity": 0.48031496062992124,
          "duration": 0.359375
        },
        {
          "name": "F5",
          "midi": 77,
          "time": 111.99999999999987,
          "velocity": 0.6692913385826772,
          "duration": 0.28125
        },
        {
          "name": "D#5",
          "midi": 75,
          "time": 112.12499999999987,
          "velocity": 0.6850393700787402,
          "duration": 0.2604166666666714
        },
        {
          "name": "G#3",
          "midi": 56,
          "time": 112.24999999999987,
          "velocity": 0.5984251968503937,
          "duration": 0.3072916666666714
        },
        {
          "name": "F3",
          "midi": 53,
          "time": 112.37499999999987,
          "velocity": 0.41732283464566927,
          "duration": 0.4270833333333286
        },
        {
          "name": "A#4",
          "midi": 70,
          "time": 112.49999999999987,
          "velocity": 0.5354330708661418,
          "duration": 0.484375
        },
        {
          "name": "C#5",
          "midi": 73,
          "time": 112.49999999999987,
          "velocity": 0.5354330708661418,
          "duration": 0.2552083333333286
        },
        {
          "name": "A#3",
          "midi": 58,
          "time": 112.74999999999987,
          "velocity": 0.5433070866141733,
          "duration": 0.5625
        },
        {
          "name": "C5",
          "midi": 72,
          "time": 112.74999999999987,
          "velocity": 0.7322834645669292,
          "duration": 0.25
        },
        {
          "name": "C5",
          "midi": 72,
          "time": 113.12499999999987,
          "velocity": 0.7559055118110236,
          "duration": 0.1927083333333286
        },
        {
          "name": "G#3",
          "midi": 56,
          "time": 113.24999999999987,
          "velocity": 0.49606299212598426,
          "duration": 0.8072916666666572
        },
        {
          "name": "C4",
          "midi": 60,
          "time": 113.24999999999987,
          "velocity": 0.5590551181102362,
          "duration": 0.3229166666666714
        },
        {
          "name": "F4",
          "midi": 65,
          "time": 113.24999999999987,
          "velocity": 0.5511811023622047,
          "duration": 0.3125
        },
        {
          "name": "A#4",
          "midi": 70,
          "time": 113.24999999999987,
          "velocity": 0.41732283464566927,
          "duration": 0.2395833333333286
        },
        {
          "name": "C#4",
          "midi": 61,
          "time": 113.49999999999987,
          "velocity": 0.5826771653543307,
          "duration": 0.25
        },
        {
          "name": "A#4",
          "midi": 70,
          "time": 113.49999999999987,
          "velocity": 0.5118110236220472,
          "duration": 0.6197916666666572
        },
        {
          "name": "C5",
          "midi": 72,
          "time": 113.49999999999987,
          "velocity": 0.7007874015748031,
          "duration": 0.375
        },
        {
          "name": "F4",
          "midi": 65,
          "time": 113.56249999999987,
          "velocity": 0.3779527559055118,
          "duration": 0.3854166666666714
        },
        {
          "name": "C#4",
          "midi": 61,
          "time": 113.74999999999987,
          "velocity": 0.5039370078740157,
          "duration": 1.0104166666666572
        },
        {
          "name": "C5",
          "midi": 72,
          "time": 113.87499999999987,
          "velocity": 0.6535433070866141,
          "duration": 0.1770833333333286
        },
        {
          "name": "G#4",
          "midi": 68,
          "time": 113.99999999999987,
          "velocity": 0.7637795275590551,
          "duration": 0.3749999999999858
        },
        {
          "name": "A#4",
          "midi": 70,
          "time": 114.12499999999986,
          "velocity": 0.7716535433070866,
          "duration": 0.5
        },
        {
          "name": "F3",
          "midi": 53,
          "time": 114.24999999999986,
          "velocity": 0.4645669291338583,
          "duration": 0.25
        },
        {
          "name": "G#4",
          "midi": 68,
          "time": 114.37499999999986,
          "velocity": 0.7165354330708661,
          "duration": 0.2083333333333286
        },
        {
          "name": "F3",
          "midi": 53,
          "time": 114.49999999999986,
          "velocity": 0.4251968503937008,
          "duration": 0.328125
        },
        {
          "name": "G#3",
          "midi": 56,
          "time": 114.49999999999986,
          "velocity": 0.5433070866141733,
          "duration": 0.5625
        },
        {
          "name": "A#4",
          "midi": 70,
          "time": 114.62499999999986,
          "velocity": 0.6299212598425197,
          "duration": 0.25
        },
        {
          "name": "F5",
          "midi": 77,
          "time": 114.62499999999986,
          "velocity": 0.6929133858267716,
          "duration": 0.3802083333333286
        },
        {
          "name": "A#4",
          "midi": 70,
          "time": 114.87499999999986,
          "velocity": 0.6220472440944882,
          "duration": 0.171875
        },
        {
          "name": "A#3",
          "midi": 58,
          "time": 114.99999999999986,
          "velocity": 0.5590551181102362,
          "duration": 0.5572916666666714
        },
        {
          "name": "D#5",
          "midi": 75,
          "time": 114.99999999999986,
          "velocity": 0.7716535433070866,
          "duration": 0.3697916666666714
        },
        {
          "name": "F5",
          "midi": 77,
          "time": 115.24999999999986,
          "velocity": 0.6771653543307087,
          "duration": 0.3125
        },
        {
          "name": "D#5",
          "midi": 75,
          "time": 115.37499999999986,
          "velocity": 0.6220472440944882,
          "duration": 0.296875
        },
        {
          "name": "G#3",
          "midi": 56,
          "time": 115.49999999999986,
          "velocity": 0.5118110236220472,
          "duration": 0.8177083333333428
        },
        {
          "name": "C4",
          "midi": 60,
          "time": 115.49999999999986,
          "velocity": 0.6220472440944882,
          "duration": 0.3020833333333286
        },
        {
          "name": "F4",
          "midi": 65,
          "time": 115.49999999999986,
          "velocity": 0.3464566929133858,
          "duration": 1.0520833333333428
        },
        {
          "name": "C#4",
          "midi": 61,
          "time": 115.74999999999986,
          "velocity": 0.5669291338582677,
          "duration": 0.25
        },
        {
          "name": "A#4",
          "midi": 70,
          "time": 115.74999999999986,
          "velocity": 0.4566929133858268,
          "duration": 0.1927083333333286
        },
        {
          "name": "C5",
          "midi": 72,
          "time": 115.87499999999986,
          "velocity": 0.5669291338582677,
          "duration": 0.15625
        },
        {
          "name": "C#4",
          "midi": 61,
          "time": 115.99999999999986,
          "velocity": 0.49606299212598426,
          "duration": 0.3072916666666714
        },
        {
          "name": "D#5",
          "midi": 75,
          "time": 115.99999999999986,
          "velocity": 0.7637795275590551,
          "duration": 0.3750000000000142
        },
        {
          "name": "G#4",
          "midi": 68,
          "time": 116.24999999999986,
          "velocity": 0.48031496062992124,
          "duration": 1.5989583333333286
        },
        {
          "name": "F5",
          "midi": 77,
          "time": 116.24999999999986,
          "velocity": 0.6141732283464567,
          "duration": 0.5468750000000142
        },
        {
          "name": "D#5",
          "midi": 75,
          "time": 116.37499999999987,
          "velocity": 0.6535433070866141,
          "duration": 0.3125
        },
        {
          "name": "F3",
          "midi": 53,
          "time": 116.49999999999987,
          "velocity": 0.4566929133858268,
          "duration": 0.25
        },
        {
          "name": "A#4",
          "midi": 70,
          "time": 116.49999999999987,
          "velocity": 0.5826771653543307,
          "duration": 0.25
        },
        {
          "name": "G#3",
          "midi": 56,
          "time": 116.62499999999987,
          "velocity": 0.4566929133858268,
          "duration": 0.125
        },
        {
          "name": "F3",
          "midi": 53,
          "time": 116.74999999999987,
          "velocity": 0.41732283464566927,
          "duration": 0.296875
        },
        {
          "name": "G#3",
          "midi": 56,
          "time": 116.74999999999987,
          "velocity": 0.5826771653543307,
          "duration": 0.5364583333333286
        },
        {
          "name": "A#4",
          "midi": 70,
          "time": 116.74999999999987,
          "velocity": 0.6220472440944882,
          "duration": 1.5468749999999858
        },
        {
          "name": "A#3",
          "midi": 58,
          "time": 117.24999999999987,
          "velocity": 0.8818897637795275,
          "duration": 0.2447916666666572
        },
        {
          "name": "A#3",
          "midi": 58,
          "time": 117.49999999999986,
          "velocity": 0.5275590551181102,
          "duration": 0.2864583333333286
        },
        {
          "name": "D#5",
          "midi": 75,
          "time": 117.49999999999986,
          "velocity": 0.5984251968503937,
          "duration": 0.7760416666666714
        },
        {
          "name": "A#5",
          "midi": 82,
          "time": 117.62499999999986,
          "velocity": 0.41732283464566927,
          "duration": 1.6145833333333428
        },
        {
          "name": "G#3",
          "midi": 56,
          "time": 117.74999999999986,
          "velocity": 0.5669291338582677,
          "duration": 0.546875
        },
        {
          "name": "C4",
          "midi": 60,
          "time": 117.74999999999986,
          "velocity": 0.5039370078740157,
          "duration": 0.3385416666666714
        },
        {
          "name": "C#4",
          "midi": 61,
          "time": 117.99999999999986,
          "velocity": 0.6062992125984252,
          "duration": 0.25
        },
        {
          "name": "C#4",
          "midi": 61,
          "time": 118.24999999999986,
          "velocity": 0.49606299212598426,
          "duration": 0.5625
        },
        {
          "name": "G#4",
          "midi": 68,
          "time": 118.24999999999986,
          "velocity": 0.5039370078740157,
          "duration": 0.2552083333333286
        },
        {
          "name": "C5",
          "midi": 72,
          "time": 118.24999999999986,
          "velocity": 0.7086614173228346,
          "duration": 0.375
        },
        {
          "name": "F5",
          "midi": 77,
          "time": 118.24999999999986,
          "velocity": 0.6850393700787402,
          "duration": 0.375
        },
        {
          "name": "A#4",
          "midi": 70,
          "time": 118.49999999999986,
          "velocity": 0.44881889763779526,
          "duration": 0.2291666666666714
        },
        {
          "name": "G#4",
          "midi": 68,
          "time": 118.62499999999986,
          "velocity": 0.5433070866141733,
          "duration": 0.359375
        },
        {
          "name": "C5",
          "midi": 72,
          "time": 118.62499999999986,
          "velocity": 0.6929133858267716,
          "duration": 0.4479166666666714
        },
        {
          "name": "F5",
          "midi": 77,
          "time": 118.62499999999986,
          "velocity": 0.6614173228346457,
          "duration": 0.6458333333333428
        },
        {
          "name": "F3",
          "midi": 53,
          "time": 118.74999999999986,
          "velocity": 0.49606299212598426,
          "duration": 0.2395833333333286
        },
        {
          "name": "F3",
          "midi": 53,
          "time": 118.99999999999986,
          "velocity": 0.5039370078740157,
          "duration": 0.8229166666666572
        },
        {
          "name": "G#3",
          "midi": 56,
          "time": 118.99999999999986,
          "velocity": 0.6377952755905512,
          "duration": 0.2500000000000142
        },
        {
          "name": "A#4",
          "midi": 70,
          "time": 118.99999999999986,
          "velocity": 0.3464566929133858,
          "duration": 0.2239583333333428
        },
        {
          "name": "G#3",
          "midi": 56,
          "time": 119.24999999999987,
          "velocity": 0.6220472440944882,
          "duration": 0.2864583333333286
        },
        {
          "name": "C5",
          "midi": 72,
          "time": 119.24999999999987,
          "velocity": 0.7480314960629921,
          "duration": 0.3697916666666572
        },
        {
          "name": "A#5",
          "midi": 82,
          "time": 119.24999999999987,
          "velocity": 0.49606299212598426,
          "duration": 0.3385416666666572
        },
        {
          "name": "A#3",
          "midi": 58,
          "time": 119.49999999999987,
          "velocity": 0.5511811023622047,
          "duration": 0.5572916666666288
        },
        {
          "name": "G#4",
          "midi": 68,
          "time": 119.49999999999987,
          "velocity": 0.6692913385826772,
          "duration": 0.2864583333333144
        },
        {
          "name": "C5",
          "midi": 72,
          "time": 119.62499999999986,
          "velocity": 0.6614173228346457,
          "duration": 0.2656249999999858
        },
        {
          "name": "A#4",
          "midi": 70,
          "time": 119.74999999999986,
          "velocity": 0.7716535433070866,
          "duration": 0.1510416666666572
        },
        {
          "name": "G#5",
          "midi": 80,
          "time": 119.87499999999984,
          "velocity": 0.8110236220472441,
          "duration": 0.1458333333333286
        },
        {
          "name": "G#3",
          "midi": 56,
          "time": 119.99999999999984,
          "velocity": 0.6456692913385826,
          "duration": 0.7708333333333286
        },
        {
          "name": "C4",
          "midi": 60,
          "time": 119.99999999999984,
          "velocity": 0.5590551181102362,
          "duration": 0.3333333333333286
        },
        {
          "name": "F4",
          "midi": 65,
          "time": 119.99999999999984,
          "velocity": 0.44881889763779526,
          "duration": 0.1562499999999858
        },
        {
          "name": "F5",
          "midi": 77,
          "time": 119.99999999999984,
          "velocity": 0.6929133858267716,
          "duration": 0.2499999999999858
        },
        {
          "name": "G#4",
          "midi": 68,
          "time": 120.12499999999983,
          "velocity": 0.5118110236220472,
          "duration": 0.6250000000000142
        },
        {
          "name": "A#4",
          "midi": 70,
          "time": 120.12499999999983,
          "velocity": 0.49606299212598426,
          "duration": 0.1354166666666714
        },
        {
          "name": "C#4",
          "midi": 61,
          "time": 120.24999999999983,
          "velocity": 0.5748031496062992,
          "duration": 0.2500000000000142
        },
        {
          "name": "F5",
          "midi": 77,
          "time": 120.24999999999983,
          "velocity": 0.5511811023622047,
          "duration": 0.2656250000000142
        },
        {
          "name": "F4",
          "midi": 65,
          "time": 120.37499999999984,
          "velocity": 0.3700787401574803,
          "duration": 0.15625
        },
        {
          "name": "C5",
          "midi": 72,
          "time": 120.37499999999984,
          "velocity": 0.6062992125984252,
          "duration": 0.7656250000000142
        },
        {
          "name": "G#5",
          "midi": 80,
          "time": 120.37499999999984,
          "velocity": 0.33858267716535434,
          "duration": 1.1093750000000142
        },
        {
          "name": "C#4",
          "midi": 61,
          "time": 120.49999999999984,
          "velocity": 0.5118110236220472,
          "duration": 1.0729166666666856
        },
        {
          "name": "D#5",
          "midi": 75,
          "time": 120.49999999999984,
          "velocity": 0.6929133858267716,
          "duration": 0.25
        },
        {
          "name": "A#5",
          "midi": 82,
          "time": 120.62499999999984,
          "velocity": 0.4566929133858268,
          "duration": 0.4895833333333428
        },
        {
          "name": "G#4",
          "midi": 68,
          "time": 120.74999999999984,
          "velocity": 0.4881889763779528,
          "duration": 0.25
        },
        {
          "name": "D#5",
          "midi": 75,
          "time": 120.74999999999984,
          "velocity": 0.5984251968503937,
          "duration": 0.3541666666666714
        },
        {
          "name": "F3",
          "midi": 53,
          "time": 120.99999999999984,
          "velocity": 0.4881889763779528,
          "duration": 0.3020833333333428
        },
        {
          "name": "G#4",
          "midi": 68,
          "time": 120.99999999999984,
          "velocity": 0.44881889763779526,
          "duration": 0.817708333333357
        },
        {
          "name": "F5",
          "midi": 77,
          "time": 121.24999999999986,
          "velocity": 0.6141732283464567,
          "duration": 0.5052083333333428
        },
        {
          "name": "F3",
          "midi": 53,
          "time": 121.31249999999986,
          "velocity": 0.3858267716535433,
          "duration": 0.2708333333333428
        },
        {
          "name": "G#3",
          "midi": 56,
          "time": 121.31249999999986,
          "velocity": 0.5905511811023622,
          "duration": 0.1875
        },
        {
          "name": "G#3",
          "midi": 56,
          "time": 121.49999999999986,
          "velocity": 0.6220472440944882,
          "duration": 0.2916666666666714
        },
        {
          "name": "A#4",
          "midi": 70,
          "time": 121.49999999999986,
          "velocity": 0.6141732283464567,
          "duration": 0.5208333333333428
        },
        {
          "name": "A#3",
          "midi": 58,
          "time": 121.74999999999987,
          "velocity": 0.5905511811023622,
          "duration": 0.546875
        },
        {
          "name": "G#5",
          "midi": 80,
          "time": 121.74999999999987,
          "velocity": 0.49606299212598426,
          "duration": 0.2708333333333286
        },
        {
          "name": "G#4",
          "midi": 68,
          "time": 121.99999999999987,
          "velocity": 0.6377952755905512,
          "duration": 0.3697916666666714
        },
        {
          "name": "G#3",
          "midi": 56,
          "time": 122.24999999999987,
          "velocity": 0.7874015748031497,
          "duration": 1.0572916666666714
        },
        {
          "name": "C4",
          "midi": 60,
          "time": 122.24999999999987,
          "velocity": 0.5118110236220472,
          "duration": 0.3177083333333286
        },
        {
          "name": "F4",
          "midi": 65,
          "time": 122.24999999999987,
          "velocity": 0.4015748031496063,
          "duration": 0.375
        },
        {
          "name": "A#5",
          "midi": 82,
          "time": 122.24999999999987,
          "velocity": 0.44881889763779526,
          "duration": 0.2447916666666714
        },
        {
          "name": "G#4",
          "midi": 68,
          "time": 122.37499999999987,
          "velocity": 0.4251968503937008,
          "duration": 0.3802083333333286
        },
        {
          "name": "C#4",
          "midi": 61,
          "time": 122.49999999999987,
          "velocity": 0.5039370078740157,
          "duration": 0.25
        },
        {
          "name": "C6",
          "midi": 84,
          "time": 122.49999999999987,
          "velocity": 0.4094488188976378,
          "duration": 0.5833333333333286
        },
        {
          "name": "F4",
          "midi": 65,
          "time": 122.62499999999987,
          "velocity": 0.3779527559055118,
          "duration": 0.125
        },
        {
          "name": "C#4",
          "midi": 61,
          "time": 122.74999999999987,
          "velocity": 0.49606299212598426,
          "duration": 0.5677083333333428
        },
        {
          "name": "A#4",
          "midi": 70,
          "time": 122.74999999999987,
          "velocity": 0.3937007874015748,
          "duration": 0.1927083333333286
        },
        {
          "name": "G#4",
          "midi": 68,
          "time": 122.99999999999987,
          "velocity": 0.5433070866141733,
          "duration": 0.3958333333333286
        },
        {
          "name": "C5",
          "midi": 72,
          "time": 122.99999999999987,
          "velocity": 0.7952755905511811,
          "duration": 0.3697916666666714
        },
        {
          "name": "D#5",
          "midi": 75,
          "time": 122.99999999999987,
          "velocity": 0.4251968503937008,
          "duration": 0.5260416666666714
        },
        {
          "name": "F3",
          "midi": 53,
          "time": 123.24999999999987,
          "velocity": 0.6535433070866141,
          "duration": 0.3697916666666714
        },
        {
          "name": "C5",
          "midi": 72,
          "time": 123.37499999999987,
          "velocity": 0.7637795275590551,
          "duration": 0.375
        },
        {
          "name": "G#3",
          "midi": 56,
          "time": 123.49999999999987,
          "velocity": 0.7716535433070866,
          "duration": 0.25
        },
        {
          "name": "F3",
          "midi": 53,
          "time": 123.62499999999987,
          "velocity": 0.48031496062992124,
          "duration": 0.1614583333333286
        },
        {
          "name": "G#3",
          "midi": 56,
          "time": 123.74999999999987,
          "velocity": 0.6456692913385826,
          "duration": 0.2708333333333286
        },
        {
          "name": "C5",
          "midi": 72,
          "time": 123.74999999999987,
          "velocity": 0.5196850393700787,
          "duration": 0.15625
        },
        {
          "name": "G#4",
          "midi": 68,
          "time": 123.87499999999987,
          "velocity": 0.5275590551181102,
          "duration": 0.46875
        },
        {
          "name": "A#3",
          "midi": 58,
          "time": 123.99999999999987,
          "velocity": 0.6377952755905512,
          "duration": 0.5520833333333286
        },
        {
          "name": "F5",
          "midi": 77,
          "time": 124.24999999999987,
          "velocity": 0.6614173228346457,
          "duration": 0.1041666666666714
        },
        {
          "name": "G#5",
          "midi": 80,
          "time": 124.24999999999987,
          "velocity": 0.6614173228346457,
          "duration": 0.1458333333333286
        },
        {
          "name": "A#4",
          "midi": 70,
          "time": 124.37499999999987,
          "velocity": 0.4409448818897638,
          "duration": 0.375
        },
        {
          "name": "F5",
          "midi": 77,
          "time": 124.37499999999987,
          "velocity": 0.7716535433070866,
          "duration": 0.1979166666666572
        },
        {
          "name": "G#3",
          "midi": 56,
          "time": 124.49999999999987,
          "velocity": 0.5433070866141733,
          "duration": 0.796875
        },
        {
          "name": "C4",
          "midi": 60,
          "time": 124.49999999999987,
          "velocity": 0.5039370078740157,
          "duration": 0.6145833333333286
        },
        {
          "name": "F4",
          "midi": 65,
          "time": 124.49999999999987,
          "velocity": 0.33070866141732286,
          "duration": 0.1302083333333286
        },
        {
          "name": "C#4",
          "midi": 61,
          "time": 124.74999999999987,
          "velocity": 0.5511811023622047,
          "duration": 0.25
        },
        {
          "name": "A#4",
          "midi": 70,
          "time": 124.74999999999987,
          "velocity": 0.5354330708661418,
          "duration": 1.1250000000000142
        },
        {
          "name": "D#5",
          "midi": 75,
          "time": 124.74999999999987,
          "velocity": 0.6692913385826772,
          "duration": 0.34375
        },
        {
          "name": "F5",
          "midi": 77,
          "time": 124.74999999999987,
          "velocity": 0.7559055118110236,
          "duration": 0.2864583333333286
        },
        {
          "name": "C#4",
          "midi": 61,
          "time": 124.99999999999987,
          "velocity": 0.5118110236220472,
          "duration": 1
        },
        {
          "name": "G#4",
          "midi": 68,
          "time": 124.99999999999987,
          "velocity": 0.5984251968503937,
          "duration": 0.3229166666666714
        },
        {
          "name": "F5",
          "midi": 77,
          "time": 125.24999999999987,
          "velocity": 0.7480314960629921,
          "duration": 0.2864583333333286
        },
        {
          "name": "A#5",
          "midi": 82,
          "time": 125.31249999999987,
          "velocity": 0.3779527559055118,
          "duration": 0.4739583333333428
        },
        {
          "name": "F3",
          "midi": 53,
          "time": 125.49999999999987,
          "velocity": 0.4566929133858268,
          "duration": 0.25
        },
        {
          "name": "C5",
          "midi": 72,
          "time": 125.49999999999987,
          "velocity": 0.7244094488188977,
          "duration": 0.1302083333333286
        },
        {
          "name": "D#5",
          "midi": 75,
          "time": 125.62499999999987,
          "velocity": 0.7007874015748031,
          "duration": 0.1510416666666714
        },
        {
          "name": "F3",
          "midi": 53,
          "time": 125.74999999999987,
          "velocity": 0.5275590551181102,
          "duration": 0.3072916666666714
        },
        {
          "name": "G#3",
          "midi": 56,
          "time": 125.74999999999987,
          "velocity": 0.5905511811023622,
          "duration": 0.2447916666666714
        },
        {
          "name": "F5",
          "midi": 77,
          "time": 125.74999999999987,
          "velocity": 0.7322834645669292,
          "duration": 0.1302083333333428
        },
        {
          "name": "A#4",
          "midi": 70,
          "time": 125.87499999999989,
          "velocity": 0.7165354330708661,
          "duration": 0.1406249999999858
        },
        {
          "name": "G#3",
          "midi": 56,
          "time": 125.99999999999987,
          "velocity": 0.6141732283464567,
          "duration": 0.265625
        },
        {
          "name": "D#4",
          "midi": 63,
          "time": 125.99999999999987,
          "velocity": 0.8582677165354331,
          "duration": 0.1354166666666714
        },
        {
          "name": "A#3",
          "midi": 58,
          "time": 126.24999999999987,
          "velocity": 0.5511811023622047,
          "duration": 0.5520833333333286
        },
        {
          "name": "C5",
          "midi": 72,
          "time": 126.24999999999987,
          "velocity": 0.7244094488188977,
          "duration": 0.3697916666666714
        },
        {
          "name": "D#5",
          "midi": 75,
          "time": 126.37499999999987,
          "velocity": 0.7637795275590551,
          "duration": 0.2708333333333286
        },
        {
          "name": "C5",
          "midi": 72,
          "time": 126.62499999999987,
          "velocity": 0.6771653543307087,
          "duration": 0.4427083333333286
        },
        {
          "name": "G#3",
          "midi": 56,
          "time": 126.74999999999987,
          "velocity": 0.6062992125984252,
          "duration": 0.5520833333333286
        },
        {
          "name": "C4",
          "midi": 60,
          "time": 126.74999999999987,
          "velocity": 0.5590551181102362,
          "duration": 0.3177083333333286
        },
        {
          "name": "A#4",
          "midi": 70,
          "time": 126.81249999999987,
          "velocity": 0.49606299212598426,
          "duration": 0.1770833333333286
        },
        {
          "name": "C#4",
          "midi": 61,
          "time": 126.99999999999987,
          "velocity": 0.6220472440944882,
          "duration": 0.25
        },
        {
          "name": "F4",
          "midi": 65,
          "time": 126.99999999999987,
          "velocity": 0.7637795275590551,
          "duration": 0.3125
        },
        {
          "name": "A#4",
          "midi": 70,
          "time": 127.12499999999987,
          "velocity": 0.5196850393700787,
          "duration": 0.75
        },
        {
          "name": "C#4",
          "midi": 61,
          "time": 127.24999999999987,
          "velocity": 0.5433070866141733,
          "duration": 1.0781250000000142
        },
        {
          "name": "C5",
          "midi": 72,
          "time": 127.24999999999987,
          "velocity": 0.7401574803149606,
          "duration": 0.3645833333333286
        },
        {
          "name": "F4",
          "midi": 65,
          "time": 127.31249999999987,
          "velocity": 0.6692913385826772,
          "duration": 0.3854166666666714
        },
        {
          "name": "G#4",
          "midi": 68,
          "time": 127.49999999999987,
          "velocity": 0.7165354330708661,
          "duration": 0.3645833333333286
        },
        {
          "name": "C5",
          "midi": 72,
          "time": 127.62499999999987,
          "velocity": 0.5748031496062992,
          "duration": 0.4322916666666714
        },
        {
          "name": "F3",
          "midi": 53,
          "time": 127.74999999999987,
          "velocity": 0.49606299212598426,
          "duration": 0.2447916666666714
        },
        {
          "name": "G#5",
          "midi": 80,
          "time": 127.74999999999987,
          "velocity": 0.5669291338582677,
          "duration": 0.5312500000000142
        },
        {
          "name": "F3",
          "midi": 53,
          "time": 127.99999999999987,
          "velocity": 0.5354330708661418,
          "duration": 0.317708333333357
        },
        {
          "name": "G#3",
          "midi": 56,
          "time": 127.99999999999987,
          "velocity": 0.6614173228346457,
          "duration": 0.2500000000000142
        },
        {
          "name": "A#4",
          "midi": 70,
          "time": 127.99999999999987,
          "velocity": 0.6692913385826772,
          "duration": 0.2604166666666714
        },
        {
          "name": "A#5",
          "midi": 82,
          "time": 128.1249999999999,
          "velocity": 0.5275590551181102,
          "duration": 0.40625
        },
        {
          "name": "G#3",
          "midi": 56,
          "time": 128.2499999999999,
          "velocity": 0.5905511811023622,
          "duration": 0.2916666666666572
        },
        {
          "name": "C5",
          "midi": 72,
          "time": 128.2499999999999,
          "velocity": 0.7874015748031497,
          "duration": 0.25
        },
        {
          "name": "F4",
          "midi": 65,
          "time": 128.3749999999999,
          "velocity": 0.5039370078740157,
          "duration": 0.3125
        },
        {
          "name": "A#3",
          "midi": 58,
          "time": 128.4999999999999,
          "velocity": 0.5748031496062992,
          "duration": 0.5416666666666572
        },
        {
          "name": "G#4",
          "midi": 68,
          "time": 128.4999999999999,
          "velocity": 0.6220472440944882,
          "duration": 0.3854166666666572
        },
        {
          "name": "C5",
          "midi": 72,
          "time": 128.4999999999999,
          "velocity": 0.5905511811023622,
          "duration": 0.4166666666666572
        },
        {
          "name": "C6",
          "midi": 84,
          "time": 128.8749999999999,
          "velocity": 0.5354330708661418,
          "duration": 0.140625
        },
        {
          "name": "G#3",
          "midi": 56,
          "time": 128.9999999999999,
          "velocity": 0.5433070866141733,
          "duration": 0.296875
        },
        {
          "name": "C4",
          "midi": 60,
          "time": 128.9999999999999,
          "velocity": 0.5826771653543307,
          "duration": 0.3177083333333428
        },
        {
          "name": "A#4",
          "midi": 70,
          "time": 128.9999999999999,
          "velocity": 0.7480314960629921,
          "duration": 0.3697916666666856
        },
        {
          "name": "C#4",
          "midi": 61,
          "time": 129.2499999999999,
          "velocity": 0.6614173228346457,
          "duration": 0.24479166666668561
        },
        {
          "name": "A#4",
          "midi": 70,
          "time": 129.37499999999991,
          "velocity": 0.5984251968503937,
          "duration": 0.1302083333333428
        },
        {
          "name": "C#4",
          "midi": 61,
          "time": 129.49999999999991,
          "velocity": 0.5196850393700787,
          "duration": 0.8750000000000284
        },
        {
          "name": "A#4",
          "midi": 70,
          "time": 129.62499999999991,
          "velocity": 0.5354330708661418,
          "duration": 0.4375
        },
        {
          "name": "F5",
          "midi": 77,
          "time": 129.74999999999991,
          "velocity": 0.8346456692913385,
          "duration": 0.125
        },
        {
          "name": "F5",
          "midi": 77,
          "time": 129.87499999999991,
          "velocity": 0.7559055118110236,
          "duration": 0.3802083333333428
        },
        {
          "name": "F3",
          "midi": 53,
          "time": 129.99999999999991,
          "velocity": 0.5196850393700787,
          "duration": 0.3541666666666856
        },
        {
          "name": "D#5",
          "midi": 75,
          "time": 129.99999999999991,
          "velocity": 0.6141732283464567,
          "duration": 0.11458333333334281
        },
        {
          "name": "G#5",
          "midi": 80,
          "time": 129.99999999999991,
          "velocity": 0.5196850393700787,
          "duration": 0.6458333333333712
        },
        {
          "name": "G#3",
          "midi": 56,
          "time": 130.24999999999991,
          "velocity": 0.8582677165354331,
          "duration": 0.2500000000000284
        },
        {
          "name": "A#3",
          "midi": 58,
          "time": 130.24999999999991,
          "velocity": 0.7401574803149606,
          "duration": 0.13020833333337123
        },
        {
          "name": "F3",
          "midi": 53,
          "time": 130.37499999999994,
          "velocity": 0.5196850393700787,
          "duration": 0.25
        },
        {
          "name": "G#3",
          "midi": 56,
          "time": 130.49999999999994,
          "velocity": 0.5590551181102362,
          "duration": 0.2968750000000284
        },
        {
          "name": "A#3",
          "midi": 58,
          "time": 130.49999999999994,
          "velocity": 0.5590551181102362,
          "duration": 0.24479166666668561
        },
        {
          "name": "F5",
          "midi": 77,
          "time": 130.49999999999994,
          "velocity": 0.5748031496062992,
          "duration": 0.3437500000000284
        },
        {
          "name": "F3",
          "midi": 53,
          "time": 130.62499999999994,
          "velocity": 0.4094488188976378,
          "duration": 0.15104166666668561
        },
        {
          "name": "D#5",
          "midi": 75,
          "time": 130.62499999999994,
          "velocity": 0.6220472440944882,
          "duration": 0.3750000000000284
        },
        {
          "name": "A#5",
          "midi": 82,
          "time": 130.62499999999994,
          "velocity": 0.5275590551181102,
          "duration": 0.5677083333333712
        },
        {
          "name": "C3",
          "midi": 48,
          "time": 130.74999999999997,
          "velocity": 0.41732283464566927,
          "duration": 0.140625
        },
        {
          "name": "A#3",
          "midi": 58,
          "time": 130.74999999999997,
          "velocity": 0.6220472440944882,
          "duration": 0.25
        },
        {
          "name": "A#3",
          "midi": 58,
          "time": 130.99999999999997,
          "velocity": 0.6141732283464567,
          "duration": 0.3697916666666572
        },
        {
          "name": "C5",
          "midi": 72,
          "time": 130.99999999999997,
          "velocity": 0.7480314960629921,
          "duration": 0.3697916666666572
        },
        {
          "name": "D#5",
          "midi": 75,
          "time": 130.99999999999997,
          "velocity": 0.6220472440944882,
          "duration": 0.1458333333333428
        },
        {
          "name": "C3",
          "midi": 48,
          "time": 131.12499999999997,
          "velocity": 0.41732283464566927,
          "duration": 0.140625
        },
        {
          "name": "G#3",
          "midi": 56,
          "time": 131.24999999999997,
          "velocity": 0.7322834645669292,
          "duration": 0.5468750000000284
        },
        {
          "name": "C4",
          "midi": 60,
          "time": 131.24999999999997,
          "velocity": 0.5748031496062992,
          "duration": 0.3177083333333428
        },
        {
          "name": "A#3",
          "midi": 58,
          "time": 131.37499999999997,
          "velocity": 0.49606299212598426,
          "duration": 0.1614583333333428
        },
        {
          "name": "C5",
          "midi": 72,
          "time": 131.37499999999997,
          "velocity": 0.5118110236220472,
          "duration": 0.2916666666666856
        },
        {
          "name": "C#4",
          "midi": 61,
          "time": 131.49999999999997,
          "velocity": 0.6220472440944882,
          "duration": 0.2500000000000284
        },
        {
          "name": "C#4",
          "midi": 61,
          "time": 131.75,
          "velocity": 0.5039370078740157,
          "duration": 0.2552083333333428
        },
        {
          "name": "A#4",
          "midi": 70,
          "time": 131.875,
          "velocity": 0.4881889763779528,
          "duration": 0.3645833333333428
        },
        {
          "name": "D#6",
          "midi": 87,
          "time": 131.875,
          "velocity": 0.4566929133858268,
          "duration": 0.3645833333333428
        },
        {
          "name": "A#3",
          "midi": 58,
          "time": 131.9375,
          "velocity": 0.4330708661417323,
          "duration": 0.15625
        },
        {
          "name": "F4",
          "midi": 65,
          "time": 132,
          "velocity": 0.4409448818897638,
          "duration": 0.7239583333333428
        },
        {
          "name": "F5",
          "midi": 77,
          "time": 132,
          "velocity": 0.6377952755905512,
          "duration": 0.296875
        },
        {
          "name": "A#3",
          "midi": 58,
          "time": 132.125,
          "velocity": 0.4251968503937008,
          "duration": 0.2395833333333428
        },
        {
          "name": "F3",
          "midi": 53,
          "time": 132.25,
          "velocity": 0.4645669291338583,
          "duration": 0.25
        },
        {
          "name": "A#4",
          "midi": 70,
          "time": 132.25,
          "velocity": 0.7086614173228346,
          "duration": 0.375
        },
        {
          "name": "D#5",
          "midi": 75,
          "time": 132.25,
          "velocity": 0.4330708661417323,
          "duration": 0.2291666666666572
        },
        {
          "name": "A#3",
          "midi": 58,
          "time": 132.375,
          "velocity": 0.4094488188976378,
          "duration": 0.11979166666665719
        },
        {
          "name": "G#5",
          "midi": 80,
          "time": 132.375,
          "velocity": 0.6062992125984252,
          "duration": 0.1614583333333428
        },
        {
          "name": "F3",
          "midi": 53,
          "time": 132.5,
          "velocity": 0.4645669291338583,
          "duration": 0.2760416666666856
        },
        {
          "name": "G#3",
          "midi": 56,
          "time": 132.5,
          "velocity": 0.5748031496062992,
          "duration": 0.5364583333333712
        },
        {
          "name": "F5",
          "midi": 77,
          "time": 132.5,
          "velocity": 0.7165354330708661,
          "duration": 0.24479166666668561
        },
        {
          "name": "A#4",
          "midi": 70,
          "time": 132.625,
          "velocity": 0.5669291338582677,
          "duration": 0.31770833333337123
        },
        {
          "name": "D#5",
          "midi": 75,
          "time": 132.625,
          "velocity": 0.6456692913385826,
          "duration": 0.15625000000002842
        },
        {
          "name": "D#3",
          "midi": 51,
          "time": 132.75000000000003,
          "velocity": 0.4015748031496063,
          "duration": 0.1458333333333428
        },
        {
          "name": "C5",
          "midi": 72,
          "time": 132.75000000000003,
          "velocity": 0.6377952755905512,
          "duration": 0.171875
        },
        {
          "name": "F5",
          "midi": 77,
          "time": 132.75000000000003,
          "velocity": 0.4566929133858268,
          "duration": 0.5364583333333144
        },
        {
          "name": "F4",
          "midi": 65,
          "time": 132.87500000000003,
          "velocity": 0.5590551181102362,
          "duration": 0.125
        },
        {
          "name": "C3",
          "midi": 48,
          "time": 133.00000000000003,
          "velocity": 0.4015748031496063,
          "duration": 0.140625
        },
        {
          "name": "A#3",
          "midi": 58,
          "time": 133.00000000000003,
          "velocity": 0.5748031496062992,
          "duration": 0.5729166666666288
        },
        {
          "name": "F4",
          "midi": 65,
          "time": 133.00000000000003,
          "velocity": 0.49606299212598426,
          "duration": 0.6041666666666288
        },
        {
          "name": "G#4",
          "midi": 68,
          "time": 133.00000000000003,
          "velocity": 0.6141732283464567,
          "duration": 0.3593749999999716
        },
        {
          "name": "D#5",
          "midi": 75,
          "time": 133.00000000000003,
          "velocity": 0.5511811023622047,
          "duration": 0.1614583333333428
        },
        {
          "name": "C5",
          "midi": 72,
          "time": 133.12500000000003,
          "velocity": 0.47244094488188976,
          "duration": 0.1510416666666572
        },
        {
          "name": "A#4",
          "midi": 70,
          "time": 133.25000000000003,
          "velocity": 0.7086614173228346,
          "duration": 0.35416666666662877
        },
        {
          "name": "C3",
          "midi": 48,
          "time": 133.375,
          "velocity": 0.3937007874015748,
          "duration": 0.1822916666666572
        },
        {
          "name": "G#4",
          "midi": 68,
          "time": 133.375,
          "velocity": 0.5511811023622047,
          "duration": 0.2864583333333428
        },
        {
          "name": "G#3",
          "midi": 56,
          "time": 133.5,
          "velocity": 0.6220472440944882,
          "duration": 0.53125
        },
        {
          "name": "C4",
          "midi": 60,
          "time": 133.5,
          "velocity": 0.5511811023622047,
          "duration": 0.328125
        },
        {
          "name": "A#4",
          "midi": 70,
          "time": 133.625,
          "velocity": 0.5669291338582677,
          "duration": 0.203125
        },
        {
          "name": "C#4",
          "midi": 61,
          "time": 133.75,
          "velocity": 0.5354330708661418,
          "duration": 0.25
        },
        {
          "name": "F4",
          "midi": 65,
          "time": 133.75,
          "velocity": 0.5590551181102362,
          "duration": 0.8750000000000284
        },
        {
          "name": "G#5",
          "midi": 80,
          "time": 133.75,
          "velocity": 0.48031496062992124,
          "duration": 0.4947916666666856
        },
        {
          "name": "F5",
          "midi": 77,
          "time": 133.875,
          "velocity": 0.5118110236220472,
          "duration": 0.24479166666668561
        },
        {
          "name": "A#3",
          "midi": 58,
          "time": 134,
          "velocity": 0.5196850393700787,
          "duration": 0.09895833333334281
        },
        {
          "name": "C#4",
          "midi": 61,
          "time": 134,
          "velocity": 0.4645669291338583,
          "duration": 0.30208333333337123
        },
        {
          "name": "F3",
          "midi": 53,
          "time": 134.12500000000003,
          "velocity": 0.3464566929133858,
          "duration": 0.2552083333333428
        },
        {
          "name": "F5",
          "midi": 77,
          "time": 134.25000000000003,
          "velocity": 0.6062992125984252,
          "duration": 0.2604166666666572
        },
        {
          "name": "C4",
          "midi": 60,
          "time": 134.37500000000003,
          "velocity": 0.4645669291338583,
          "duration": 0.2604166666666572
        },
        {
          "name": "F3",
          "midi": 53,
          "time": 134.50000000000003,
          "velocity": 0.5039370078740157,
          "duration": 0.25
        },
        {
          "name": "D#5",
          "midi": 75,
          "time": 134.50000000000003,
          "velocity": 0.6456692913385826,
          "duration": 0.5104166666666572
        },
        {
          "name": "F4",
          "midi": 65,
          "time": 134.62500000000003,
          "velocity": 0.5118110236220472,
          "duration": 0.6458333333333144
        },
        {
          "name": "F3",
          "midi": 53,
          "time": 134.75000000000003,
          "velocity": 0.5118110236220472,
          "duration": 0.3072916666666572
        },
        {
          "name": "G#3",
          "midi": 56,
          "time": 134.75000000000003,
          "velocity": 0.5433070866141733,
          "duration": 0.5364583333333144
        },
        {
          "name": "D#3",
          "midi": 51,
          "time": 135.00000000000003,
          "velocity": 0.4409448818897638,
          "duration": 0.14583333333331439
        },
        {
          "name": "A#4",
          "midi": 70,
          "time": 135.00000000000003,
          "velocity": 0.41732283464566927,
          "duration": 0.2708333333333144
        },
        {
          "name": "F5",
          "midi": 77,
          "time": 135.00000000000003,
          "velocity": 0.5511811023622047,
          "duration": 0.2812499999999716
        },
        {
          "name": "A#5",
          "midi": 82,
          "time": 135.00000000000003,
          "velocity": 0.4881889763779528,
          "duration": 0.16145833333331439
        },
        {
          "name": "C3",
          "midi": 48,
          "time": 135.25,
          "velocity": 0.48031496062992124,
          "duration": 0.140625
        },
        {
          "name": "A#3",
          "midi": 58,
          "time": 135.25,
          "velocity": 0.5275590551181102,
          "duration": 0.2395833333333428
        },
        {
          "name": "C5",
          "midi": 72,
          "time": 135.25,
          "velocity": 0.7007874015748031,
          "duration": 0.3697916666666572
        },
        {
          "name": "F3",
          "midi": 53,
          "time": 135.375,
          "velocity": 0.4015748031496063,
          "duration": 0.375
        },
        {
          "name": "C4",
          "midi": 60,
          "time": 135.375,
          "velocity": 0.3779527559055118,
          "duration": 0.375
        },
        {
          "name": "A#3",
          "midi": 58,
          "time": 135.5,
          "velocity": 0.5196850393700787,
          "duration": 0.2864583333333428
        },
        {
          "name": "F4",
          "midi": 65,
          "time": 135.5,
          "velocity": 0.5669291338582677,
          "duration": 0.7708333333333712
        },
        {
          "name": "C3",
          "midi": 48,
          "time": 135.625,
          "velocity": 0.33858267716535434,
          "duration": 0.140625
        },
        {
          "name": "C5",
          "midi": 72,
          "time": 135.625,
          "velocity": 0.6850393700787402,
          "duration": 0.375
        },
        {
          "name": "F5",
          "midi": 77,
          "time": 135.625,
          "velocity": 0.5196850393700787,
          "duration": 0.4427083333333428
        },
        {
          "name": "F3",
          "midi": 53,
          "time": 135.75,
          "velocity": 0.41732283464566927,
          "duration": 0.265625
        },
        {
          "name": "G#3",
          "midi": 56,
          "time": 135.75,
          "velocity": 0.5905511811023622,
          "duration": 0.296875
        },
        {
          "name": "C4",
          "midi": 60,
          "time": 135.75,
          "velocity": 0.6456692913385826,
          "duration": 0.3229166666666856
        },
        {
          "name": "C5",
          "midi": 72,
          "time": 136,
          "velocity": 0.7716535433070866,
          "duration": 0.15104166666668561
        },
        {
          "name": "D#5",
          "midi": 75,
          "time": 136.12500000000003,
          "velocity": 0.8110236220472441,
          "duration": 0.15104166666668561
        },
        {
          "name": "F5",
          "midi": 77,
          "time": 136.25000000000003,
          "velocity": 0.5511811023622047,
          "duration": 0.14062500000002842
        },
        {
          "name": "C#4",
          "midi": 61,
          "time": 136.37500000000006,
          "velocity": 0.5118110236220472,
          "duration": 0.1770833333333428
        },
        {
          "name": "A#4",
          "midi": 70,
          "time": 136.37500000000006,
          "velocity": 0.6771653543307087,
          "duration": 0.1614583333333428
        },
        {
          "name": "C5",
          "midi": 72,
          "time": 136.37500000000006,
          "velocity": 0.5669291338582677,
          "duration": 0.19791666666668561
        },
        {
          "name": "D#5",
          "midi": 75,
          "time": 136.50000000000006,
          "velocity": 0.8188976377952756,
          "duration": 0.24479166666671404
        },
        {
          "name": "F3",
          "midi": 53,
          "time": 136.62500000000009,
          "velocity": 0.5905511811023622,
          "duration": 0.11458333333334281
        },
        {
          "name": "F3",
          "midi": 53,
          "time": 136.7500000000001,
          "velocity": 0.7795275590551181,
          "duration": 0.25
        },
        {
          "name": "A#4",
          "midi": 70,
          "time": 136.7500000000001,
          "velocity": 0.5748031496062992,
          "duration": 0.1770833333333428
        },
        {
          "name": "A#3",
          "midi": 58,
          "time": 136.8750000000001,
          "velocity": 0.6299212598425197,
          "duration": 0.2604166666666856
        },
        {
          "name": "D#5",
          "midi": 75,
          "time": 136.8750000000001,
          "velocity": 0.7716535433070866,
          "duration": 0.2552083333333428
        },
        {
          "name": "F3",
          "midi": 53,
          "time": 137.0000000000001,
          "velocity": 0.49606299212598426,
          "duration": 0.5520833333333428
        },
        {
          "name": "G#3",
          "midi": 56,
          "time": 137.0000000000001,
          "velocity": 0.5511811023622047,
          "duration": 0.2395833333333428
        },
        {
          "name": "C4",
          "midi": 60,
          "time": 137.1250000000001,
          "velocity": 0.4094488188976378,
          "duration": 0.15625
        },
        {
          "name": "A#4",
          "midi": 70,
          "time": 137.1250000000001,
          "velocity": 0.6377952755905512,
          "duration": 0.1614583333333428
        },
        {
          "name": "G#3",
          "midi": 56,
          "time": 137.2500000000001,
          "velocity": 0.5433070866141733,
          "duration": 0.2864583333333428
        },
        {
          "name": "A#3",
          "midi": 58,
          "time": 137.2500000000001,
          "velocity": 0.49606299212598426,
          "duration": 0.25
        },
        {
          "name": "D#5",
          "midi": 75,
          "time": 137.2500000000001,
          "velocity": 0.7244094488188977,
          "duration": 0.25
        },
        {
          "name": "C3",
          "midi": 48,
          "time": 137.5000000000001,
          "velocity": 0.41732283464566927,
          "duration": 0.1510416666666572
        },
        {
          "name": "A#3",
          "midi": 58,
          "time": 137.5000000000001,
          "velocity": 0.5826771653543307,
          "duration": 0.515625
        },
        {
          "name": "F4",
          "midi": 65,
          "time": 137.5000000000001,
          "velocity": 0.5118110236220472,
          "duration": 1
        },
        {
          "name": "C5",
          "midi": 72,
          "time": 137.5000000000001,
          "velocity": 0.6299212598425197,
          "duration": 0.1510416666666572
        },
        {
          "name": "A#4",
          "midi": 70,
          "time": 137.6250000000001,
          "velocity": 0.4251968503937008,
          "duration": 0.1927083333333428
        },
        {
          "name": "D#5",
          "midi": 75,
          "time": 137.6250000000001,
          "velocity": 0.6771653543307087,
          "duration": 0.140625
        },
        {
          "name": "C4",
          "midi": 60,
          "time": 137.7500000000001,
          "velocity": 0.4094488188976378,
          "duration": 0.2447916666666572
        },
        {
          "name": "G#4",
          "midi": 68,
          "time": 137.7500000000001,
          "velocity": 0.2992125984251969,
          "duration": 0.1510416666666572
        },
        {
          "name": "G#5",
          "midi": 80,
          "time": 137.7500000000001,
          "velocity": 0.5039370078740157,
          "duration": 0.25
        },
        {
          "name": "C3",
          "midi": 48,
          "time": 137.8750000000001,
          "velocity": 0.3937007874015748,
          "duration": 0.1614583333333428
        },
        {
          "name": "C5",
          "midi": 72,
          "time": 137.8750000000001,
          "velocity": 0.5039370078740157,
          "duration": 0.171875
        },
        {
          "name": "F5",
          "midi": 77,
          "time": 137.8750000000001,
          "velocity": 0.4330708661417323,
          "duration": 0.25
        },
        {
          "name": "G#3",
          "midi": 56,
          "time": 138.0000000000001,
          "velocity": 0.6299212598425197,
          "duration": 0.3072916666666572
        },
        {
          "name": "C4",
          "midi": 60,
          "time": 138.0000000000001,
          "velocity": 0.5905511811023622,
          "duration": 0.328125
        },
        {
          "name": "A#4",
          "midi": 70,
          "time": 138.0000000000001,
          "velocity": 0.44881889763779526,
          "duration": 0.171875
        },
        {
          "name": "F5",
          "midi": 77,
          "time": 138.1250000000001,
          "velocity": 0.5039370078740157,
          "duration": 0.1666666666666572
        },
        {
          "name": "C#4",
          "midi": 61,
          "time": 138.2500000000001,
          "velocity": 0.5590551181102362,
          "duration": 0.25
        },
        {
          "name": "C5",
          "midi": 72,
          "time": 138.2500000000001,
          "velocity": 0.5669291338582677,
          "duration": 0.1875
        },
        {
          "name": "D#5",
          "midi": 75,
          "time": 138.3750000000001,
          "velocity": 0.7165354330708661,
          "duration": 0.25
        },
        {
          "name": "C#4",
          "midi": 61,
          "time": 138.5000000000001,
          "velocity": 0.5039370078740157,
          "duration": 0.3072916666666572
        },
        {
          "name": "F4",
          "midi": 65,
          "time": 138.5000000000001,
          "velocity": 0.5590551181102362,
          "duration": 0.6614583333333712
        },
        {
          "name": "A#4",
          "midi": 70,
          "time": 138.5000000000001,
          "velocity": 0.6771653543307087,
          "duration": 0.2447916666666572
        },
        {
          "name": "C5",
          "midi": 72,
          "time": 138.6250000000001,
          "velocity": 0.5039370078740157,
          "duration": 0.140625
        },
        {
          "name": "D#5",
          "midi": 75,
          "time": 138.6250000000001,
          "velocity": 0.6535433070866141,
          "duration": 0.3697916666666856
        },
        {
          "name": "F3",
          "midi": 53,
          "time": 138.7500000000001,
          "velocity": 0.3543307086614173,
          "duration": 0.24479166666668561
        },
        {
          "name": "A#3",
          "midi": 58,
          "time": 138.7500000000001,
          "velocity": 0.44881889763779526,
          "duration": 0.3750000000000284
        },
        {
          "name": "F5",
          "midi": 77,
          "time": 138.7500000000001,
          "velocity": 0.5354330708661418,
          "duration": 0.2395833333333428
        },
        {
          "name": "A#4",
          "midi": 70,
          "time": 138.8750000000001,
          "velocity": 0.44881889763779526,
          "duration": 0.2500000000000284
        },
        {
          "name": "F3",
          "midi": 53,
          "time": 139.00000000000014,
          "velocity": 0.6456692913385826,
          "duration": 0.3072916666666572
        },
        {
          "name": "D#5",
          "midi": 75,
          "time": 139.00000000000014,
          "velocity": 0.5039370078740157,
          "duration": 0.3385416666666572
        },
        {
          "name": "A#5",
          "midi": 82,
          "time": 139.00000000000014,
          "velocity": 0.5118110236220472,
          "duration": 0.2395833333333428
        },
        {
          "name": "A#3",
          "midi": 58,
          "time": 139.12500000000014,
          "velocity": 0.4015748031496063,
          "duration": 0.234375
        },
        {
          "name": "G#3",
          "midi": 56,
          "time": 139.25000000000014,
          "velocity": 0.5826771653543307,
          "duration": 0.5364583333333428
        },
        {
          "name": "F3",
          "midi": 53,
          "time": 139.31250000000014,
          "velocity": 0.7007874015748031,
          "duration": 0.25
        },
        {
          "name": "F5",
          "midi": 77,
          "time": 139.50000000000014,
          "velocity": 0.5196850393700787,
          "duration": 0.1770833333333428
        },
        {
          "name": "F4",
          "midi": 65,
          "time": 139.62500000000014,
          "velocity": 0.47244094488188976,
          "duration": 0.3645833333333428
        },
        {
          "name": "A#3",
          "midi": 58,
          "time": 139.75000000000014,
          "velocity": 0.4566929133858268,
          "duration": 0.5364583333333712
        },
        {
          "name": "C4",
          "midi": 60,
          "time": 139.75000000000014,
          "velocity": 0.4409448818897638,
          "duration": 0.1302083333333428
        },
        {
          "name": "D#5",
          "midi": 75,
          "time": 139.75000000000014,
          "velocity": 0.7165354330708661,
          "duration": 0.24479166666668561
        },
        {
          "name": "D#4",
          "midi": 63,
          "time": 139.87500000000014,
          "velocity": 0.36220472440944884,
          "duration": 0.20833333333337123
        },
        {
          "name": "F5",
          "midi": 77,
          "time": 139.87500000000014,
          "velocity": 0.3779527559055118,
          "duration": 0.11979166666668561
        },
        {
          "name": "F4",
          "midi": 65,
          "time": 140.00000000000017,
          "velocity": 0.5118110236220472,
          "duration": 0.375
        },
        {
          "name": "D#5",
          "midi": 75,
          "time": 140.00000000000017,
          "velocity": 0.5275590551181102,
          "duration": 0.125
        },
        {
          "name": "F5",
          "midi": 77,
          "time": 140.00000000000017,
          "velocity": 0.5748031496062992,
          "duration": 0.2708333333333428
        },
        {
          "name": "D#5",
          "midi": 75,
          "time": 140.12500000000017,
          "velocity": 0.6377952755905512,
          "duration": 0.4791666666666572
        },
        {
          "name": "G#3",
          "midi": 56,
          "time": 140.25000000000017,
          "velocity": 0.4881889763779528,
          "duration": 0.5468749999999716
        },
        {
          "name": "C4",
          "midi": 60,
          "time": 140.25000000000017,
          "velocity": 0.5275590551181102,
          "duration": 1.0572916666666288
        },
        {
          "name": "A#4",
          "midi": 70,
          "time": 140.25000000000017,
          "velocity": 0.3228346456692913,
          "duration": 0.9999999999999716
        },
        {
          "name": "F4",
          "midi": 65,
          "time": 140.37500000000017,
          "velocity": 0.49606299212598426,
          "duration": 0.49479166666662877
        },
        {
          "name": "C#4",
          "midi": 61,
          "time": 140.50000000000017,
          "velocity": 0.5748031496062992,
          "duration": 0.23958333333331439
        },
        {
          "name": "C#4",
          "midi": 61,
          "time": 140.75000000000014,
          "velocity": 0.48031496062992124,
          "duration": 0.3125
        },
        {
          "name": "F5",
          "midi": 77,
          "time": 140.75000000000014,
          "velocity": 0.5433070866141733,
          "duration": 0.4166666666666572
        },
        {
          "name": "F4",
          "midi": 65,
          "time": 140.87500000000014,
          "velocity": 0.4409448818897638,
          "duration": 0.2916666666666572
        },
        {
          "name": "A#5",
          "midi": 82,
          "time": 140.87500000000014,
          "velocity": 0.4881889763779528,
          "duration": 0.3385416666666572
        },
        {
          "name": "C5",
          "midi": 72,
          "time": 141.12500000000014,
          "velocity": 0.4409448818897638,
          "duration": 0.125
        },
        {
          "name": "F3",
          "midi": 53,
          "time": 141.25000000000014,
          "velocity": 0.4881889763779528,
          "duration": 0.2447916666666572
        },
        {
          "name": "A#4",
          "midi": 70,
          "time": 141.25000000000014,
          "velocity": 0.4015748031496063,
          "duration": 0.5260416666666572
        },
        {
          "name": "C5",
          "midi": 72,
          "time": 141.25000000000014,
          "velocity": 0.7165354330708661,
          "duration": 0.3697916666666572
        },
        {
          "name": "F3",
          "midi": 53,
          "time": 141.50000000000014,
          "velocity": 0.4645669291338583,
          "duration": 1.1718750000000568
        },
        {
          "name": "G#3",
          "midi": 56,
          "time": 141.50000000000014,
          "velocity": 0.84251968503937,
          "duration": 0.25
        },
        {
          "name": "C5",
          "midi": 72,
          "time": 141.62500000000014,
          "velocity": 0.5433070866141733,
          "duration": 0.2864583333333428
        },
        {
          "name": "G#3",
          "midi": 56,
          "time": 141.75000000000014,
          "velocity": 0.7165354330708661,
          "duration": 0.24479166666668561
        },
        {
          "name": "D#5",
          "midi": 75,
          "time": 141.87500000000014,
          "velocity": 0.5511811023622047,
          "duration": 0.38020833333337123
        },
        {
          "name": "F5",
          "midi": 77,
          "time": 141.87500000000014,
          "velocity": 0.5433070866141733,
          "duration": 0.5625000000000284
        },
        {
          "name": "A#5",
          "midi": 82,
          "time": 141.87500000000014,
          "velocity": 0.4881889763779528,
          "duration": 0.6562500000000568
        },
        {
          "name": "G#3",
          "midi": 56,
          "time": 142.00000000000017,
          "velocity": 0.5039370078740157,
          "duration": 0.4947916666666856
        },
        {
          "name": "A#3",
          "midi": 58,
          "time": 142.00000000000017,
          "velocity": 0.5511811023622047,
          "duration": 0.25
        },
        {
          "name": "A#3",
          "midi": 58,
          "time": 142.25000000000017,
          "velocity": 0.5039370078740157,
          "duration": 0.2239583333333428
        },
        {
          "name": "D#5",
          "midi": 75,
          "time": 142.37500000000017,
          "velocity": 0.7322834645669292,
          "duration": 0.3697916666666856
        },
        {
          "name": "G#3",
          "midi": 56,
          "time": 142.5000000000002,
          "velocity": 0.5590551181102362,
          "duration": 0.296875
        },
        {
          "name": "C4",
          "midi": 60,
          "time": 142.5000000000002,
          "velocity": 0.5118110236220472,
          "duration": 0.40625
        },
        {
          "name": "F4",
          "midi": 65,
          "time": 142.5000000000002,
          "velocity": 0.3228346456692913,
          "duration": 0.1354166666666572
        },
        {
          "name": "C5",
          "midi": 72,
          "time": 142.6250000000002,
          "velocity": 0.5826771653543307,
          "duration": 0.6197916666666572
        },
        {
          "name": "C#4",
          "midi": 61,
          "time": 142.7500000000002,
          "velocity": 0.6141732283464567,
          "duration": 0.25
        },
        {
          "name": "D#5",
          "midi": 75,
          "time": 142.7500000000002,
          "velocity": 0.5354330708661418,
          "duration": 0.4583333333333144
        },
        {
          "name": "F5",
          "midi": 77,
          "time": 142.7500000000002,
          "velocity": 0.3779527559055118,
          "duration": 0.4322916666666572
        },
        {
          "name": "G#3",
          "midi": 56,
          "time": 143.0000000000002,
          "velocity": 0.5748031496062992,
          "duration": 0.2447916666666572
        },
        {
          "name": "C#4",
          "midi": 61,
          "time": 143.0000000000002,
          "velocity": 0.5118110236220472,
          "duration": 0.5572916666666572
        },
        {
          "name": "A#5",
          "midi": 82,
          "time": 143.0625000000002,
          "velocity": 0.3779527559055118,
          "duration": 0.359375
        },
        {
          "name": "A#3",
          "midi": 58,
          "time": 143.1250000000002,
          "velocity": 0.3228346456692913,
          "duration": 0.1770833333333428
        },
        {
          "name": "F4",
          "midi": 65,
          "time": 143.1250000000002,
          "velocity": 0.4566929133858268,
          "duration": 0.25
        },
        {
          "name": "G#3",
          "midi": 56,
          "time": 143.2500000000002,
          "velocity": 0.4645669291338583,
          "duration": 0.3125
        },
        {
          "name": "D#5",
          "midi": 75,
          "time": 143.3750000000002,
          "velocity": 0.6141732283464567,
          "duration": 0.140625
        },
        {
          "name": "D#3",
          "midi": 51,
          "time": 143.5000000000002,
          "velocity": 0.3937007874015748,
          "duration": 0.1979166666666572
        },
        {
          "name": "F3",
          "midi": 53,
          "time": 143.5000000000002,
          "velocity": 0.5354330708661418,
          "duration": 0.25
        },
        {
          "name": "F5",
          "midi": 77,
          "time": 143.5000000000002,
          "velocity": 0.7007874015748031,
          "duration": 0.3229166666666572
        },
        {
          "name": "A#3",
          "midi": 58,
          "time": 143.6250000000002,
          "velocity": 0.33070866141732286,
          "duration": 0.125
        },
        {
          "name": "C3",
          "midi": 48,
          "time": 143.7500000000002,
          "velocity": 0.36220472440944884,
          "duration": 0.10416666666665719
        },
        {
          "name": "F3",
          "midi": 53,
          "time": 143.7500000000002,
          "velocity": 0.4645669291338583,
          "duration": 0.3177083333333428
        },
        {
          "name": "G#3",
          "midi": 56,
          "time": 143.7500000000002,
          "velocity": 0.6456692913385826,
          "duration": 0.546875
        },
        {
          "name": "A#4",
          "midi": 70,
          "time": 143.7500000000002,
          "velocity": 0.4881889763779528,
          "duration": 0.2291666666666572
        },
        {
          "name": "A#4",
          "midi": 70,
          "time": 144.0000000000002,
          "velocity": 0.7795275590551181,
          "duration": 0.375
        },
        {
          "name": "C3",
          "midi": 48,
          "time": 144.1250000000002,
          "velocity": 0.4409448818897638,
          "duration": 0.11979166666665719
        },
        {
          "name": "F4",
          "midi": 65,
          "time": 144.1250000000002,
          "velocity": 0.6850393700787402,
          "duration": 0.1822916666666572
        },
        {
          "name": "F3",
          "midi": 53,
          "time": 144.2500000000002,
          "velocity": 0.49606299212598426,
          "duration": 0.375
        },
        {
          "name": "A#3",
          "midi": 58,
          "time": 144.2500000000002,
          "velocity": 0.49606299212598426,
          "duration": 0.53125
        },
        {
          "name": "A#4",
          "midi": 70,
          "time": 144.3750000000002,
          "velocity": 0.47244094488188976,
          "duration": 0.265625
        },
        {
          "name": "F3",
          "midi": 53,
          "time": 144.6250000000002,
          "velocity": 0.4881889763779528,
          "duration": 0.1458333333333428
        },
        {
          "name": "G#3",
          "midi": 56,
          "time": 144.7500000000002,
          "velocity": 0.8661417322834646,
          "duration": 0.2447916666666572
        },
        {
          "name": "C4",
          "midi": 60,
          "time": 144.7500000000002,
          "velocity": 0.5984251968503937,
          "duration": 0.265625
        },
        {
          "name": "A#5",
          "midi": 82,
          "time": 144.7500000000002,
          "velocity": 0.4251968503937008,
          "duration": 0.625
        },
        {
          "name": "G#3",
          "midi": 56,
          "time": 145.0000000000002,
          "velocity": 0.6614173228346457,
          "duration": 0.2395833333333428
        },
        {
          "name": "C#4",
          "midi": 61,
          "time": 145.0000000000002,
          "velocity": 0.5826771653543307,
          "duration": 0.2395833333333428
        },
        {
          "name": "F4",
          "midi": 65,
          "time": 145.0000000000002,
          "velocity": 0.33070866141732286,
          "duration": 0.5
        },
        {
          "name": "A#4",
          "midi": 70,
          "time": 145.0000000000002,
          "velocity": 0.4566929133858268,
          "duration": 0.2395833333333428
        },
        {
          "name": "D#5",
          "midi": 75,
          "time": 145.1250000000002,
          "velocity": 0.5984251968503937,
          "duration": 0.265625
        },
        {
          "name": "F3",
          "midi": 53,
          "time": 145.2500000000002,
          "velocity": 0.33858267716535434,
          "duration": 0.1458333333333428
        },
        {
          "name": "G#3",
          "midi": 56,
          "time": 145.2500000000002,
          "velocity": 0.4251968503937008,
          "duration": 0.5572916666666856
        },
        {
          "name": "C#4",
          "midi": 61,
          "time": 145.2500000000002,
          "velocity": 0.4645669291338583,
          "duration": 1.5677083333333428
        },
        {
          "name": "A#4",
          "midi": 70,
          "time": 145.2500000000002,
          "velocity": 0.3700787401574803,
          "duration": 0.2552083333333428
        },
        {
          "name": "C5",
          "midi": 72,
          "time": 145.2500000000002,
          "velocity": 0.6535433070866141,
          "duration": 0.2604166666666856
        },
        {
          "name": "C4",
          "midi": 60,
          "time": 145.3750000000002,
          "velocity": 0.4881889763779528,
          "duration": 0.2395833333333428
        },
        {
          "name": "F3",
          "midi": 53,
          "time": 145.5000000000002,
          "velocity": 0.2677165354330709,
          "duration": 0.2447916666666572
        },
        {
          "name": "F4",
          "midi": 65,
          "time": 145.5000000000002,
          "velocity": 0.4645669291338583,
          "duration": 0.3697916666666856
        },
        {
          "name": "G#5",
          "midi": 80,
          "time": 145.5000000000002,
          "velocity": 0.3937007874015748,
          "duration": 0.2708333333333428
        },
        {
          "name": "C5",
          "midi": 72,
          "time": 145.6250000000002,
          "velocity": 0.5984251968503937,
          "duration": 0.2656250000000284
        },
        {
          "name": "F3",
          "midi": 53,
          "time": 145.7500000000002,
          "velocity": 0.48031496062992124,
          "duration": 0.24479166666668561
        },
        {
          "name": "D#5",
          "midi": 75,
          "time": 145.7500000000002,
          "velocity": 0.4251968503937008,
          "duration": 0.4479166666666856
        },
        {
          "name": "F3",
          "midi": 53,
          "time": 146.00000000000023,
          "velocity": 0.7086614173228346,
          "duration": 0.3125
        },
        {
          "name": "G#3",
          "midi": 56,
          "time": 146.00000000000023,
          "velocity": 0.6850393700787402,
          "duration": 0.4947916666666572
        },
        {
          "name": "A#5",
          "midi": 82,
          "time": 146.00000000000023,
          "velocity": 0.5433070866141733,
          "duration": 0.21875
        },
        {
          "name": "G#5",
          "midi": 80,
          "time": 146.12500000000023,
          "velocity": 0.4330708661417323,
          "duration": 0.3802083333333428
        },
        {
          "name": "G#4",
          "midi": 68,
          "time": 146.25000000000023,
          "velocity": 0.5905511811023622,
          "duration": 0.390625
        },
        {
          "name": "C5",
          "midi": 72,
          "time": 146.37500000000023,
          "velocity": 0.6614173228346457,
          "duration": 0.2760416666666572
        },
        {
          "name": "G#3",
          "midi": 56,
          "time": 146.50000000000023,
          "velocity": 0.5590551181102362,
          "duration": 0.2760416666666572
        },
        {
          "name": "A#3",
          "midi": 58,
          "time": 146.50000000000023,
          "velocity": 0.4645669291338583,
          "duration": 0.5468749999999716
        },
        {
          "name": "F4",
          "midi": 65,
          "time": 146.62500000000023,
          "velocity": 0.36220472440944884,
          "duration": 0.14583333333331439
        },
        {
          "name": "D#5",
          "midi": 75,
          "time": 146.62500000000023,
          "velocity": 0.3228346456692913,
          "duration": 0.3802083333333144
        },
        {
          "name": "G#3",
          "midi": 56,
          "time": 147.0000000000002,
          "velocity": 0.6220472440944882,
          "duration": 0.3072916666666572
        },
        {
          "name": "C4",
          "midi": 60,
          "time": 147.0000000000002,
          "velocity": 0.5196850393700787,
          "duration": 0.3229166666666572
        },
        {
          "name": "F4",
          "midi": 65,
          "time": 147.0000000000002,
          "velocity": 0.41732283464566927,
          "duration": 0.75
        },
        {
          "name": "A#4",
          "midi": 70,
          "time": 147.0000000000002,
          "velocity": 0.8031496062992126,
          "duration": 0.375
        },
        {
          "name": "C#4",
          "midi": 61,
          "time": 147.2500000000002,
          "velocity": 0.5511811023622047,
          "duration": 0.25
        },
        {
          "name": "G#5",
          "midi": 80,
          "time": 147.2500000000002,
          "velocity": 0.5748031496062992,
          "duration": 0.1666666666666572
        },
        {
          "name": "A#4",
          "midi": 70,
          "time": 147.3750000000002,
          "velocity": 0.5354330708661418,
          "duration": 0.375
        },
        {
          "name": "F5",
          "midi": 77,
          "time": 147.3750000000002,
          "velocity": 0.6692913385826772,
          "duration": 0.2447916666666572
        },
        {
          "name": "C#4",
          "midi": 61,
          "time": 147.5000000000002,
          "velocity": 0.5196850393700787,
          "duration": 0.3697916666666856
        },
        {
          "name": "D#5",
          "midi": 75,
          "time": 147.5000000000002,
          "velocity": 0.7007874015748031,
          "duration": 0.1302083333333428
        },
        {
          "name": "G#3",
          "midi": 56,
          "time": 147.6250000000002,
          "velocity": 0.41732283464566927,
          "duration": 0.4322916666666856
        },
        {
          "name": "F5",
          "midi": 77,
          "time": 147.6250000000002,
          "velocity": 0.6535433070866141,
          "duration": 0.2656250000000284
        },
        {
          "name": "F4",
          "midi": 65,
          "time": 147.7500000000002,
          "velocity": 0.3937007874015748,
          "duration": 0.11458333333334281
        },
        {
          "name": "A#4",
          "midi": 70,
          "time": 147.7500000000002,
          "velocity": 0.49606299212598426,
          "duration": 0.3645833333333428
        },
        {
          "name": "D#5",
          "midi": 75,
          "time": 147.87500000000023,
          "velocity": 0.5984251968503937,
          "duration": 0.1510416666666572
        },
        {
          "name": "F3",
          "midi": 53,
          "time": 148.00000000000023,
          "velocity": 0.4566929133858268,
          "duration": 0.3697916666666572
        },
        {
          "name": "C5",
          "midi": 72,
          "time": 148.00000000000023,
          "velocity": 0.7165354330708661,
          "duration": 0.2864583333333144
        },
        {
          "name": "A#4",
          "midi": 70,
          "time": 148.1250000000002,
          "velocity": 0.44881889763779526,
          "duration": 0.11979166666665719
        },
        {
          "name": "A#5",
          "midi": 82,
          "time": 148.1250000000002,
          "velocity": 0.4094488188976378,
          "duration": 0.5520833333333997
        },
        {
          "name": "G#3",
          "midi": 56,
          "time": 148.2500000000002,
          "velocity": 0.6299212598425197,
          "duration": 0.26041666666671404
        },
        {
          "name": "D#4",
          "midi": 63,
          "time": 148.2500000000002,
          "velocity": 0.3858267716535433,
          "duration": 0.13020833333337123
        },
        {
          "name": "A#4",
          "midi": 70,
          "time": 148.2500000000002,
          "velocity": 0.48031496062992124,
          "duration": 0.25000000000005684
        },
        {
          "name": "D#5",
          "midi": 75,
          "time": 148.2500000000002,
          "velocity": 0.7086614173228346,
          "duration": 0.15104166666671404
        },
        {
          "name": "F5",
          "midi": 77,
          "time": 148.2500000000002,
          "velocity": 0.7874015748031497,
          "duration": 0.37500000000005684
        },
        {
          "name": "F3",
          "midi": 53,
          "time": 148.37500000000023,
          "velocity": 0.5433070866141733,
          "duration": 0.4218750000000284
        },
        {
          "name": "G#4",
          "midi": 68,
          "time": 148.37500000000023,
          "velocity": 0.5905511811023622,
          "duration": 0.30208333333337123
        },
        {
          "name": "A#4",
          "midi": 70,
          "time": 148.50000000000026,
          "velocity": 0.7716535433070866,
          "duration": 0.1458333333333428
        },
        {
          "name": "D#5",
          "midi": 75,
          "time": 148.62500000000026,
          "velocity": 0.7401574803149606,
          "duration": 0.4427083333333428
        },
        {
          "name": "F5",
          "midi": 77,
          "time": 148.62500000000026,
          "velocity": 0.6771653543307087,
          "duration": 0.359375
        },
        {
          "name": "A#3",
          "midi": 58,
          "time": 148.75000000000026,
          "velocity": 0.5905511811023622,
          "duration": 0.28125
        },
        {
          "name": "F4",
          "midi": 65,
          "time": 148.75000000000026,
          "velocity": 0.3937007874015748,
          "duration": 0.2447916666666572
        },
        {
          "name": "C5",
          "midi": 72,
          "time": 148.75000000000026,
          "velocity": 0.5354330708661418,
          "duration": 0.1822916666666572
        },
        {
          "name": "G#3",
          "midi": 56,
          "time": 148.81250000000026,
          "velocity": 0.5433070866141733,
          "duration": 0.1875
        },
        {
          "name": "A#4",
          "midi": 70,
          "time": 148.87500000000026,
          "velocity": 0.49606299212598426,
          "duration": 0.171875
        },
        {
          "name": "G#3",
          "midi": 56,
          "time": 149.00000000000026,
          "velocity": 0.7952755905511811,
          "duration": 0.24479166666668561
        },
        {
          "name": "F4",
          "midi": 65,
          "time": 149.00000000000026,
          "velocity": 0.44881889763779526,
          "duration": 0.1302083333333428
        },
        {
          "name": "A#5",
          "midi": 82,
          "time": 149.00000000000026,
          "velocity": 0.5984251968503937,
          "duration": 0.48958333333337123
        },
        {
          "name": "G#3",
          "midi": 56,
          "time": 149.25000000000028,
          "velocity": 0.7480314960629921,
          "duration": 0.2760416666666856
        },
        {
          "name": "A#3",
          "midi": 58,
          "time": 149.25000000000028,
          "velocity": 0.5590551181102362,
          "duration": 0.39583333333337123
        },
        {
          "name": "C4",
          "midi": 60,
          "time": 149.25000000000028,
          "velocity": 0.6062992125984252,
          "duration": 0.3229166666666856
        },
        {
          "name": "C5",
          "midi": 72,
          "time": 149.25000000000028,
          "velocity": 0.6456692913385826,
          "duration": 0.3697916666666856
        },
        {
          "name": "F4",
          "midi": 65,
          "time": 149.37500000000028,
          "velocity": 0.44881889763779526,
          "duration": 0.11979166666668561
        },
        {
          "name": "F4",
          "midi": 65,
          "time": 149.5000000000003,
          "velocity": 0.4881889763779528,
          "duration": 0.36458333333337123
        },
        {
          "name": "A#5",
          "midi": 82,
          "time": 149.5000000000003,
          "velocity": 0.5748031496062992,
          "duration": 0.24479166666668561
        },
        {
          "name": "C#4",
          "midi": 61,
          "time": 149.5625000000003,
          "velocity": 0.5511811023622047,
          "duration": 0.18750000000002842
        },
        {
          "name": "C5",
          "midi": 72,
          "time": 149.6250000000003,
          "velocity": 0.5196850393700787,
          "duration": 0.3750000000000284
        },
        {
          "name": "C#4",
          "midi": 61,
          "time": 149.75000000000034,
          "velocity": 0.5433070866141733,
          "duration": 0.3020833333333428
        },
        {
          "name": "D#5",
          "midi": 75,
          "time": 149.75000000000034,
          "velocity": 0.4881889763779528,
          "duration": 0.25
        },
        {
          "name": "A#5",
          "midi": 82,
          "time": 149.75000000000034,
          "velocity": 0.5984251968503937,
          "duration": 0.3697916666666856
        },
        {
          "name": "F4",
          "midi": 65,
          "time": 149.87500000000034,
          "velocity": 0.5905511811023622,
          "duration": 0.2812500000000284
        },
        {
          "name": "A#3",
          "midi": 58,
          "time": 150.00000000000034,
          "velocity": 0.5196850393700787,
          "duration": 0.3072916666666856
        },
        {
          "name": "C5",
          "midi": 72,
          "time": 150.00000000000034,
          "velocity": 0.7322834645669292,
          "duration": 0.3697916666666856
        },
        {
          "name": "D#5",
          "midi": 75,
          "time": 150.00000000000034,
          "velocity": 0.4409448818897638,
          "duration": 0.5416666666666856
        },
        {
          "name": "G#3",
          "midi": 56,
          "time": 150.12500000000037,
          "velocity": 0.4015748031496063,
          "duration": 0.2135416666666572
        },
        {
          "name": "A#5",
          "midi": 82,
          "time": 150.12500000000037,
          "velocity": 0.48031496062992124,
          "duration": 0.2552083333333428
        },
        {
          "name": "F3",
          "midi": 53,
          "time": 150.25000000000037,
          "velocity": 0.48031496062992124,
          "duration": 0.28125
        },
        {
          "name": "G#4",
          "midi": 68,
          "time": 150.25000000000037,
          "velocity": 0.6220472440944882,
          "duration": 0.4010416666666572
        },
        {
          "name": "C5",
          "midi": 72,
          "time": 150.37500000000037,
          "velocity": 0.5748031496062992,
          "duration": 0.28125
        },
        {
          "name": "G#3",
          "midi": 56,
          "time": 150.50000000000037,
          "velocity": 0.6456692913385826,
          "duration": 0.234375
        },
        {
          "name": "C4",
          "midi": 60,
          "time": 150.50000000000037,
          "velocity": 0.4330708661417323,
          "duration": 0.2708333333333428
        },
        {
          "name": "A#4",
          "midi": 70,
          "time": 150.50000000000037,
          "velocity": 0.4645669291338583,
          "duration": 0.25
        },
        {
          "name": "G#3",
          "midi": 56,
          "time": 150.75000000000037,
          "velocity": 0.7716535433070866,
          "duration": 0.3125
        },
        {
          "name": "A#3",
          "midi": 58,
          "time": 151.00000000000037,
          "velocity": 0.5433070866141733,
          "duration": 0.5520833333333144
        },
        {
          "name": "A#4",
          "midi": 70,
          "time": 151.00000000000037,
          "velocity": 0.8031496062992126,
          "duration": 0.3697916666666572
        },
        {
          "name": "C5",
          "midi": 72,
          "time": 151.00000000000037,
          "velocity": 0.36220472440944884,
          "duration": 0.1354166666666572
        },
        {
          "name": "D#5",
          "midi": 75,
          "time": 151.12500000000037,
          "velocity": 0.5039370078740157,
          "duration": 0.28125
        },
        {
          "name": "G#3",
          "midi": 56,
          "time": 151.25000000000037,
          "velocity": 0.4645669291338583,
          "duration": 0.25
        },
        {
          "name": "G#5",
          "midi": 80,
          "time": 151.25000000000037,
          "velocity": 0.5196850393700787,
          "duration": 1.2968750000000853
        },
        {
          "name": "A#4",
          "midi": 70,
          "time": 151.37500000000037,
          "velocity": 0.41732283464566927,
          "duration": 0.1510416666666572
        },
        {
          "name": "G#3",
          "midi": 56,
          "time": 151.50000000000037,
          "velocity": 0.5039370078740157,
          "duration": 0.5364583333333712
        },
        {
          "name": "C4",
          "midi": 60,
          "time": 151.50000000000037,
          "velocity": 0.5354330708661418,
          "duration": 0.3697916666666856
        },
        {
          "name": "F4",
          "midi": 65,
          "time": 151.50000000000037,
          "velocity": 0.4881889763779528,
          "duration": 0.3020833333333428
        },
        {
          "name": "F5",
          "midi": 77,
          "time": 151.50000000000037,
          "velocity": 0.6535433070866141,
          "duration": 0.2447916666666572
        },
        {
          "name": "C#4",
          "midi": 61,
          "time": 151.75000000000037,
          "velocity": 0.6062992125984252,
          "duration": 0.2500000000000284
        },
        {
          "name": "D#4",
          "midi": 63,
          "time": 151.75000000000037,
          "velocity": 0.5275590551181102,
          "duration": 0.33333333333337123
        },
        {
          "name": "F5",
          "midi": 77,
          "time": 151.75000000000037,
          "velocity": 0.7322834645669292,
          "duration": 0.29166666666671404
        },
        {
          "name": "C4",
          "midi": 60,
          "time": 151.8750000000004,
          "velocity": 0.5354330708661418,
          "duration": 0.24479166666668561
        },
        {
          "name": "C#4",
          "midi": 61,
          "time": 152.0000000000004,
          "velocity": 0.47244094488188976,
          "duration": 0.25520833333337123
        },
        {
          "name": "F4",
          "midi": 65,
          "time": 152.0000000000004,
          "velocity": 0.5984251968503937,
          "duration": 0.24479166666668561
        },
        {
          "name": "D#5",
          "midi": 75,
          "time": 152.0000000000004,
          "velocity": 0.7007874015748031,
          "duration": 0.36979166666671404
        },
        {
          "name": "C4",
          "midi": 60,
          "time": 152.12500000000043,
          "velocity": 0.5669291338582677,
          "duration": 0.6770833333333712
        },
        {
          "name": "F4",
          "midi": 65,
          "time": 152.25000000000043,
          "velocity": 0.5433070866141733,
          "duration": 0.22916666666668561
        },
        {
          "name": "A#4",
          "midi": 70,
          "time": 152.25000000000043,
          "velocity": 0.5511811023622047,
          "duration": 0.8645833333333712
        },
        {
          "name": "F5",
          "midi": 77,
          "time": 152.25000000000043,
          "velocity": 0.5826771653543307,
          "duration": 0.18750000000002842
        },
        {
          "name": "D#4",
          "midi": 63,
          "time": 152.37500000000045,
          "velocity": 0.4251968503937008,
          "duration": 0.1666666666666572
        },
        {
          "name": "D#5",
          "midi": 75,
          "time": 152.37500000000045,
          "velocity": 0.6692913385826772,
          "duration": 0.2864583333333428
        },
        {
          "name": "F3",
          "midi": 53,
          "time": 152.50000000000045,
          "velocity": 0.5275590551181102,
          "duration": 0.25
        },
        {
          "name": "F3",
          "midi": 53,
          "time": 152.75000000000045,
          "velocity": 0.4409448818897638,
          "duration": 0.3020833333333428
        },
        {
          "name": "G#3",
          "midi": 56,
          "time": 152.75000000000045,
          "velocity": 0.6062992125984252,
          "duration": 0.2447916666666572
        },
        {
          "name": "C5",
          "midi": 72,
          "time": 152.75000000000045,
          "velocity": 0.7165354330708661,
          "duration": 0.5364583333333428
        },
        {
          "name": "F4",
          "midi": 65,
          "time": 152.87500000000045,
          "velocity": 0.29133858267716534,
          "duration": 0.453125
        },
        {
          "name": "G#3",
          "midi": 56,
          "time": 153.00000000000045,
          "velocity": 0.6062992125984252,
          "duration": 0.2864583333333428
        },
        {
          "name": "A#3",
          "midi": 58,
          "time": 153.25000000000045,
          "velocity": 0.5590551181102362,
          "duration": 0.5364583333333428
        },
        {
          "name": "D#5",
          "midi": 75,
          "time": 153.25000000000045,
          "velocity": 0.6850393700787402,
          "duration": 0.3802083333333428
        },
        {
          "name": "A#4",
          "midi": 70,
          "time": 153.37500000000045,
          "velocity": 0.41732283464566927,
          "duration": 0.6666666666666856
        },
        {
          "name": "D#4",
          "midi": 63,
          "time": 153.50000000000045,
          "velocity": 0.36220472440944884,
          "duration": 0.3385416666666856
        },
        {
          "name": "G#3",
          "midi": 56,
          "time": 153.75000000000045,
          "velocity": 0.5118110236220472,
          "duration": 0.2760416666666856
        },
        {
          "name": "C4",
          "midi": 60,
          "time": 153.75000000000045,
          "velocity": 0.5511811023622047,
          "duration": 0.3281250000000284
        },
        {
          "name": "C#4",
          "midi": 61,
          "time": 154.00000000000048,
          "velocity": 0.5275590551181102,
          "duration": 0.25
        },
        {
          "name": "F4",
          "midi": 65,
          "time": 154.00000000000048,
          "velocity": 0.4330708661417323,
          "duration": 0.125
        },
        {
          "name": "D#5",
          "midi": 75,
          "time": 154.00000000000048,
          "velocity": 0.4881889763779528,
          "duration": 0.234375
        },
        {
          "name": "F5",
          "midi": 77,
          "time": 154.00000000000048,
          "velocity": 0.7244094488188977,
          "duration": 0.4322916666666572
        },
        {
          "name": "F3",
          "midi": 53,
          "time": 154.12500000000048,
          "velocity": 0.3700787401574803,
          "duration": 0.28125
        },
        {
          "name": "F4",
          "midi": 65,
          "time": 154.12500000000048,
          "velocity": 0.4409448818897638,
          "duration": 0.2395833333333428
        },
        {
          "name": "C#4",
          "midi": 61,
          "time": 154.25000000000048,
          "velocity": 0.49606299212598426,
          "duration": 0.3072916666666572
        },
        {
          "name": "A#4",
          "midi": 70,
          "time": 154.25000000000048,
          "velocity": 0.6850393700787402,
          "duration": 0.765625
        },
        {
          "name": "F4",
          "midi": 65,
          "time": 154.37500000000048,
          "velocity": 0.6141732283464567,
          "duration": 0.2916666666666572
        },
        {
          "name": "A#3",
          "midi": 58,
          "time": 154.50000000000048,
          "velocity": 0.5433070866141733,
          "duration": 0.375
        },
        {
          "name": "F3",
          "midi": 53,
          "time": 154.75000000000048,
          "velocity": 0.4094488188976378,
          "duration": 0.2135416666666572
        },
        {
          "name": "D#4",
          "midi": 63,
          "time": 154.75000000000048,
          "velocity": 0.5196850393700787,
          "duration": 0.4322916666666572
        },
        {
          "name": "F5",
          "midi": 77,
          "time": 154.75000000000048,
          "velocity": 0.5984251968503937,
          "duration": 0.5104166666666572
        },
        {
          "name": "G#5",
          "midi": 80,
          "time": 154.75000000000048,
          "velocity": 0.49606299212598426,
          "duration": 0.625
        },
        {
          "name": "A#3",
          "midi": 58,
          "time": 154.87500000000048,
          "velocity": 0.3858267716535433,
          "duration": 0.1666666666666572
        },
        {
          "name": "F3",
          "midi": 53,
          "time": 155.00000000000048,
          "velocity": 0.41732283464566927,
          "duration": 0.28125
        },
        {
          "name": "G#3",
          "midi": 56,
          "time": 155.00000000000048,
          "velocity": 0.5196850393700787,
          "duration": 0.25
        },
        {
          "name": "A#5",
          "midi": 82,
          "time": 155.00000000000048,
          "velocity": 0.30708661417322836,
          "duration": 0.25
        },
        {
          "name": "C4",
          "midi": 60,
          "time": 155.12500000000048,
          "velocity": 0.4566929133858268,
          "duration": 0.11979166666665719
        },
        {
          "name": "G#3",
          "midi": 56,
          "time": 155.25000000000048,
          "velocity": 0.5433070866141733,
          "duration": 0.2864583333333428
        },
        {
          "name": "C4",
          "midi": 60,
          "time": 155.25000000000048,
          "velocity": 0.5275590551181102,
          "duration": 0.1510416666666572
        },
        {
          "name": "D#5",
          "midi": 75,
          "time": 155.25000000000048,
          "velocity": 0.8267716535433071,
          "duration": 0.359375
        },
        {
          "name": "A#5",
          "midi": 82,
          "time": 155.25000000000048,
          "velocity": 0.49606299212598426,
          "duration": 0.234375
        },
        {
          "name": "G#5",
          "midi": 80,
          "time": 155.37500000000048,
          "velocity": 0.5433070866141733,
          "duration": 0.2552083333333428
        },
        {
          "name": "A#3",
          "midi": 58,
          "time": 155.50000000000048,
          "velocity": 0.4881889763779528,
          "duration": 0.5416666666666288
        },
        {
          "name": "C5",
          "midi": 72,
          "time": 155.50000000000048,
          "velocity": 0.7716535433070866,
          "duration": 0.375
        },
        {
          "name": "C4",
          "midi": 60,
          "time": 155.62500000000048,
          "velocity": 0.3937007874015748,
          "duration": 0.2291666666666572
        },
        {
          "name": "F4",
          "midi": 65,
          "time": 155.62500000000048,
          "velocity": 0.4094488188976378,
          "duration": 0.125
        },
        {
          "name": "A#4",
          "midi": 70,
          "time": 155.62500000000048,
          "velocity": 0.6141732283464567,
          "duration": 0.25
        },
        {
          "name": "D#5",
          "midi": 75,
          "time": 155.62500000000048,
          "velocity": 0.5905511811023622,
          "duration": 0.3020833333333144
        },
        {
          "name": "F4",
          "midi": 65,
          "time": 155.75000000000048,
          "velocity": 0.5748031496062992,
          "duration": 0.1510416666666572
        },
        {
          "name": "G#4",
          "midi": 68,
          "time": 155.87500000000048,
          "velocity": 0.6614173228346457,
          "duration": 0.3749999999999716
        },
        {
          "name": "A#4",
          "midi": 70,
          "time": 155.87500000000048,
          "velocity": 0.5275590551181102,
          "duration": 0.2656249999999716
        },
        {
          "name": "C5",
          "midi": 72,
          "time": 155.87500000000048,
          "velocity": 0.7401574803149606,
          "duration": 0.3749999999999716
        },
        {
          "name": "G#3",
          "midi": 56,
          "time": 156.00000000000045,
          "velocity": 0.5905511811023622,
          "duration": 0.3072916666666572
        },
        {
          "name": "C4",
          "midi": 60,
          "time": 156.00000000000045,
          "velocity": 0.5669291338582677,
          "duration": 0.3541666666666572
        },
        {
          "name": "D#4",
          "midi": 63,
          "time": 156.12500000000045,
          "velocity": 0.4566929133858268,
          "duration": 0.203125
        },
        {
          "name": "F4",
          "midi": 65,
          "time": 156.12500000000045,
          "velocity": 0.4251968503937008,
          "duration": 0.23958333333331439
        },
        {
          "name": "A#5",
          "midi": 82,
          "time": 156.12500000000045,
          "velocity": 0.5354330708661418,
          "duration": 0.140625
        },
        {
          "name": "C#4",
          "midi": 61,
          "time": 156.25000000000045,
          "velocity": 0.5590551181102362,
          "duration": 0.3489583333333144
        },
        {
          "name": "G#4",
          "midi": 68,
          "time": 156.25000000000045,
          "velocity": 0.47244094488188976,
          "duration": 1.1874999999999716
        },
        {
          "name": "A#4",
          "midi": 70,
          "time": 156.25000000000045,
          "velocity": 0.4015748031496063,
          "duration": 0.12499999999997158
        },
        {
          "name": "C5",
          "midi": 72,
          "time": 156.25000000000045,
          "velocity": 0.5039370078740157,
          "duration": 0.22916666666662877
        },
        {
          "name": "A#4",
          "midi": 70,
          "time": 156.37500000000043,
          "velocity": 0.5984251968503937,
          "duration": 0.3697916666666572
        },
        {
          "name": "G#5",
          "midi": 80,
          "time": 156.37500000000043,
          "velocity": 0.3937007874015748,
          "duration": 0.6458333333333428
        },
        {
          "name": "F4",
          "midi": 65,
          "time": 156.50000000000043,
          "velocity": 0.3779527559055118,
          "duration": 0.375
        },
        {
          "name": "C5",
          "midi": 72,
          "time": 156.50000000000043,
          "velocity": 0.31496062992125984,
          "duration": 0.3333333333333428
        },
        {
          "name": "C#4",
          "midi": 61,
          "time": 156.62500000000043,
          "velocity": 0.4409448818897638,
          "duration": 0.7135416666666572
        },
        {
          "name": "A#4",
          "midi": 70,
          "time": 156.75000000000043,
          "velocity": 0.4330708661417323,
          "duration": 0.125
        },
        {
          "name": "D#5",
          "midi": 75,
          "time": 156.75000000000043,
          "velocity": 0.4645669291338583,
          "duration": 0.4322916666666572
        },
        {
          "name": "F4",
          "midi": 65,
          "time": 156.87500000000043,
          "velocity": 0.6614173228346457,
          "duration": 0.28125
        },
        {
          "name": "A#4",
          "midi": 70,
          "time": 156.87500000000043,
          "velocity": 0.41732283464566927,
          "duration": 0.2604166666666572
        },
        {
          "name": "F3",
          "midi": 53,
          "time": 157.00000000000043,
          "velocity": 0.5118110236220472,
          "duration": 0.2447916666666572
        },
        {
          "name": "D#6",
          "midi": 87,
          "time": 157.12500000000043,
          "velocity": 0.4645669291338583,
          "duration": 0.2708333333333428
        },
        {
          "name": "F3",
          "midi": 53,
          "time": 157.25000000000043,
          "velocity": 0.5826771653543307,
          "duration": 0.5625
        },
        {
          "name": "G#3",
          "midi": 56,
          "time": 157.25000000000043,
          "velocity": 0.5590551181102362,
          "duration": 0.2447916666666572
        },
        {
          "name": "A#4",
          "midi": 70,
          "time": 157.25000000000043,
          "velocity": 0.6614173228346457,
          "duration": 0.2447916666666572
        },
        {
          "name": "D#5",
          "midi": 75,
          "time": 157.37500000000043,
          "velocity": 0.4094488188976378,
          "duration": 0.2552083333333428
        },
        {
          "name": "G#3",
          "midi": 56,
          "time": 157.50000000000043,
          "velocity": 0.6141732283464567,
          "duration": 0.2916666666666572
        },
        {
          "name": "A#4",
          "midi": 70,
          "time": 157.50000000000043,
          "velocity": 0.4094488188976378,
          "duration": 0.3697916666666572
        },
        {
          "name": "A#5",
          "midi": 82,
          "time": 157.50000000000043,
          "velocity": 0.4645669291338583,
          "duration": 0.109375
        },
        {
          "name": "C6",
          "midi": 84,
          "time": 157.50000000000043,
          "velocity": 0.5118110236220472,
          "duration": 0.53125
        },
        {
          "name": "F4",
          "midi": 65,
          "time": 157.62500000000043,
          "velocity": 0.6141732283464567,
          "duration": 0.140625
        },
        {
          "name": "G#4",
          "midi": 68,
          "time": 157.62500000000043,
          "velocity": 0.5669291338582677,
          "duration": 0.3697916666666572
        },
        {
          "name": "A#3",
          "midi": 58,
          "time": 157.75000000000043,
          "velocity": 0.5196850393700787,
          "duration": 0.5364583333333428
        },
        {
          "name": "D#4",
          "midi": 63,
          "time": 157.75000000000043,
          "velocity": 0.3464566929133858,
          "duration": 0.4322916666666572
        },
        {
          "name": "G#5",
          "midi": 80,
          "time": 157.87500000000043,
          "velocity": 0.49606299212598426,
          "duration": 0.4166666666666856
        },
        {
          "name": "G#4",
          "midi": 68,
          "time": 158.00000000000043,
          "velocity": 0.5590551181102362,
          "duration": 1.4322916666666856
        },
        {
          "name": "A#5",
          "midi": 82,
          "time": 158.00000000000043,
          "velocity": 0.44881889763779526,
          "duration": 0.4270833333333428
        },
        {
          "name": "G#3",
          "midi": 56,
          "time": 158.25000000000043,
          "velocity": 0.5433070866141733,
          "duration": 0.2864583333333428
        },
        {
          "name": "C4",
          "midi": 60,
          "time": 158.25000000000043,
          "velocity": 0.5433070866141733,
          "duration": 0.3333333333333428
        },
        {
          "name": "F6",
          "midi": 89,
          "time": 158.25000000000043,
          "velocity": 0.5196850393700787,
          "duration": 0.375
        },
        {
          "name": "F3",
          "midi": 53,
          "time": 158.50000000000043,
          "velocity": 0.3228346456692913,
          "duration": 0.15625
        },
        {
          "name": "C#4",
          "midi": 61,
          "time": 158.50000000000043,
          "velocity": 0.5354330708661418,
          "duration": 0.2916666666666572
        },
        {
          "name": "F4",
          "midi": 65,
          "time": 158.50000000000043,
          "velocity": 0.47244094488188976,
          "duration": 0.25
        },
        {
          "name": "F6",
          "midi": 89,
          "time": 158.62500000000043,
          "velocity": 0.4251968503937008,
          "duration": 0.296875
        },
        {
          "name": "F4",
          "midi": 65,
          "time": 158.75000000000043,
          "velocity": 0.5511811023622047,
          "duration": 0.2916666666666572
        },
        {
          "name": "C#4",
          "midi": 61,
          "time": 158.81250000000043,
          "velocity": 0.4251968503937008,
          "duration": 0.75
        },
        {
          "name": "A#5",
          "midi": 82,
          "time": 159.00000000000043,
          "velocity": 0.6929133858267716,
          "duration": 0.5364583333333428
        },
        {
          "name": "F4",
          "midi": 65,
          "time": 159.06250000000043,
          "velocity": 0.41732283464566927,
          "duration": 0.2708333333333428
        },
        {
          "name": "F3",
          "midi": 53,
          "time": 159.25000000000043,
          "velocity": 0.5354330708661418,
          "duration": 0.2760416666666856
        },
        {
          "name": "G#3",
          "midi": 56,
          "time": 159.50000000000045,
          "velocity": 0.6062992125984252,
          "duration": 0.29166666666662877
        },
        {
          "name": "D#4",
          "midi": 63,
          "time": 159.50000000000045,
          "velocity": 0.3700787401574803,
          "duration": 0.29166666666662877
        },
        {
          "name": "F6",
          "midi": 89,
          "time": 159.50000000000045,
          "velocity": 0.5669291338582677,
          "duration": 0.38020833333328596
        },
        {
          "name": "F3",
          "midi": 53,
          "time": 159.56250000000043,
          "velocity": 0.3937007874015748,
          "duration": 0.2916666666666572
        },
        {
          "name": "A#4",
          "midi": 70,
          "time": 159.75000000000043,
          "velocity": 0.5118110236220472,
          "duration": 0.29166666666662877
        },
        {
          "name": "F5",
          "midi": 77,
          "time": 159.75000000000043,
          "velocity": 0.7244094488188977,
          "duration": 0.7447916666666288
        },
        {
          "name": "G#3",
          "midi": 56,
          "time": 159.81250000000043,
          "velocity": 0.5511811023622047,
          "duration": 0.2708333333333144
        },
        {
          "name": "A#3",
          "midi": 58,
          "time": 160.0000000000004,
          "velocity": 0.4881889763779528,
          "duration": 0.546875
        },
        {
          "name": "G#5",
          "midi": 80,
          "time": 160.0000000000004,
          "velocity": 0.3937007874015748,
          "duration": 0.25
        },
        {
          "name": "F4",
          "midi": 65,
          "time": 160.0625000000004,
          "velocity": 0.33858267716535434,
          "duration": 0.1770833333333428
        },
        {
          "name": "A#5",
          "midi": 82,
          "time": 160.2500000000004,
          "velocity": 0.5118110236220472,
          "duration": 0.375
        },
        {
          "name": "C6",
          "midi": 84,
          "time": 160.2500000000004,
          "velocity": 0.6377952755905512,
          "duration": 0.2916666666666572
        },
        {
          "name": "G#4",
          "midi": 68,
          "time": 160.3750000000004,
          "velocity": 0.5511811023622047,
          "duration": 0.4322916666666572
        },
        {
          "name": "G#3",
          "midi": 56,
          "time": 160.5000000000004,
          "velocity": 0.5433070866141733,
          "duration": 0.5520833333333428
        },
        {
          "name": "C4",
          "midi": 60,
          "time": 160.5000000000004,
          "velocity": 0.5039370078740157,
          "duration": 0.3229166666666572
        },
        {
          "name": "F5",
          "midi": 77,
          "time": 160.5000000000004,
          "velocity": 0.6141732283464567,
          "duration": 0.2760416666666572
        },
        {
          "name": "A#5",
          "midi": 82,
          "time": 160.6250000000004,
          "velocity": 0.6062992125984252,
          "duration": 0.40625
        },
        {
          "name": "C#4",
          "midi": 61,
          "time": 160.7500000000004,
          "velocity": 0.5196850393700787,
          "duration": 0.2447916666666572
        },
        {
          "name": "C6",
          "midi": 84,
          "time": 160.7500000000004,
          "velocity": 0.5039370078740157,
          "duration": 0.2708333333333428
        },
        {
          "name": "C#4",
          "midi": 61,
          "time": 161.0000000000004,
          "velocity": 0.4566929133858268,
          "duration": 0.8072916666666572
        },
        {
          "name": "G#5",
          "midi": 80,
          "time": 161.0000000000004,
          "velocity": 0.6535433070866141,
          "duration": 0.3697916666666572
        },
        {
          "name": "G#4",
          "midi": 68,
          "time": 161.2500000000004,
          "velocity": 0.5590551181102362,
          "duration": 0.6197916666666572
        },
        {
          "name": "A#5",
          "midi": 82,
          "time": 161.2500000000004,
          "velocity": 0.6456692913385826,
          "duration": 0.2760416666666572
        },
        {
          "name": "G#5",
          "midi": 80,
          "time": 161.3750000000004,
          "velocity": 0.4409448818897638,
          "duration": 0.28125
        },
        {
          "name": "F3",
          "midi": 53,
          "time": 161.5000000000004,
          "velocity": 0.4881889763779528,
          "duration": 0.3697916666666572
        },
        {
          "name": "G#3",
          "midi": 56,
          "time": 161.7500000000004,
          "velocity": 0.6377952755905512,
          "duration": 0.2760416666666572
        },
        {
          "name": "F6",
          "midi": 89,
          "time": 161.7500000000004,
          "velocity": 0.5118110236220472,
          "duration": 0.3125
        },
        {
          "name": "F3",
          "midi": 53,
          "time": 161.8750000000004,
          "velocity": 0.4094488188976378,
          "duration": 0.1927083333333428
        },
        {
          "name": "G#4",
          "midi": 68,
          "time": 161.8750000000004,
          "velocity": 0.5905511811023622,
          "duration": 0.9166666666666856
        },
        {
          "name": "F6",
          "midi": 89,
          "time": 162.0625000000004,
          "velocity": 0.4094488188976378,
          "duration": 0.18229166666668561
        },
        {
          "name": "A#3",
          "midi": 58,
          "time": 162.25000000000043,
          "velocity": 0.4566929133858268,
          "duration": 0.546875
        },
        {
          "name": "F6",
          "midi": 89,
          "time": 162.25000000000043,
          "velocity": 0.5039370078740157,
          "duration": 0.3697916666666572
        },
        {
          "name": "G#3",
          "midi": 56,
          "time": 162.37500000000043,
          "velocity": 0.5118110236220472,
          "duration": 0.375
        },
        {
          "name": "F5",
          "midi": 77,
          "time": 162.37500000000043,
          "velocity": 0.29133858267716534,
          "duration": 0.15625
        },
        {
          "name": "C6",
          "midi": 84,
          "time": 162.50000000000043,
          "velocity": 0.5984251968503937,
          "duration": 0.5364583333333428
        },
        {
          "name": "F6",
          "midi": 89,
          "time": 162.62500000000043,
          "velocity": 0.44881889763779526,
          "duration": 0.265625
        },
        {
          "name": "G#3",
          "midi": 56,
          "time": 162.75000000000043,
          "velocity": 0.5118110236220472,
          "duration": 0.5572916666666856
        },
        {
          "name": "C4",
          "midi": 60,
          "time": 162.75000000000043,
          "velocity": 0.49606299212598426,
          "duration": 0.3229166666666856
        },
        {
          "name": "C#4",
          "midi": 61,
          "time": 163.00000000000043,
          "velocity": 0.5118110236220472,
          "duration": 0.2500000000000284
        },
        {
          "name": "G#4",
          "midi": 68,
          "time": 163.00000000000043,
          "velocity": 0.47244094488188976,
          "duration": 0.7604166666666856
        },
        {
          "name": "D#5",
          "midi": 75,
          "time": 163.12500000000045,
          "velocity": 0.49606299212598426,
          "duration": 0.203125
        },
        {
          "name": "C#4",
          "midi": 61,
          "time": 163.25000000000045,
          "velocity": 0.4409448818897638,
          "duration": 1.078125
        },
        {
          "name": "F6",
          "midi": 89,
          "time": 163.25000000000045,
          "velocity": 0.5275590551181102,
          "duration": 0.3125
        },
        {
          "name": "D#6",
          "midi": 87,
          "time": 163.37500000000045,
          "velocity": 0.49606299212598426,
          "duration": 0.1770833333333428
        },
        {
          "name": "A#5",
          "midi": 82,
          "time": 163.50000000000045,
          "velocity": 0.6456692913385826,
          "duration": 0.5364583333333428
        },
        {
          "name": "F3",
          "midi": 53,
          "time": 163.75000000000045,
          "velocity": 0.6377952755905512,
          "duration": 0.2447916666666572
        },
        {
          "name": "F3",
          "midi": 53,
          "time": 164.00000000000045,
          "velocity": 0.4566929133858268,
          "duration": 0.3229166666666572
        },
        {
          "name": "G#3",
          "midi": 56,
          "time": 164.00000000000045,
          "velocity": 0.5748031496062992,
          "duration": 0.5625
        },
        {
          "name": "F6",
          "midi": 89,
          "time": 164.00000000000045,
          "velocity": 0.5433070866141733,
          "duration": 0.2239583333333428
        },
        {
          "name": "D#6",
          "midi": 87,
          "time": 164.25000000000045,
          "velocity": 0.6220472440944882,
          "duration": 0.3697916666666572
        },
        {
          "name": "A#4",
          "midi": 70,
          "time": 164.37500000000045,
          "velocity": 0.5275590551181102,
          "duration": 0.2447916666666572
        },
        {
          "name": "A#3",
          "midi": 58,
          "time": 164.50000000000045,
          "velocity": 0.4881889763779528,
          "duration": 0.5520833333333428
        },
        {
          "name": "A#4",
          "midi": 70,
          "time": 164.62500000000045,
          "velocity": 0.5590551181102362,
          "duration": 0.125
        },
        {
          "name": "D#6",
          "midi": 87,
          "time": 164.62500000000045,
          "velocity": 0.5354330708661418,
          "duration": 0.40625
        },
        {
          "name": "G#3",
          "midi": 56,
          "time": 164.75000000000045,
          "velocity": 0.5826771653543307,
          "duration": 0.2395833333333428
        },
        {
          "name": "A#4",
          "midi": 70,
          "time": 164.75000000000045,
          "velocity": 0.4566929133858268,
          "duration": 0.1927083333333428
        },
        {
          "name": "G#3",
          "midi": 56,
          "time": 165.00000000000045,
          "velocity": 0.5905511811023622,
          "duration": 0.5625
        },
        {
          "name": "C4",
          "midi": 60,
          "time": 165.00000000000045,
          "velocity": 0.49606299212598426,
          "duration": 0.3333333333333428
        },
        {
          "name": "A#4",
          "midi": 70,
          "time": 165.12500000000045,
          "velocity": 0.4330708661417323,
          "duration": 0.390625
        },
        {
          "name": "C5",
          "midi": 72,
          "time": 165.12500000000045,
          "velocity": 0.25196850393700787,
          "duration": 0.4322916666666572
        },
        {
          "name": "C#4",
          "midi": 61,
          "time": 165.25000000000045,
          "velocity": 0.6220472440944882,
          "duration": 1.2708333333333144
        },
        {
          "name": "C6",
          "midi": 84,
          "time": 165.25000000000045,
          "velocity": 0.5196850393700787,
          "duration": 0.28125
        },
        {
          "name": "A#5",
          "midi": 82,
          "time": 165.37500000000045,
          "velocity": 0.3858267716535433,
          "duration": 0.390625
        },
        {
          "name": "F5",
          "midi": 77,
          "time": 165.50000000000045,
          "velocity": 0.6929133858267716,
          "duration": 0.2760416666666572
        },
        {
          "name": "G#5",
          "midi": 80,
          "time": 165.62500000000045,
          "velocity": 0.47244094488188976,
          "duration": 0.3697916666666572
        },
        {
          "name": "A#4",
          "midi": 70,
          "time": 165.75000000000045,
          "velocity": 0.3543307086614173,
          "duration": 0.265625
        },
        {
          "name": "D#5",
          "midi": 75,
          "time": 165.75000000000045,
          "velocity": 0.3464566929133858,
          "duration": 0.5
        },
        {
          "name": "F3",
          "midi": 53,
          "time": 166.00000000000045,
          "velocity": 0.47244094488188976,
          "duration": 0.375
        },
        {
          "name": "C6",
          "midi": 84,
          "time": 166.00000000000045,
          "velocity": 0.6692913385826772,
          "duration": 0.3229166666666572
        },
        {
          "name": "D#6",
          "midi": 87,
          "time": 166.00000000000045,
          "velocity": 0.48031496062992124,
          "duration": 0.2760416666666572
        },
        {
          "name": "G#3",
          "midi": 56,
          "time": 166.25000000000045,
          "velocity": 0.6299212598425197,
          "duration": 0.2864583333333144
        },
        {
          "name": "A#4",
          "midi": 70,
          "time": 166.25000000000045,
          "velocity": 0.4645669291338583,
          "duration": 0.2447916666666572
        },
        {
          "name": "F3",
          "midi": 53,
          "time": 166.37500000000045,
          "velocity": 0.4409448818897638,
          "duration": 0.43229166666662877
        },
        {
          "name": "A#4",
          "midi": 70,
          "time": 166.62500000000043,
          "velocity": 0.5118110236220472,
          "duration": 0.2916666666666572
        },
        {
          "name": "A#3",
          "midi": 58,
          "time": 166.75000000000043,
          "velocity": 0.4881889763779528,
          "duration": 0.28125
        },
        {
          "name": "G#3",
          "midi": 56,
          "time": 167.00000000000043,
          "velocity": 0.6141732283464567,
          "duration": 0.25
        },
        {
          "name": "A#5",
          "midi": 82,
          "time": 167.00000000000043,
          "velocity": 0.5590551181102362,
          "duration": 0.28125
        },
        {
          "name": "A#4",
          "midi": 70,
          "time": 167.12500000000043,
          "velocity": 0.4330708661417323,
          "duration": 0.125
        },
        {
          "name": "G#3",
          "midi": 56,
          "time": 167.25000000000043,
          "velocity": 0.5590551181102362,
          "duration": 0.5572916666666572
        },
        {
          "name": "C4",
          "midi": 60,
          "time": 167.25000000000043,
          "velocity": 0.48031496062992124,
          "duration": 0.3229166666666572
        },
        {
          "name": "A#4",
          "midi": 70,
          "time": 167.25000000000043,
          "velocity": 0.4015748031496063,
          "duration": 0.359375
        },
        {
          "name": "C#4",
          "midi": 61,
          "time": 167.50000000000043,
          "velocity": 0.5826771653543307,
          "duration": 0.2447916666666572
        },
        {
          "name": "F6",
          "midi": 89,
          "time": 167.50000000000043,
          "velocity": 0.5433070866141733,
          "duration": 0.3697916666666572
        },
        {
          "name": "C#4",
          "midi": 61,
          "time": 167.75000000000043,
          "velocity": 0.44881889763779526,
          "duration": 0.8072916666666572
        },
        {
          "name": "A#4",
          "midi": 70,
          "time": 167.75000000000043,
          "velocity": 0.3937007874015748,
          "duration": 0.2447916666666572
        },
        {
          "name": "D#6",
          "midi": 87,
          "time": 167.75000000000043,
          "velocity": 0.4645669291338583,
          "duration": 0.2447916666666572
        },
        {
          "name": "F6",
          "midi": 89,
          "time": 167.87500000000043,
          "velocity": 0.44881889763779526,
          "duration": 0.1666666666666572
        }
      ],
      "controlChanges": {},
      "id": 0,
      "name": "SH13_new.3",
      "channelNumber": 0,
      "isPercussion": false
    }
  ]
}